<!-- icon666.com - MILLIONS vector ICONS FREE --><svg id="Layer_1" enable-background="new 0 0 64 64" viewBox="0 0 64 64" xmlns="http://www.w3.org/2000/svg" xmlns:xlink="http://www.w3.org/1999/xlink"><linearGradient id="SVGID_1_" gradientUnits="userSpaceOnUse" x1="8.346" x2="57.827" y1="54.635" y2="5.153"><stop offset="0" stop-color="#215726"></stop><stop offset="1" stop-color="#297742"></stop></linearGradient><path d="m17.1 14.4h11.7c.6 0 1-.4 1-1s-.4-1-1-1h-11.7c-.6 0-1 .4-1 1s.5 1 1 1zm29.7 33.2c0-.6-.4-1-1-1h-28.7c-.6 0-1 .4-1 1s.4 1 1 1h28.7c.5 0 1-.5 1-1zm-29.7-26.4h18.7c.6 0 1-.4 1-1s-.4-1-1-1h-18.7c-.6 0-1 .4-1 1s.5 1 1 1zm0 20.5h24.7c.6 0 1-.4 1-1s-.4-1-1-1h-24.7c-.6 0-1 .4-1 1s.5 1 1 1zm0-13.6h22.7c.6 0 1-.4 1-1s-.4-1-1-1h-22.7c-.6 0-1 .4-1 1s.5 1 1 1zm0 6.8h24.7c.6 0 1-.4 1-1s-.4-1-1-1h-24.7c-.6 0-1 .4-1 1s.5 1 1 1zm45.6-21.1c-.4-.3-.5-.8-.3-1.2.4-.9.4-1.9-.1-2.8s-1.4-1.4-2.3-1.5c-.5 0-.9-.4-.9-.9-.1-1-.6-1.8-1.5-2.3-.8-.5-1.8-.5-2.7-.1-.5.2-1 .2-1.3-.3-.6-.8-1.5-1.2-2.4-1.2s-1.9.4-2.5 1.3c-.3.4-.7.5-1.3.3-1.1-.5-2.5-.3-3.4.7h-37.6c-3.6-.2-6.4 2.6-6.4 6.1v9.5c0 .6.4 1 1 1h9.6v31.8c0 3.5 2.8 6.4 6.3 6.5h37.1c2.6 0 4.7-2.1 4.7-4.7v-1.6c0-.6-.4-1-1-1h-5.3v-13.4l3.1 2.3c.6.5 1.6 0 1.6-.8v-13.8c1.1-.4 1.9-1.4 2-2.6 0-.5.4-.9.9-.9 1-.1 1.8-.6 2.3-1.5.5-.8.5-1.8.1-2.7-.2-.6-.1-1 .3-1.3.8-.6 1.2-1.5 1.2-2.4.1-1.1-.5-2.1-1.2-2.5zm-52.1 6.6h-8.6v-8.5c0-2.4 1.9-4.3 4.3-4.3 1.1 0 2.2.4 3 1.2s1.2 1.9 1.2 3.1v8.5zm10.6 34c0 2.3-1.9 4.2-4.2 4.3-2.4-.1-4.4-2.1-4.4-4.5v-42.3c0-1.6-.6-3.1-1.7-4.3h32.2c-.2.6-.6.6-1 .7-1.5.2-2.6 1.5-2.6 3 0 1.2.9 1.9 0 2.5-.7.5-1.3 1.4-1.3 2.5 0 .9.4 1.8 1.3 2.5.9.6 0 1.4 0 2.5 0 1.6 1.2 2.8 2.7 3 .5 0 .9.4.9.9.1 1 .6 1.9 1.5 2.3.2.1.4.2.6.2v13.8c0 .8 1 1.3 1.6.8l3.5-2.6v13.7h-28.1c-.5 0-1 .4-1 1zm35.4 1v.6c0 1.5-1.2 2.7-2.7 2.7h-32.4c.8-.9 1.4-2 1.6-3.3zm-1.6-15.9-3.3-2.4c-.3-.2-.8-.3-1.2 0l-3.3 2.4v-11.9c.6-.2 1.1-.3 1.4.3.6.8 1.5 1.3 2.5 1.3s1.9-.5 2.5-1.3c.4-.5.9-.5 1.4-.3zm6.5-22.4c-1.1.8-1.6 2.3-1 3.7.1.3.1.6 0 .9-.2.3-.4.5-.8.5-1.4.1-2.6 1.3-2.7 2.7-.1.7-.8 1.1-1.4.8-1.3-.6-2.9-.2-3.7 1-.4.5-1.1.7-1.7 0-.8-1.2-2.4-1.6-3.7-1-.6.3-1.4-.1-1.4-.8-.1-1.4-1.3-2.6-2.7-2.7-.7-.1-1.1-.8-.8-1.4.6-1.3.2-3-1-3.7-.3-.2-.4-.5-.4-.8s.1-.6.5-.8c1.2-.8 1.6-2.4 1-3.7-.3-.6.1-1.3.8-1.4 1.4-.1 2.6-1.2 2.7-2.7.1-.8.9-1.1 1.4-.8 1.3.6 2.9.2 3.7-1 .4-.5 1.2-.7 1.7 0 .8 1.2 2.3 1.6 3.6 1 .8-.5 1.4 0 1.4.6.1 1.4 1.2 2.5 2.6 2.7.3.1.6.1.9.5.4.7-.2 1-.2 2.2 0 1 .5 2 1.3 2.5.3.2.4.5.4.8 0 .4-.2.7-.5.9zm-10.4-7.2c-3.5 0-6.3 2.8-6.3 6.3s2.8 6.3 6.3 6.3 6.3-2.8 6.3-6.3c0-3.4-2.9-6.3-6.3-6.3zm0 10.6c-2.4 0-4.3-1.9-4.3-4.3s1.9-4.3 4.3-4.3 4.3 1.9 4.3 4.3-2 4.3-4.3 4.3z" fill="url(#SVGID_1_)"></path></svg>