<!-- icon666.com - MILLIONS vector ICONS FREE --><svg xmlns="http://www.w3.org/2000/svg" xmlns:xlink="http://www.w3.org/1999/xlink" id="Gradient" viewBox="0 0 512 512"><defs><linearGradient id="linear-gradient" x1="256" y1="496" x2="256" y2="16" gradientUnits="userSpaceOnUse"><stop offset="0" stop-color="#12c0e7"></stop><stop offset="0.5" stop-color="#c271eb"></stop><stop offset="1" stop-color="#f44f5a"></stop></linearGradient></defs><path d="M208,136a8,8,0,1,1,8,8A8,8,0,0,1,208,136Zm88,8a8,8,0,1,0-8-8A8,8,0,0,0,296,144Zm-69.657,29.657C227.4,174.715,237.229,184,256,184h0c18.772,0,28.6-9.285,29.657-10.343a8,8,0,0,0-11.314-11.314c-.057.057-6.2,5.657-18.343,5.657s-18.286-5.6-18.343-5.657a8,8,0,0,0-11.314,11.314ZM423.9,410.167l-4.448,54.557c0,.037-.006.073-.01.109C417.747,482.6,402.511,496,384,496c-.683,0-1.361-.024-2.035-.06-28.792-1.249-75.6-28.364-110.208-51.209a28.568,28.568,0,0,0-31.514,0c-34.6,22.845-81.416,49.96-110.208,51.209-.674.036-1.352.06-2.035.06-18.511,0-33.747-13.4-35.441-31.167,0-.036-.007-.072-.01-.109L88.1,410.167a23.625,23.625,0,0,1,6.084-18.021A25.165,25.165,0,0,1,112.8,384H136.66c1.741-20.3,6.543-77.017,7.349-94.371,1.585-34.149,19.293-65.03,46.3-82.5q-3.678-2.307-7.072-4.911a77.588,77.588,0,0,1-25.813-34.679,32.006,32.006,0,1,1-1.827-63.336c4.116-18.107,11.644-35.053,22-48.884C196.854,29.6,223.966,16,256,16s59.146,13.6,78.4,39.323c10.354,13.83,17.882,30.775,22,48.881a32,32,0,1,1-1.827,63.339,77.588,77.588,0,0,1-25.813,34.679q-3.389,2.607-7.071,4.91c27.012,17.465,44.715,48.331,46.3,82.5C368.8,306.983,373.6,363.7,375.34,384H399.2a25.165,25.165,0,0,1,18.614,8.146A23.625,23.625,0,0,1,423.9,410.167ZM360,136a96.991,96.991,0,0,1-1.287,15.928c.427.033.853.072,1.287.072a16,16,0,0,0,0-32c-.306,0-.607.03-.91.047A142.66,142.66,0,0,1,360,136ZM153.287,151.928A96.991,96.991,0,0,1,152,136a142.7,142.7,0,0,1,.91-15.955c-.3-.017-.6-.045-.91-.045a16,16,0,0,0,0,32C152.434,152,152.86,151.961,153.287,151.928ZM256,32c-20.672,0-36.353,6.682-48,15.3V48c0,27.651,14.98,39.85,24.953,44.906C238.239,64.369,263.713,64,264,64a8,8,0,0,1,8,8c0,4.079,4.626,6.085,8.907,7.068,3.2-15.688,14.142-27.331,20.983-33.286C290.479,37.91,275.445,32,256,32ZM193,189.543C208.46,201.445,230.835,208,256,208s47.54-6.555,63-18.457c16.587-12.768,25-30.782,25-53.543,0-26.158-8.166-52.069-22.4-71.088a90,90,0,0,0-7.328-8.613C309,60.527,296,72.517,296,88a8,8,0,0,1-8,8c-8.915,0-24.229-3.254-29.851-14.441C253.488,83.891,248,89.678,248,104a8,8,0,0,1-9.569,7.845A60.151,60.151,0,0,1,215,100.247c-8.666-6.933-18.7-18.979-21.934-38.718q-1.407,1.707-2.664,3.383C176.166,83.931,168,109.842,168,136,168,158.761,176.41,176.775,193,189.543ZM264,344a32.012,32.012,0,0,1,16-27.695V304H232v12.305a31.969,31.969,0,0,1,0,55.39V376a8.009,8.009,0,0,0,8,8h32a8.009,8.009,0,0,0,8-8V371.7A32.012,32.012,0,0,1,264,344Zm-32,0a16.019,16.019,0,0,0-16-16h-8a8.009,8.009,0,0,0-8,8v16a8.009,8.009,0,0,0,8,8h8A16.019,16.019,0,0,0,232,344Zm48,0a16.019,16.019,0,0,0,16,16h8a8.009,8.009,0,0,0,8-8V336a8.009,8.009,0,0,0-8-8h-8A16.019,16.019,0,0,0,280,344Zm0-64a8.009,8.009,0,0,0-8-8,8,8,0,0,1-8-8v-8a8,8,0,0,0-16,0v8a8,8,0,0,1-8,8,8.009,8.009,0,0,0-8,8v8h48Zm-32-56c0-.073-.006-.145-.007-.217a136.964,136.964,0,0,1-31.131-4.993A16,16,0,1,0,248,224Zm32,16a16.025,16.025,0,0,0,15.138-21.21,136.938,136.938,0,0,1-31.128,4.993c0,.073-.01.144-.01.217A16.019,16.019,0,0,0,280,240ZM149.977,402.91A9.138,9.138,0,0,0,143.2,400H112.8a9.138,9.138,0,0,0-6.776,2.91,7.493,7.493,0,0,0-1.989,5.8c0,.036.007.073.01.109l4.447,54.548C109.422,472.852,117.8,480,128,480s18.578-7.148,19.509-16.636l4.447-54.548c0-.036.006-.073.01-.109A7.493,7.493,0,0,0,149.977,402.91Zm209.457-17.124c-1.724-20.059-6.59-77.414-7.425-95.415-1.372-29.545-16.828-56.126-40.3-70.642A31.7,31.7,0,0,1,312,224a32.036,32.036,0,0,1-32,32v1.371A24.042,24.042,0,0,1,296,280v32h8a23.889,23.889,0,0,1,8,1.376V312a8,8,0,0,1,16,0v64a8,8,0,0,1-16,0v-1.376A23.889,23.889,0,0,1,304,376h-8a24.027,24.027,0,0,1-24,24H240a24.027,24.027,0,0,1-24-24h-8a23.885,23.885,0,0,1-8-1.376V376a8,8,0,0,1-16,0V312a8,8,0,0,1,16,0v1.376A23.885,23.885,0,0,1,208,312h8V280a24.041,24.041,0,0,1,16-22.629V256a32.036,32.036,0,0,1-32-32,32.566,32.566,0,0,1,.306-4.276c-23.476,14.516-38.943,41.112-40.315,70.647-.835,18-5.7,75.356-7.425,95.415a24.791,24.791,0,0,1,9.249,6.36,23.625,23.625,0,0,1,6.084,18.021l-4.448,54.557c0,.037-.006.073-.01.109a33.924,33.924,0,0,1-1,5.53c18.908-8.222,42.486-21.488,68.99-38.985a44.541,44.541,0,0,1,49.142,0c26.5,17.5,50.082,30.763,68.99,38.985a33.924,33.924,0,0,1-1-5.53c0-.036-.007-.072-.01-.109L344.1,410.167a23.625,23.625,0,0,1,6.084-18.021A24.791,24.791,0,0,1,359.434,385.786Zm46.543,17.124A9.138,9.138,0,0,0,399.2,400H368.8a9.138,9.138,0,0,0-6.776,2.91,7.493,7.493,0,0,0-1.989,5.8c0,.036.007.073.01.109l4.447,54.548C365.422,472.852,373.8,480,384,480s18.578-7.148,19.509-16.636l4.447-54.548c0-.036.006-.073.01-.109A7.493,7.493,0,0,0,405.977,402.91Z" style="fill:url(#linear-gradient)"></path></svg>