<!-- icon666.com - MILLIONS OF FREE VECTOR ICONS --><svg clip-rule="evenodd" fill-rule="evenodd" image-rendering="optimizeQuality" shape-rendering="geometricPrecision" text-rendering="geometricPrecision" viewBox="0 0 1706.66 1706.66" xmlns="http://www.w3.org/2000/svg" xmlns:xlink="http://www.w3.org/1999/xlink" xmlns:xodm="http://www.corel.com/coreldraw/odm/2003"><linearGradient id="id0" gradientUnits="userSpaceOnUse" x1="94.63" x2="1612.05" y1="853.27" y2="853.27"><stop offset="0" stop-color="#ffb800"></stop><stop offset="1" stop-color="#ff5329"></stop></linearGradient><g id="Layer_x0020_1"><path d="m1058.37 1298.25h-828.17v95.41h1246.27v-95.41zm-584.22-39.99v-700.2h-88.08v225.05c0 11.06-8.96 20.01-20 20.01h-127.94c-31.28 0-51.5-23.53-51.5-57.57h-44.96c-45.76 0-82.97-37.22-82.97-82.98v-104.51c-25.5 0-58.6 5.98-58.6-20s33.1-20 58.6-20v-104.5c0-45.76 37.22-82.99 82.97-82.99h44.96c0-34.04 20.22-57.57 51.5-57.57h127.94c11.04 0 20 8.96 20 20v225.07h88.08v-186.48c0-26.33 40-26.33 40 0v186.48h678.35v-186.48c0-26.32 40-26.33 40 0v186.48h88.1v-225.07c0-11.04 8.97-20 20-20h127.94c31.28 0 51.5 23.53 51.5 57.57h44.95c45.76 0 82.99 37.23 82.99 82.99v104.5c25.49 0 58.57-5.97 58.57 20s-33.09 20-58.57 20v104.51c0 45.76-37.23 82.98-82.99 82.98h-44.95c0 34.04-20.21 57.57-51.5 57.57h-127.94c-11.04 0-20-8.96-20-20v-225.07h-88.1v700.2h263.98c11.04 0 20 8.97 20 20v135.41c0 11.04-8.97 20-20 20h-1286.27c-11.04 0-20-8.97-20-20v-135.41c0-11.04 8.96-20 20-20h263.95zm40-700.2v700.2h114.15v-70.02c-29.34-1.24-52.83-25.5-52.83-55.13v-65.98c0-49.84 40.54-90.39 90.36-90.39h374.97c49.83 0 90.38 40.55 90.38 90.39v65.98c.01 29.64-23.49 53.9-52.83 55.14v70.01h114.15v-700.2zm446.23 700.2v-69.96h-214.09v69.96zm19.8-109.96c128.32-2.52 111.02 21.36 111.02-81.15 0-27.79-22.59-50.38-50.37-50.38h-374.98c-27.78 0-50.37 22.59-50.37 50.38v65.98c0 8.37 6.82 15.18 15.19 15.18h349.5zm20.2 40v69.96h37.98v-69.96zm-294.09 0h-38v69.96h38zm813.74-817.73v334.98h44.95c23.7 0 42.98-19.29 42.98-42.98v-249.01c0-23.7-19.27-43-42.98-43h-44.95zm-159.44 392.56h107.93c6.22 0 11.48-5.26 11.48-11.5l.01-427.14c0-6.24-5.26-11.5-11.48-11.5l-107.93.01v450.13zm-1173.96-57.58v-334.98h-44.96c-23.7 0-42.98 19.29-42.98 43v249.01c0 23.7 19.29 42.98 42.98 42.98h44.96zm51.5-392.56c-15.31 0-11.5 20.87-11.5 37.57v401.06c0 6.24 5.26 11.5 11.5 11.5h107.94v-450.13z" fill="url(#id0)"></path></g></svg>