<!-- icon666.com - MILLIONS vector ICONS FREE --><svg viewBox="0 0 512 512" xmlns="http://www.w3.org/2000/svg" xmlns:xlink="http://www.w3.org/1999/xlink"><linearGradient id="linear-gradient" gradientUnits="userSpaceOnUse" x1=".129" x2="420.21" y1="454.505" y2="34.425"><stop offset=".041" stop-color="#4158d0"></stop><stop offset="1" stop-color="#c850c0"></stop></linearGradient><g id="apple_fruit_healty_food" data-name="apple fruit healty food"><path d="m35.888 119.2c-6.266-6.987-16.922 1.717-10.985 9.3.759.9 75.673 91.779 41.565 224.381-34.548 139.363-37.7 137.3-23.624 140.578l106.41.048a7.2 7.2 0 0 0 6.916-5.2l12.7-43.983 11.5 43.814a7.2 7.2 0 0 0 6.958 5.37h98.81a7.2 7.2 0 0 0 7.2-7.2c2.055-12.2 12.852-63.312 9.8-90.619-.909-51.111-41.329-98.8-69.109-137.728-7.051-9.909-12.464-18.3-14.168-24-8.969-29.954 7.393-88.142 7.562-88.725 2.352-9.073-10.885-13.111-13.846-3.943-.724 2.548-17.676 62.812-7.506 96.794 2.032 6.789 7 15 13.733 24.682-52.548 53.177-94.064 83.2-134.268 69.857 22.164-126.709-46.529-209.753-49.648-213.426zm107.955 359.9-93.4-.043c2.186-10.882 8.4-38.283 25.924-106.827 29.89 2.523 60.409 25.807 84.66 47.349zm144.9-83.019c2.706 22.36-5.568 66.988-8.807 83.022h-87.057l-16-60.979c22.321-41.981 51.549-89.4 83.671-97.761 15.378 24.255 28.219 50.837 28.188 75.721zm-184.463-45.941c43.486 0 86.065-37.153 124.047-75.489 7.975 10.875 15.7 21.158 23.943 33.185-33.706 11.811-61.7 54.611-85.122 97.947-24.781-21.623-55.471-43.969-87.171-47.628.985-3.747 1.855-7.538 2.68-11.257a74.024 74.024 0 0 0 21.623 3.242zm29.695-53.94-2.116-5.953c-2.9-9.054 10.081-13.692 13.565-4.821l2.115 5.952c2.907 9.022-10.066 13.712-13.564 4.822zm-91.122 35.983c8.582-29.779 8.589-59.255.028-87.607a7.2 7.2 0 1 1 13.776-4.161c9.375 31.047 9.389 63.265.028 95.753-2.936 9.076-16.19 5.215-13.832-3.985zm-23-28.956a44.087 44.087 0 0 0 0-23.292 7.2 7.2 0 0 1 13.916-3.7 59.155 59.155 0 0 1 0 30.685 7.2 7.2 0 1 1 -13.916-3.7zm466.447-149.903c-38.422 0-87.31 0-125.681 0l46.281-57.324a20.892 20.892 0 0 0 1.134-2.179c.218-.772.321-1.547.469-2.326v-65.795a7.2 7.2 0 0 0 -7.2-7.2h-375.603a7.2 7.2 0 0 0 -7.2 7.2v65.8a7.2 7.2 0 0 0 7.2 7.2h271.584l-49.62 57.1a6.881 6.881 0 0 0 -.5.883 7.884 7.884 0 0 0 -1.263 3.837v65.8a7.2 7.2 0 0 0 7.2 7.2h233.199a7.2 7.2 0 0 0 7.2-7.2v-65.8a7.2 7.2 0 0 0 -7.2-7.196zm-453.406-69.024v-51.4h14.865v22.52a7.2 7.2 0 1 0 14.394 0v-22.526h24.81v8.132a7.2 7.2 0 0 0 14.394 0v-8.132h24.88v22.526a7.2 7.2 0 0 0 14.394 0v-22.526h24.8v8.132a7.2 7.2 0 0 0 14.394 0v-8.132h24.881v22.526a7.2 7.2 0 1 0 14.393 0v-22.526h24.8v8.132a7.2 7.2 0 1 0 14.394 0v-8.132h24.88v22.526a7.2 7.2 0 0 0 14.394 0v-22.526h24.8v8.132a7.2 7.2 0 1 0 14.394 0v-8.132h24.81v22.526a7.2 7.2 0 1 0 14.394 0v-22.526h18.133v51.406zm283.456 14.389h69.875l-44.1 54.635c-19.733 0-53.581 0-73.24 0zm162.756 120.43h-218.812v-51.4h25.035v20.557a7.2 7.2 0 1 0 14.394 0v-20.558h24.81v6.163a7.2 7.2 0 0 0 14.394 0v-6.163h24.873v20.557a7.2 7.2 0 1 0 14.394 0v-20.557h24.806v6.163a7.2 7.2 0 0 0 14.394 0v-6.163h24.88v20.557a7.2 7.2 0 0 0 14.394 0v-20.557h22.434zm-76.812 25.513c-50.288 0-91.2 41.006-91.2 91.41 4.586 121.1 177.838 121.061 182.4 0 .006-50.404-40.906-91.41-91.2-91.41zm0 168.422a76.994 76.994 0 0 1 -76.805-77.012c3.862-102.037 149.768-102 153.617 0a77 77 0 0 1 -76.812 77.012zm44.981-119.917a7.141 7.141 0 0 0 -5.292 1.94l-55.783 52.379-23.531-22.631a7.249 7.249 0 0 0 -10.992 1.216l-12.083 18.259a7.2 7.2 0 0 0 1.1 9.246l40.546 37.64a7.2 7.2 0 0 0 9.826-.028l74.415-69.875a7.2 7.2 0 0 0 .506-9.966l-13.645-15.717a7.191 7.191 0 0 0 -5.067-2.463zm-61.16 82.931-31.15-28.915 3.95-5.967 22.238 21.384a7.2 7.2 0 0 0 9.917.06l55.312-51.939 4.2 4.842z" fill="url(#linear-gradient)"></path></g></svg>