<!-- icon666.com - MILLIONS vector ICONS FREE --><svg xmlns="http://www.w3.org/2000/svg" xmlns:xlink="http://www.w3.org/1999/xlink" viewBox="0 0 64 64"><defs><linearGradient id="linear-gradient" y1="50" x2="63.127" y2="50" gradientUnits="userSpaceOnUse"><stop offset="0" stop-color="#fc4a1a"></stop><stop offset="1" stop-color="#f7b733"></stop></linearGradient><linearGradient id="linear-gradient-5" y1="38" x2="63.127" y2="38" xlink:href="#linear-gradient"></linearGradient><linearGradient id="linear-gradient-8" y1="42" x2="63.127" y2="42" xlink:href="#linear-gradient"></linearGradient><linearGradient id="linear-gradient-13" y1="34" x2="63.127" y2="34" xlink:href="#linear-gradient"></linearGradient><linearGradient id="linear-gradient-17" y1="26" x2="63.127" y2="26" xlink:href="#linear-gradient"></linearGradient><linearGradient id="linear-gradient-19" y1="14" x2="63.127" y2="14" xlink:href="#linear-gradient"></linearGradient><linearGradient id="linear-gradient-22" y1="23" x2="63.127" y2="23" xlink:href="#linear-gradient"></linearGradient></defs><g id="Gradient_outline" data-name="Gradient outline"><rect x="6" y="49" width="2" height="2" style="fill:url(#linear-gradient)"></rect><rect x="18" y="49" width="2" height="2" style="fill:url(#linear-gradient)"></rect><rect x="26" y="49" width="2" height="2" style="fill:url(#linear-gradient)"></rect><rect x="38" y="49" width="2" height="2" style="fill:url(#linear-gradient)"></rect><path d="M61,45H54V38a1,1,0,0,0-1-1H44V31h9a1,1,0,0,0,1-1V22a1,1,0,0,0-1-1H33a1,1,0,0,0-1,1v7H3a1,1,0,0,0-1,1V54a1,1,0,0,0,1,1H61a1,1,0,0,0,1-1V46A1,1,0,0,0,61,45ZM34,23H52v6H34ZM24,31H42v6H24ZM4,31H22v6H4Zm0,8h8v6H4ZM22,53H4V47H22Zm-8-8V39H32v6Zm28,8H24V47H42Zm-8-8V39H52v6Zm26,8H44V47H60Z" style="fill:url(#linear-gradient-5)"></path><rect x="46" y="49" width="2" height="2" style="fill:url(#linear-gradient)"></rect><rect x="56" y="49" width="2" height="2" style="fill:url(#linear-gradient)"></rect><rect x="16" y="41" width="2" height="2" style="fill:url(#linear-gradient-8)"></rect><rect x="28" y="41" width="2" height="2" style="fill:url(#linear-gradient-8)"></rect><rect x="36" y="41" width="2" height="2" style="fill:url(#linear-gradient-8)"></rect><rect x="48" y="41" width="2" height="2" style="fill:url(#linear-gradient-8)"></rect><rect x="8" y="41" width="2" height="2" style="fill:url(#linear-gradient-8)"></rect><rect x="6" y="33" width="2" height="2" style="fill:url(#linear-gradient-13)"></rect><rect x="18" y="33" width="2" height="2" style="fill:url(#linear-gradient-13)"></rect><rect x="26" y="33" width="2" height="2" style="fill:url(#linear-gradient-13)"></rect><rect x="38" y="33" width="2" height="2" style="fill:url(#linear-gradient-13)"></rect><rect x="36" y="25" width="2" height="2" style="fill:url(#linear-gradient-17)"></rect><rect x="48" y="25" width="2" height="2" style="fill:url(#linear-gradient-17)"></rect><path d="M7,19H27a1,1,0,0,0,1-1V10a1,1,0,0,0-1-1H7a1,1,0,0,0-1,1v8A1,1,0,0,0,7,19Zm1-8H26v6H8Z" style="fill:url(#linear-gradient-19)"></path><rect x="10" y="13" width="2" height="2" style="fill:url(#linear-gradient-19)"></rect><rect x="22" y="13" width="2" height="2" style="fill:url(#linear-gradient-19)"></rect><rect x="10" y="21" width="2" height="4" style="fill:url(#linear-gradient-22)"></rect><rect x="14" y="21" width="2" height="4" style="fill:url(#linear-gradient-22)"></rect><rect x="18" y="21" width="2" height="4" style="fill:url(#linear-gradient-22)"></rect><rect x="22" y="21" width="2" height="4" style="fill:url(#linear-gradient-22)"></rect></g></svg>