<!-- icon666.com - MILLIONS OF FREE VECTOR ICONS --><svg viewBox="0 0 512 512" xmlns="http://www.w3.org/2000/svg" xmlns:xlink="http://www.w3.org/1999/xlink"><linearGradient id="a" gradientUnits="userSpaceOnUse" x1="74.5" x2="509.156" y1="545.5" y2="110.844" data-name="New Gradient Swatch 1"><stop offset="0" stop-color="#003f8a"></stop><stop offset=".518" stop-color="#00d7df"></stop><stop offset="1" stop-color="#006df0"></stop></linearGradient><linearGradient id="b" x1="114.5" x2="549.156" xlink:href="#a" y1="585.5" y2="150.844"></linearGradient><linearGradient id="c" x1="154.5" x2="589.156" xlink:href="#a" y1="625.5" y2="190.844"></linearGradient><linearGradient id="d" x1="44.052" x2="478.708" xlink:href="#a" y1="515.052" y2="80.396"></linearGradient><g><path d="m200 424a8 8 0 0 0 0-16h-48a8 8 0 0 0 -8 8v56a8 8 0 0 0 8 8h48a8 8 0 0 0 0-16h-40v-40z" fill="url(#a)"></path><path d="m280 408h-48a8 8 0 0 0 -8 8v56a8 8 0 0 0 16 0v-16h32v16a8 8 0 0 0 16 0v-56a8 8 0 0 0 -8-8zm-40 32v-16h32v16z" fill="url(#b)"></path><path d="m360 464h-40v-48a8 8 0 0 0 -16 0v56a8 8 0 0 0 8 8h48a8 8 0 0 0 0-16z" fill="url(#c)"></path><path d="m364 368h-27.15c18.11-19.89 27.65-48.26 27.65-82.5 0-2.2-.08-4.45-.24-6.82 24.56-31.79 26.2-72.28 4.69-117.27a245.66 245.66 0 0 0 -40.17-58.72 8 8 0 0 0 -12.9 9.14c9.53 19.07 11.89 38.4 7.06 57.64-41.64-52.58-42.83-152.63-42.84-153.7a8 8 0 0 0 -15.15-3.55c-.4.8-37.28 74.12-63.02 123.44-13.15-14.9-30.34-28.18-51.26-39.6a8 8 0 0 0 -8.54 13.48c2.27 1.67 21.72 16.93 6.27 38.4-11.62 16.14-21.5 46.54-24.04 73.93-4.16 44.96 10.4 69.74 24.4 82.93 2.93 25.96 11.87 47.14 26.59 63.2h-27.35a28.031 28.031 0 0 0 -28 28v80a28.031 28.031 0 0 0 28 28h216a28.031 28.031 0 0 0 28-28v-80a28.031 28.031 0 0 0 -28-28zm-199.64-67.82a7.965 7.965 0 0 0 -2.76-5.33c-21.38-18.33-23.39-49-21.3-71.5 2.56-27.7 12.55-54.2 21.09-66.06 7.61-10.57 9.77-20.6 8.85-29.45a138.268 138.268 0 0 1 26.66 27.05 8 8 0 0 0 13.53-1c16.74-31.75 40.74-78.94 55.53-108.15 1.05 10.54 2.71 23.19 5.32 36.8 9.41 49.21 26.01 85.62 49.35 108.2a8 8 0 0 0 12.95-2.69 97.86 97.86 0 0 0 7.57-43.37 208.37 208.37 0 0 1 13.52 23.97c19.2 40.37 17.73 74.66-4.38 101.9a.555.555 0 0 0 -.06.08c-.11.13-.22.26-.34.4a8 8 0 0 0 -1.83 5.92c.29 3.04.44 5.91.44 8.55 0 32.81-9.06 58.14-26.94 75.29a78.485 78.485 0 0 1 -24.09 15.65c4.3-8.07 6.53-17.94 6.53-29.18 0-32.75-39.47-95.31-41.15-97.95a7.984 7.984 0 0 0 -13.5 0c-1.68 2.64-41.15 65.2-41.15 97.95 0 11.29 2.25 21.21 6.58 29.3-29.06-12.17-46.9-38.55-50.42-76.38zm106.82 46.38c-4.1-8.04-8.16-14.45-8.33-14.71a7.984 7.984 0 0 0 -13.5 0c-.18.26-4.23 6.67-8.33 14.71-5.94 11.65-8.82 20.44-8.82 26.9 0 .2.01.39.01.59-4.71-5.47-8.01-13.9-8.01-26.79 0-19.37 19.22-56.47 31.9-78.23 12.68 21.75 31.9 58.85 31.9 78.23 0 12.89-3.3 21.32-8.01 26.79 0-.2.01-.39.01-.59 0-6.46-2.89-15.25-8.82-26.9zm-7.18 26.9c0 8.71-4.51 9.71-7.9 9.71s-7.9-1-7.9-9.71c0-4.47 3.66-13.12 7.9-21.25 4.24 8.13 7.9 16.78 7.9 21.25zm112 102.54a12.01 12.01 0 0 1 -12 12h-216a12.01 12.01 0 0 1 -12-12v-80a12.01 12.01 0 0 1 12-12h46.6c17.04 10.62 38.03 16.18 61.5 16.18 23.58 0 44.49-5.55 61.51-16.18h46.39a12.01 12.01 0 0 1 12 12z" fill="url(#d)"></path></g></svg>