<!-- icon666.com - MILLIONS OF FREE VECTOR ICONS --><svg id="Layer_1" enable-background="new 0 0 128 128" viewBox="0 0 128 128" xmlns="http://www.w3.org/2000/svg" xmlns:xlink="http://www.w3.org/1999/xlink"><linearGradient id="SVGID_1_" gradientTransform="matrix(1 0 0 -1 0 127.89)" gradientUnits="userSpaceOnUse" x1="100.9" x2="27.103" y1="17.715" y2="91.512"><stop offset="0" stop-color="#2cc0f1"></stop><stop offset="1" stop-color="#9cdd03"></stop></linearGradient><path d="m75.8 29.3c.4.9 1.5 1.2 2.3.8.9-.4 1.3-1.4.8-2.3-.5-1-1.4-2.8-2.1-4.1-.5-.8-1.5-1.2-2.4-.7-.8.5-1.2 1.5-.7 2.4.7 1.3 1.4 2.6 2.1 3.9zm38 32.7v34.6c0 1-.8 1.7-1.8 1.8-2.3 0-9.2 0-9.2 0-7.8 18-25 24.4-38.8 24.4s-31-6.4-38.8-24.4c0 0-6.9 0-9.2 0-1 0-1.7-.8-1.8-1.8 0-2.2 0-8.6 0-8.6 0-1 .8-1.8 1.8-1.8s1.8.8 1.8 1.8v6.9h92.5v-31.2h-92.5v14.8c0 1-.8 1.8-1.8 1.8s-1.8-.8-1.8-1.8c0 0 0-12.4 0-16.6 0-1 .8-1.8 1.8-1.8h6.5c2.8-14.2 9.3-27.4 19-38.2 1.2-1.2 3.3-.1 3 1.6-1.1 5-1.1 10.2 0 15.2 6-17.1 17.7-32.2 18.2-32.9.7-.8 2-.8 2.8 0 .1.1 2.8 3.5 6.3 9 .5.8.2 1.9-.6 2.4s-1.9.3-2.4-.5c-1.9-3-3.6-5.4-4.7-6.9-3.7 5.1-14 20.2-17.9 35.3-.4 1.6-2.6 1.8-3.3.3-2.1-5.2-3-10.8-2.6-16.4-7 9.3-11.8 20-14.3 31.2h22.6c3.9-6.3 8.7-12.1 14.2-17 .6-.5 1.6-.5 2.2 0 5.5 4.9 10.3 10.7 14.2 17h22.8c-2.5-11.2-7.3-21.9-14.1-31.1.4 5.6-.5 11.2-2.6 16.4-.7 1.5-2.9 1.3-3.3-.3-.7-2.7-1.6-5.3-2.6-7.8-.4-.9.1-1.9 1-2.3s1.9.1 2.3 1 .7 1.8 1 2.7c1.1-5 1-10.2 0-15.2-.4-1.7 1.7-2.8 3-1.6 9.7 10.8 16.2 24 19 38.2h6.5c.8.1 1.5.8 1.6 1.8zm-61-1.8h22.4c-3.2-4.8-7-9.3-11.2-13.3-4.2 4-8 8.5-11.2 13.3zm11.2 59c7.4-1.6 16.6-8 19.7-20.9h-39.4c3.1 12.9 12.3 19.3 19.7 20.9zm-11.4-1.6c-6.2-4.8-10.4-11.6-11.8-19.3h-11.7c5.7 12 15.6 17.1 23.5 19.3zm46.3-19.2h-11.7c-1.5 7.6-5.7 14.5-11.8 19.3 7.9-2.3 17.8-7.4 23.5-19.3zm-56.7-27.4c-.8-.5-1.9-.3-2.4.5l-3.8 5.9h-2.7v-4.9c0-1-.8-1.8-1.8-1.8s-1.8.8-1.8 1.8v13.4c0 1 .8 1.8 1.8 1.8s1.8-.8 1.8-1.8v-4.9h2.7l3.7 5.9c.4.7 1.5 1.1 2.4.5.8-.5 1.1-1.6.5-2.4l-3.6-5.7 3.6-5.7c.6-1 .4-2.1-.4-2.6zm14.4 3.3h3c1 0 1.8-.8 1.8-1.8s-.8-1.8-1.8-1.8h-3c-4.7 0-8.4 3.8-8.4 8.4 0 4.7 3.8 8.4 8.4 8.4h3c1 0 1.8-.8 1.8-1.8s-.8-1.8-1.8-1.8h-3c-2.7 0-4.9-2.2-4.9-4.9 0-2.5 2.2-4.7 4.9-4.7zm16.6-3.5c-3.6 0-6.6 2.9-6.6 6.6 0 .2 0 8.7 0 8.6 0 1 .8 1.8 1.8 1.8s1.8-.8 1.8-1.8v-3.9h6.2v3.9c0 1 .8 1.8 1.8 1.8s1.8-.8 1.8-1.8c0-.4 0-9.1 0-8.6-.2-3.7-3.1-6.6-6.8-6.6zm-3.1 7.6v-1.1c0-1.7 1.4-3.1 3.1-3.1s3.1 1.4 3.1 3.1v1.1zm26.4 5.7h-7.9v-11.6c0-1-.8-1.8-1.8-1.8s-1.8.8-1.8 1.8v13.4c0 1 .8 1.8 1.8 1.8h9.7c1 0 1.8-.8 1.8-1.8s-.9-1.8-1.8-1.8z" fill="url(#SVGID_1_)"></path></svg>