<!-- icon666.com - MILLIONS vector ICONS FREE --><svg version="1.1" id="Capa_1" xmlns="http://www.w3.org/2000/svg" xmlns:xlink="http://www.w3.org/1999/xlink" x="0px" y="0px" viewBox="0 0 480 480" style="enable-background:new 0 0 480 480;" xml:space="preserve"><linearGradient id="SVGID_1_" gradientUnits="userSpaceOnUse" x1="-56.875" y1="587.625" x2="2.986" y2="587.625" gradientTransform="matrix(8 0 0 -8 455 4941)"><stop offset="0" style="stop-color:#4e5a7b"></stop><stop offset="1" style="stop-color:#2e6b84"></stop></linearGradient><path style="fill:url(#SVGID_1_);" d="M64,480h352c4.418,0,8-3.582,8-8V8c0-4.418-3.582-8-8-8H64c-4.418,0-8,3.582-8,8v464 C56,476.418,59.582,480,64,480z M352,16v16h-32V16H352z M72,16h232v24c0,4.418,3.582,8,8,8h48c4.418,0,8-3.582,8-8V16h40v448H72V16z "></path><g><linearGradient id="SVGID_2_" gradientUnits="userSpaceOnUse" x1="-56.875" y1="602.625" x2="2.986" y2="602.625" gradientTransform="matrix(8 0 0 -8 455 4941)"><stop offset="0" style="stop-color:#4e5a7b"></stop><stop offset="1" style="stop-color:#2e6b84"></stop></linearGradient><path style="fill:url(#SVGID_2_);" d="M384,64H96c-4.418,0-8,3.582-8,8v96c0,4.418,3.582,8,8,8h288c4.418,0,8-3.582,8-8V72 C392,67.582,388.418,64,384,64z M376,160H104V80h272V160z"></path><linearGradient id="SVGID_3_" gradientUnits="userSpaceOnUse" x1="-56.875" y1="569.625" x2="2.986" y2="569.625" gradientTransform="matrix(8 0 0 -8 455 4941)"><stop offset="0" style="stop-color:#4e5a7b"></stop><stop offset="1" style="stop-color:#2e6b84"></stop></linearGradient><path style="fill:url(#SVGID_3_);" d="M384,320h-48c-4.418,0-8,3.582-8,8v112c0,4.418,3.582,8,8,8h48c4.418,0,8-3.582,8-8V328 C392,323.582,388.418,320,384,320z M376,432h-32v-96h32V432z"></path><linearGradient id="SVGID_4_" gradientUnits="userSpaceOnUse" x1="-56.875" y1="585.625" x2="2.986" y2="585.625" gradientTransform="matrix(8 0 0 -8 455 4941)"><stop offset="0" style="stop-color:#4e5a7b"></stop><stop offset="1" style="stop-color:#2e6b84"></stop></linearGradient><path style="fill:url(#SVGID_4_);" d="M144,224H96c-4.418,0-8,3.582-8,8v48c0,4.418,3.582,8,8,8h48c4.418,0,8-3.582,8-8v-48 C152,227.582,148.418,224,144,224z M136,272h-32v-32h32V272z"></path><linearGradient id="SVGID_5_" gradientUnits="userSpaceOnUse" x1="-56.875" y1="585.625" x2="2.986" y2="585.625" gradientTransform="matrix(8 0 0 -8 455 4941)"><stop offset="0" style="stop-color:#4e5a7b"></stop><stop offset="1" style="stop-color:#2e6b84"></stop></linearGradient><path style="fill:url(#SVGID_5_);" d="M224,224h-48c-4.418,0-8,3.582-8,8v48c0,4.418,3.582,8,8,8h48c4.418,0,8-3.582,8-8v-48 C232,227.582,228.418,224,224,224z M216,272h-32v-32h32V272z"></path><linearGradient id="SVGID_6_" gradientUnits="userSpaceOnUse" x1="-56.875" y1="585.625" x2="2.986" y2="585.625" gradientTransform="matrix(8 0 0 -8 455 4941)"><stop offset="0" style="stop-color:#4e5a7b"></stop><stop offset="1" style="stop-color:#2e6b84"></stop></linearGradient><path style="fill:url(#SVGID_6_);" d="M304,224h-48c-4.418,0-8,3.582-8,8v48c0,4.418,3.582,8,8,8h48c4.418,0,8-3.582,8-8v-48 C312,227.582,308.418,224,304,224z M296,272h-32v-32h32V272z"></path><linearGradient id="SVGID_7_" gradientUnits="userSpaceOnUse" x1="-56.875" y1="575.625" x2="2.986" y2="575.625" gradientTransform="matrix(8 0 0 -8 455 4941)"><stop offset="0" style="stop-color:#4e5a7b"></stop><stop offset="1" style="stop-color:#2e6b84"></stop></linearGradient><path style="fill:url(#SVGID_7_);" d="M144,304H96c-4.418,0-8,3.582-8,8v48c0,4.418,3.582,8,8,8h48c4.418,0,8-3.582,8-8v-48 C152,307.582,148.418,304,144,304z M136,352h-32v-32h32V352z"></path><linearGradient id="SVGID_8_" gradientUnits="userSpaceOnUse" x1="-56.875" y1="575.625" x2="2.986" y2="575.625" gradientTransform="matrix(8 0 0 -8 455 4941)"><stop offset="0" style="stop-color:#4e5a7b"></stop><stop offset="1" style="stop-color:#2e6b84"></stop></linearGradient><path style="fill:url(#SVGID_8_);" d="M224,304h-48c-4.418,0-8,3.582-8,8v48c0,4.418,3.582,8,8,8h48c4.418,0,8-3.582,8-8v-48 C232,307.582,228.418,304,224,304z M216,352h-32v-32h32V352z"></path><linearGradient id="SVGID_9_" gradientUnits="userSpaceOnUse" x1="-56.875" y1="575.625" x2="2.986" y2="575.625" gradientTransform="matrix(8 0 0 -8 455 4941)"><stop offset="0" style="stop-color:#4e5a7b"></stop><stop offset="1" style="stop-color:#2e6b84"></stop></linearGradient><path style="fill:url(#SVGID_9_);" d="M304,304h-48c-4.418,0-8,3.582-8,8v48c0,4.418,3.582,8,8,8h48c4.418,0,8-3.582,8-8v-48 C312,307.582,308.418,304,304,304z M296,352h-32v-32h32V352z"></path><linearGradient id="SVGID_10_" gradientUnits="userSpaceOnUse" x1="-56.875" y1="565.625" x2="2.986" y2="565.625" gradientTransform="matrix(8 0 0 -8 455 4941)"><stop offset="0" style="stop-color:#4e5a7b"></stop><stop offset="1" style="stop-color:#2e6b84"></stop></linearGradient><path style="fill:url(#SVGID_10_);" d="M144,384H96c-4.418,0-8,3.582-8,8v48c0,4.418,3.582,8,8,8h48c4.418,0,8-3.582,8-8v-48 C152,387.582,148.418,384,144,384z M136,432h-32v-32h32V432z"></path><linearGradient id="SVGID_11_" gradientUnits="userSpaceOnUse" x1="-56.875" y1="565.625" x2="2.986" y2="565.625" gradientTransform="matrix(8 0 0 -8 455 4941)"><stop offset="0" style="stop-color:#4e5a7b"></stop><stop offset="1" style="stop-color:#2e6b84"></stop></linearGradient><path style="fill:url(#SVGID_11_);" d="M224,384h-48c-4.418,0-8,3.582-8,8v48c0,4.418,3.582,8,8,8h48c4.418,0,8-3.582,8-8v-48 C232,387.582,228.418,384,224,384z M216,432h-32v-32h32V432z"></path><linearGradient id="SVGID_12_" gradientUnits="userSpaceOnUse" x1="-56.875" y1="565.625" x2="2.986" y2="565.625" gradientTransform="matrix(8 0 0 -8 455 4941)"><stop offset="0" style="stop-color:#4e5a7b"></stop><stop offset="1" style="stop-color:#2e6b84"></stop></linearGradient><path style="fill:url(#SVGID_12_);" d="M304,384h-48c-4.418,0-8,3.582-8,8v48c0,4.418,3.582,8,8,8h48c4.418,0,8-3.582,8-8v-48 C312,387.582,308.418,384,304,384z M296,432h-32v-32h32V432z"></path><linearGradient id="SVGID_13_" gradientUnits="userSpaceOnUse" x1="-56.875" y1="592.625" x2="2.986" y2="592.625" gradientTransform="matrix(8 0 0 -8 455 4941)"><stop offset="0" style="stop-color:#4e5a7b"></stop><stop offset="1" style="stop-color:#2e6b84"></stop></linearGradient><path style="fill:url(#SVGID_13_);" d="M144,192H96c-4.418,0-8,3.582-8,8s3.582,8,8,8h48c4.418,0,8-3.582,8-8S148.418,192,144,192z "></path><linearGradient id="SVGID_14_" gradientUnits="userSpaceOnUse" x1="-56.875" y1="592.625" x2="2.986" y2="592.625" gradientTransform="matrix(8 0 0 -8 455 4941)"><stop offset="0" style="stop-color:#4e5a7b"></stop><stop offset="1" style="stop-color:#2e6b84"></stop></linearGradient><path style="fill:url(#SVGID_14_);" d="M224,192h-48c-4.418,0-8,3.582-8,8s3.582,8,8,8h48c4.418,0,8-3.582,8-8S228.418,192,224,192 z"></path><linearGradient id="SVGID_15_" gradientUnits="userSpaceOnUse" x1="-56.875" y1="592.625" x2="2.986" y2="592.625" gradientTransform="matrix(8 0 0 -8 455 4941)"><stop offset="0" style="stop-color:#4e5a7b"></stop><stop offset="1" style="stop-color:#2e6b84"></stop></linearGradient><path style="fill:url(#SVGID_15_);" d="M304,192h-48c-4.418,0-8,3.582-8,8s3.582,8,8,8h48c4.418,0,8-3.582,8-8S308.418,192,304,192 z"></path><linearGradient id="SVGID_16_" gradientUnits="userSpaceOnUse" x1="-56.875" y1="590.625" x2="2.986" y2="590.625" gradientTransform="matrix(8 0 0 -8 455 4941)"><stop offset="0" style="stop-color:#4e5a7b"></stop><stop offset="1" style="stop-color:#2e6b84"></stop></linearGradient><path style="fill:url(#SVGID_16_);" d="M384,192h-48c-4.418,0-8,3.582-8,8v32c0,4.418,3.582,8,8,8h48c4.418,0,8-3.582,8-8v-32 C392,195.582,388.418,192,384,192z M376,224h-32v-16h32V224z"></path><linearGradient id="SVGID_17_" gradientUnits="userSpaceOnUse" x1="-56.875" y1="582.625" x2="2.986" y2="582.625" gradientTransform="matrix(8 0 0 -8 455 4941)"><stop offset="0" style="stop-color:#4e5a7b"></stop><stop offset="1" style="stop-color:#2e6b84"></stop></linearGradient><path style="fill:url(#SVGID_17_);" d="M384,256h-48c-4.418,0-8,3.582-8,8v32c0,4.418,3.582,8,8,8h48c4.418,0,8-3.582,8-8v-32 C392,259.582,388.418,256,384,256z M376,288h-32v-16h32V288z"></path><linearGradient id="SVGID_18_" gradientUnits="userSpaceOnUse" x1="-56.875" y1="602.625" x2="2.986" y2="602.625" gradientTransform="matrix(8 0 0 -8 455 4941)"><stop offset="0" style="stop-color:#4e5a7b"></stop><stop offset="1" style="stop-color:#2e6b84"></stop></linearGradient><path style="fill:url(#SVGID_18_);" d="M320,128h8v8c0,4.418,3.582,8,8,8s8-3.582,8-8v-8h8c4.418,0,8-3.582,8-8s-3.582-8-8-8h-8v-8 c0-4.418-3.582-8-8-8s-8,3.582-8,8v8h-8c-4.418,0-8,3.582-8,8S315.582,128,320,128z"></path><linearGradient id="SVGID_19_" gradientUnits="userSpaceOnUse" x1="-56.875" y1="612.625" x2="2.986" y2="612.625" gradientTransform="matrix(8 0 0 -8 455 4941)"><stop offset="0" style="stop-color:#4e5a7b"></stop><stop offset="1" style="stop-color:#2e6b84"></stop></linearGradient><path style="fill:url(#SVGID_19_);" d="M96,48h16c4.418,0,8-3.582,8-8s-3.582-8-8-8H96c-4.418,0-8,3.582-8,8S91.582,48,96,48z"></path></g></svg>