<!-- icon666.com - MILLIONS OF FREE VECTOR ICONS --><svg viewBox="0 0 480 480.00784" xmlns="http://www.w3.org/2000/svg" xmlns:xlink="http://www.w3.org/1999/xlink"><linearGradient id="a"><stop offset="0" stop-color="#bc4e9c"></stop><stop offset="1" stop-color="#f80759"></stop></linearGradient><linearGradient id="b" gradientUnits="userSpaceOnUse" x1="-15.996053" x2="485.203947" xlink:href="#a" y1="256" y2="256"></linearGradient><linearGradient id="c" gradientUnits="userSpaceOnUse" x1="-15.996053" x2="485.203947" xlink:href="#a" y1="356.456" y2="356.456"></linearGradient><linearGradient id="d" gradientUnits="userSpaceOnUse" x1="-15.996053" x2="485.203947" xlink:href="#a" y1="240" y2="240"></linearGradient><path d="m128.003906 208c-26.507812 0-48 21.492188-48 48s21.492188 48 48 48c26.507813 0 48-21.492188 48-48-.027344-26.5-21.5-47.972656-48-48zm0 79.800781c-2.617187-2.066406-8-13.023437-8-31.800781s5.382813-29.734375 8-31.800781c2.617188 2.066406 8 13.023437 8 31.800781s-5.382812 29.734375-8 31.800781zm-32-31.800781c.027344-9.136719 3.984375-17.824219 10.863282-23.839844-3.816407 15.664063-3.816407 32.015625 0 47.679688-6.878907-6.015625-10.835938-14.703125-10.863282-23.839844zm53.136719 23.839844c3.816406-15.664063 3.816406-32.015625 0-47.679688 6.898437 6 10.863281 14.695313 10.863281 23.839844s-3.964844 17.839844-10.863281 23.839844zm0 0" fill="url(#b)"></path><path d="m344.003906 208c-26.507812 0-48 21.492188-48 48s21.492188 48 48 48c26.507813 0 48-21.492188 48-48-.027344-26.5-21.5-47.972656-48-48zm0 79.800781c-2.617187-2.066406-8-13.023437-8-31.800781s5.382813-29.734375 8-31.800781c2.617188 2.066406 8 13.023437 8 31.800781s-5.382812 29.734375-8 31.800781zm-32-31.800781c.027344-9.136719 3.984375-17.824219 10.863282-23.839844-3.816407 15.664063-3.816407 32.015625 0 47.679688-6.878907-6.015625-10.835938-14.703125-10.863282-23.839844zm53.136719 23.839844c3.816406-15.664063 3.816406-32.015625 0-47.679688 6.898437 6 10.863281 14.695313 10.863281 23.839844s-3.964844 17.839844-10.863281 23.839844zm0 0" fill="url(#b)"></path><path d="m255.09375 372.039062c12.941406-6.921874 19.515625-21.757812 15.945312-35.996093-3.566406-14.238281-16.363281-24.21875-31.039062-24.21875s-27.472656 9.980469-31.039062 24.21875c-3.570313 14.238281 3.003906 29.074219 15.945312 35.996093-22.148438 17.242188-55.199219 12.136719-55.597656 12.066407l-2.625 15.78125c4.898437.722656 9.84375 1.0625 14.792968 1.023437 21.464844.828125 42.425782-6.644531 58.527344-20.863281 16.101563 14.21875 37.0625 21.691406 58.527344 20.863281 4.949219.039063 9.894531-.300781 14.792969-1.023437l-2.640625-15.773438c-.367188.054688-33.382813 5.277344-55.589844-12.074219zm-15.089844-44.039062c8.835938 0 16 7.164062 16 16s-7.164062 16-16 16c-8.835937 0-16-7.164062-16-16s7.164063-16 16-16zm0 0" fill="url(#c)"></path><path d="m476.445312 17.34375c-.082031-.054688-.167968-.070312-.25-.128906-5.46875-10.53125-16.324218-17.1601565-28.191406-17.214844-7.265625 0-16 4.910156-25.96875 14.59375-2.507812 2.453125-4.785156 5.128906-6.808594 8l-58.742187 83.007812c-5.859375-1.054687-11.800781-1.589843-17.753906-1.601562h-202.726563c-5.875.023438-11.738281.558594-17.519531 1.601562l-52.160156-80.402343c-2.648438-4.085938-5.695313-7.898438-9.097657-11.382813-6.097656-7.917968-15.226562-12.925781-25.183593-13.816406-11.878907.0390625-22.757813 6.671875-28.230469 17.214844-.082031.058594-.167969.074218-.25.128906l.097656.144531c-2.367187 4.488281-3.6210935 9.476563-3.65624975 14.550781v207.960938c-.01562505 30.550781 5.83984375 60.820312 17.24609375 89.160156l-8.191406-1.089844-2.109375 15.859376 17.976562 2.398437c5.675781 11.410156 12.246094 22.355469 19.652344 32.726563l-37.597656 5.015624 2.113281 15.859376 46.78125-6.242188c7.082031 8.488281 14.738281 16.480469 22.914062 23.921875l-50.136718 23.125 6.703125 14.53125 56.96875-26.289063c86.695312 68.042969 208.664062 68.042969 295.359375 0l56.96875 26.289063 6.703125-14.53125-50.105469-23.132813c8.175781-7.441406 15.832031-15.433593 22.914062-23.921874l46.785157 6.242187 2.109375-15.859375-37.597656-5.015625c7.40625-10.371094 13.980468-21.316406 19.65625-32.726563l17.976562-2.398437-2.113281-15.859375-8.191407 1.089844c11.394532-28.339844 17.238282-58.605469 17.214844-89.152344v-207.960938c-.035156-5.074218-1.289062-10.0625-3.65625-14.550781zm-164.441406 102.65625v40c0 4.417969-3.582031 8-8 8-4.417968 0-8-3.582031-8-8v-40zm-64 0v56c0 4.417969-3.582031 8-8 8-4.417968 0-8-3.582031-8-8v-56zm-64 0v40c0 4.417969-3.582031 8-8 8-4.417968 0-8-3.582031-8-8v-40zm280 120c.019532 31.589844-6.6875 62.820312-19.671875 91.617188l-93.382812 12.453124 2.109375 15.859376 82.585937-11.007813c-5.417969 9.675781-11.542969 18.941406-18.320312 27.71875l-64.265625-8.570313-2.109375 15.859376 54.199219 7.199218c-6.214844 6.761719-12.835938 13.140625-19.824219 19.09375l-37.96875-17.519531-6.703125 14.527344 30.550781 14.144531c-78.25 56.835938-184.195313 56.835938-262.445313 0l30.574219-14.109375-6.703125-14.53125-37.96875 17.523437c-6.980468-5.945312-13.59375-12.308593-19.800781-19.058593l54.199219-7.199219-2.109375-15.855469-64.265625 8.496094c-6.777344-8.777344-12.902344-18.042969-18.320313-27.71875l82.585938 11.007813 2.109375-15.859376-93.382813-12.453124c-12.984375-28.796876-19.691406-60.027344-19.671875-91.617188v-207.960938c0-.175781.046875-.335937.046875-.503906 15.351563 8 41.914063 57.367188 56.601563 91.617188l14.703125-6.304688c-6.191407-14.449218-36.574219-82.832031-62.910157-98.847656 2.324219-1.292969 4.9375-1.980469 7.597657-2 4.207031 0 7.785156 2.894531 13.738281 8.992188 2.660156 2.726562 5.042969 5.710937 7.109375 8.910156l58.167969 89.601562 5.449218-1.238281c6.394532-1.480469 12.933594-2.242187 19.496094-2.265625h16v40c0 13.253906 10.746094 24 24 24s24-10.746094 24-24v-40h16v56c0 13.253906 10.746094 24 24 24s24-10.746094 24-24v-56h16v40c0 13.253906 10.746094 24 24 24s24-10.746094 24-24v-40h10.726563c6.5625.027344 13.097656.789062 19.488281 2.273438l5.226562 1.191406 64.796876-91.625c1.453124-2.070313 3.089843-4 4.898437-5.769532 3.925781-4.664062 9.074219-8.152343 14.863281-10.070312 2.691406.015625 5.335938.722656 7.679688 2.046875-26.351563 16.199219-56.800782 85.601563-63.007813 100.304687l14.734375 6.234376c14.640625-34.714844 41.179688-84.707032 56.59375-92.984376 0 .152344.039063.285157.039063.4375zm0 0" fill="url(#d)"></path></svg>