<!-- icon666.com - MILLIONS OF FREE VECTOR ICONS --><svg id="Layer_5" enable-background="new 0 0 64 64" viewBox="0 0 64 64" xmlns="http://www.w3.org/2000/svg"><g><g><g><path d="m32 42c-1.654 0-3-1.346-3-3s1.346-3 3-3 3 1.346 3 3-1.346 3-3 3z" fill="#f0bc5e"></path></g></g><g><path d="m47 19v-2c0-1.654-1.346-3-3-3h-8c-1.654 0-3 1.346-3 3v2z" fill="#f0bc5e"></path></g><g><path d="m31 19v-2c0-1.654-1.346-3-3-3h-8c-1.654 0-3 1.346-3 3v2z" fill="#f0bc5e"></path></g><path d="m48.303 46 6-4h8.697v-20h-8.697l-6-4h-32.606l-6 4h-8.697v20h8.697l6 4h7.303v2h-8.697l-5.748-3.832-1.109 1.664 6.251 4.168h9.303 3 3v-4h6v4h3 3 9.303l6.252-4.168-1.109-1.664-5.749 3.832h-8.697v-2zm-31.303-26h4v24h-4zm6 0h4v12h-2v12h-2zm24 24h-4v-24h4zm-6 0h-2v-12h-2v-12h4zm-6-12h-6v-12h6zm-8 2h10v10h-10zm34 6h-6v-16h6zm-8 .465-4 2.667v-22.264l4 2.667zm-50-16.465h6v16h-6zm8-.465 4-2.667v22.263l-4-2.667zm16 24.465h-1-1v-2h2zm12 0h-1-1v-2h2z"></path></g></svg>