<!-- icon666.com - MILLIONS vector ICONS FREE --><svg clip-rule="evenodd" fill-rule="evenodd" image-rendering="optimizeQuality" shape-rendering="geometricPrecision" text-rendering="geometricPrecision" viewBox="0 0 7111 7111" xmlns="http://www.w3.org/2000/svg" xmlns:xlink="http://www.w3.org/1999/xlink"><linearGradient id="id0" gradientUnits="userSpaceOnUse" x1="3555.56" x2="3555.56" y1="817.441" y2="6293.68"><stop offset="0" stop-color="#66c"></stop><stop offset=".509804" stop-color="#f0f"></stop><stop offset="1" stop-color="#f60"></stop></linearGradient><g id="Layer_x0020_1"><path d="m5086 4423c-30-202-36-509 51-698 111-238 317-402 567-449 59-11 118 23 137 81 12 36 22 72 31 108 171-327 283-684 327-1056-134-74-246-173-328-290-151-215-189-475-105-715 19-57 79-91 138-79 84 17 165 43 241 76-24-105-53-210-89-313-21-63 13-132 76-153l323-111c64-22 132 12 154 75 128 376 194 768 194 1166 0 224-21 447-62 666 67-18 138-30 210-38 58-7 112 29 129 84 77 250 10 511-183 716-136 144-322 251-543 312-23 44-48 87-74 129-332 547-803 995-1364 1300-154 608-705 1060-1360 1060-656 0-1207-452-1361-1060-561-305-1032-753-1364-1300-26-42-50-85-74-129-221-61-407-168-543-312-193-205-260-466-183-716 17-55 72-91 129-84 73 8 143 20 211 38-42-219-62-442-62-666 0-398 65-790 193-1166 10-30 32-55 61-69s62-16 93-6l323 111c31 10 56 32 70 61 14 28 16 62 6 92-36 103-65 208-89 313 76-33 157-59 241-76 59-12 119 22 139 79 83 240 45 500-106 715-82 117-194 216-327 291 43 371 155 728 326 1055 9-36 19-72 31-108 19-58 78-92 138-81 249 47 456 211 566 449 87 189 81 496 51 698 55 44 112 86 170 126 153-609 705-1061 1361-1061 655 0 1207 452 1360 1061 58-40 115-82 170-126zm-128 508c513-315 923-754 1200-1268 5-12 11-24 19-34 121-231 215-477 280-732 1-9 3-17 6-26 64-260 98-530 98-806 0-331-49-657-144-972l-95 32c92 305 139 621 139 940 0 93-5 186-13 279 0 4 0 8-1 12-41 460-180 909-408 1312-50 90-105 178-164 262-3 4-5 7-8 11-161 229-352 437-566 618-4 4-9 8-14 11-105 88-215 169-331 243 2 26 2 52 2 78zm-248-166c-1-1-1-2-1-4-65-579-557-1031-1153-1031-641 0-1161 521-1161 1161s520 1161 1161 1161c640 0 1160-521 1160-1161 0-42-2-84-6-126zm-2557 166c0-14 0-27 0-40 0-26 1-52 2-78-116-74-226-155-332-243-4-3-8-7-13-11-214-180-404-388-566-618-3-4-5-7-8-11-59-85-114-172-164-262-228-403-367-852-408-1312-1-4-1-8-1-12-8-93-12-186-12-279 0-319 46-635 138-940l-95-32c-95 315-144 641-144 972 0 276 34 546 98 806 3 9 5 17 6 26 65 255 159 501 280 731 8 11 14 23 19 35 277 514 687 953 1200 1268zm1403 939c-540 0-980-439-980-979s440-979 980-979c539 0 979 439 979 979s-440 979-979 979zm0-1716c-407 0-738 330-738 737 0 406 331 737 738 737 406 0 737-331 737-737 0-407-331-737-737-737zm-2663-2021c59-44 109-96 149-153 84-120 119-254 101-388-84 28-161 66-229 114-14 119-22 238-22 359 0 23 1 46 1 68zm-293 1352c-67-157-123-318-167-482-60-22-124-40-190-53-10 133 41 264 147 377 58 61 129 114 210 158zm855 331c103 145 219 281 346 407 7-153-7-310-47-396-61-133-160-230-285-282-18 92-24 184-14 271zm4763-1683c0-22 1-45 1-68 0-121-7-240-22-359-68-48-145-86-229-114-18 134 17 268 101 388 40 57 90 109 149 153zm-562 1683c10-87 5-179-14-270-125 51-224 148-285 281-40 86-54 243-47 396 127-126 243-262 346-407zm1022-813c-44 164-100 325-167 482 82-44 152-97 210-158 107-113 157-244 147-377-66 13-129 31-190 53z" fill="url(#id0)"></path></g></svg>