<!-- icon666.com - MILLIONS vector ICONS FREE --><svg clip-rule="evenodd" fill-rule="evenodd" image-rendering="optimizeQuality" shape-rendering="geometricPrecision" text-rendering="geometricPrecision" viewBox="0 0 512 512" xmlns="http://www.w3.org/2000/svg" xmlns:xlink="http://www.w3.org/1999/xlink" xmlns:xodm="http://www.corel.com/coreldraw/odm/2003"><linearGradient id="id0" gradientUnits="userSpaceOnUse" x1="255.83" x2="255.83" y1=".14" y2="512"><stop offset="0" stop-color="#5cc6d0"></stop><stop offset=".490196" stop-color="#a53692"></stop><stop offset="1" stop-color="#f06277"></stop></linearGradient><g id="Layer_x0020_1"><path d="m253.17 511.98c-188.23-2.01-305.23-195.72-230.57-362.78.42-.93 1.02-1.76 1.76-2.43 12.4-26.24 29.35-50.44 50.44-71.57 99.72-100.03 262.25-100.05 362.1-.2 99.82 99.82 100.08 262.33-.1 362.2-21.14 21.1-45.34 38.05-71.59 50.45-.68.78-1.54 1.41-2.51 1.85-34.91 15.46-72.05 22.91-109.53 22.48zm-100.26-349.27-72.75-72.75c-16.88 17.86-31.08 38.28-41.94 60.61 64.46 56.44 65.23 155.34.03 210.91 10.85 22.31 25.04 42.72 41.9 60.57l72.76-72.76c-47.7-52.43-47.7-134.15 0-186.58zm-62.85-82.65 72.77 72.77c52.58-47.46 133.83-47.7 186.35-.01l72.76-72.76c-17.69-16.7-37.9-30.77-59.98-41.58-57.23 64.14-155.7 64.83-212.01.05-22.05 10.79-42.22 24.85-59.89 41.53zm79.26 85.99c-82.9 82.9-21.46 214.95 86.68 214.95 109.67 0 168.81-134.32 86.68-214.95-47.31-46.46-124.69-46.93-173.36 0zm-6.5 193.13-72.76 72.76c17.8 16.81 38.15 30.95 60.39 41.78 55.57-65.16 154.48-64.43 210.86.12 22.33-10.85 42.76-25.03 60.63-41.9l-72.76-72.76c-52.39 47.58-133.97 47.58-186.36 0zm196.27-9.89 72.76 72.76c16.72-17.7 30.8-37.91 41.62-59.99-64.86-56.22-64.02-154.86.05-212.02-10.83-22.13-24.93-42.36-41.67-60.08l-72.77 72.76c47.62 52.51 47.77 134.07.01 186.57zm-326.86-1.18c54.54-49.57 53.91-133.71-.06-184.07-24 58.15-23.98 125.93.06 184.07zm315.73 131.72c-50.43-54.05-134.39-54.51-184.06-.07 58.43 24.15 125.58 24.2 184.06.07zm131.54-316.23c-53.4 51.13-54.21 134.63-.1 184.9 24.65-58.53 24.85-126.33.1-184.9zm-316-131c50.27 54.11 133.77 53.3 184.9-.1-58.06-24.54-126.78-24.67-184.9.1z" fill="url(#id0)"></path></g></svg>