<!-- icon666.com - MILLIONS vector ICONS FREE --><svg viewBox="0 0 480 480" xmlns="http://www.w3.org/2000/svg" xmlns:xlink="http://www.w3.org/1999/xlink"><linearGradient id="a"><stop offset="0" stop-color="#88939f"></stop><stop offset="1" stop-color="#839697"></stop></linearGradient><linearGradient id="b" gradientUnits="userSpaceOnUse" x1="240" x2="240" xlink:href="#a" y1="502.64" y2="-51.712"></linearGradient><linearGradient id="c" gradientUnits="userSpaceOnUse" x1="160" x2="160" xlink:href="#a" y1="502.64" y2="-51.712"></linearGradient><linearGradient id="d" gradientUnits="userSpaceOnUse" x1="156" x2="156" xlink:href="#a" y1="502.64" y2="-51.712"></linearGradient><linearGradient id="e" gradientUnits="userSpaceOnUse" x1="136" x2="136" xlink:href="#a" y1="502.64" y2="-51.712"></linearGradient><linearGradient id="f" gradientUnits="userSpaceOnUse" x1="96" x2="96" xlink:href="#a" y1="502.64" y2="-51.712"></linearGradient><linearGradient id="g" gradientUnits="userSpaceOnUse" x1="424" x2="424" xlink:href="#a" y1="502.64" y2="-51.712"></linearGradient><linearGradient id="h" gradientUnits="userSpaceOnUse" x1="264" x2="264" xlink:href="#a" y1="502.64" y2="-51.712"></linearGradient><path d="m479.902344 87.535156c-.042969-.789062-.207032-1.5625-.488282-2.304687-.082031-.25-.183593-.5-.292968-.742188-.421875-.902343-1.011719-1.71875-1.738282-2.398437l-88-80c-.671874-.59375-1.441406-1.066406-2.269531-1.402344-.257812-.113281-.511719-.160156-.800781-.246094-.601562-.1875-1.222656-.304687-1.847656-.3437498-.144532-.0195312-.296875-.0976562-.464844-.0976562h-184c-22.082031.0273438-39.972656 17.917969-40 40v8h-120c-22.082031.027344-39.9726562 17.917969-40 40v352c.0273438 22.082031 17.917969 39.972656 40 40h240c22.082031-.027344 39.972656-17.917969 40-40v-8h120c22.082031-.027344 39.972656-17.917969 40-40v-304c0-.160156-.089844-.304688-.097656-.464844zm-28.597656-7.535156h-51.304688c-4.417969 0-8-3.582031-8-8v-45.910156zm-147.304688 360c0 13.253906-10.746094 24-24 24h-240c-13.253906 0-24-10.746094-24-24v-352c0-13.253906 10.746094-24 24-24h176v56c0 13.253906 10.746094 24 24 24h64zm16-232h96v80h-96zm-28.695312-80h-51.304688c-4.417969 0-8-3.582031-8-8v-45.910156zm148.695312 288h-120v-32h56c4.417969 0 8-3.582031 8-8s-3.582031-8-8-8h-56v-16h96c4.417969 0 8-3.582031 8-8s-3.582031-8-8-8h-96v-32h104c4.417969 0 8-3.582031 8-8v-96c0-4.417969-3.582031-8-8-8h-104v-16h104c4.417969 0 8-3.582031 8-8s-3.582031-8-8-8h-104v-16h104c4.417969 0 8-3.582031 8-8s-3.582031-8-8-8h-108.902344l-85.714844-77.921875c-.632812-.566406-1.351562-1.023437-2.136718-1.359375-.175782-.078125-.375-.109375-.558594-.175781-.730469-.265625-1.496094-.421875-2.273438-.464844-.140624 0-.269531-.078125-.414062-.078125h-48v-8c0-13.253906 10.746094-24 24-24h176v56c0 13.253906 10.746094 24 24 24h64v296c0 13.253906-10.746094 24-24 24zm0 0" fill="url(#b)"></path><path d="m56 224h208c4.417969 0 8-3.582031 8-8s-3.582031-8-8-8h-208c-4.417969 0-8 3.582031-8 8s3.582031 8 8 8zm0 0" fill="url(#c)"></path><path d="m56 192h208c4.417969 0 8-3.582031 8-8s-3.582031-8-8-8h-208c-4.417969 0-8 3.582031-8 8s3.582031 8 8 8zm0 0" fill="url(#c)"></path><path d="m56 400h200c4.417969 0 8-3.582031 8-8s-3.582031-8-8-8h-200c-4.417969 0-8 3.582031-8 8s3.582031 8 8 8zm0 0" fill="url(#d)"></path><path d="m216 416h-160c-4.417969 0-8 3.582031-8 8s3.582031 8 8 8h160c4.417969 0 8-3.582031 8-8s-3.582031-8-8-8zm0 0" fill="url(#e)"></path><path d="m56 352h208c4.417969 0 8-3.582031 8-8v-96c0-4.417969-3.582031-8-8-8h-208c-4.417969 0-8 3.582031-8 8v96c0 4.417969 3.582031 8 8 8zm8-96h192v80h-192zm0 0" fill="url(#c)"></path><path d="m56 160h80c4.417969 0 8-3.582031 8-8v-48c0-4.417969-3.582031-8-8-8h-80c-4.417969 0-8 3.582031-8 8v48c0 4.417969 3.582031 8 8 8zm8-48h64v32h-64zm0 0" fill="url(#f)"></path><path d="m440 352c-4.417969 0-8 3.582031-8 8v16c0 4.417969-3.582031 8-8 8h-16c-4.417969 0-8 3.582031-8 8s3.582031 8 8 8h16c13.253906 0 24-10.746094 24-24v-16c0-4.417969-3.582031-8-8-8zm0 0" fill="url(#g)"></path><path d="m280 400c-4.417969 0-8 3.582031-8 8v16c0 4.417969-3.582031 8-8 8h-16c-4.417969 0-8 3.582031-8 8s3.582031 8 8 8h16c13.253906 0 24-10.746094 24-24v-16c0-4.417969-3.582031-8-8-8zm0 0" fill="url(#h)"></path></svg>