<!-- icon666.com - MILLIONS vector ICONS FREE --><svg version="1.1" id="Capa_1" xmlns="http://www.w3.org/2000/svg" xmlns:xlink="http://www.w3.org/1999/xlink" x="0px" y="0px" viewBox="0 0 512 512" style="enable-background:new 0 0 512 512;" xml:space="preserve"><linearGradient id="SVGID_1_" gradientUnits="userSpaceOnUse" x1="-43.5568" y1="643.3378" x2="-25.8497" y2="625.6307" gradientTransform="matrix(21.3333 0 0 -21.3333 996.3334 13791.667)"><stop offset="0" style="stop-color:#369CDC"></stop><stop offset="1" style="stop-color:#AA56D0"></stop></linearGradient><path style="fill:url(#SVGID_1_);" d="M505.408,0.811C504.107,0.277,502.72,0,501.333,0H138.667c-1.387,0-2.773,0.277-4.075,0.811 c-1.301,0.555-2.496,1.344-3.477,2.325L3.136,131.115c-0.981,0.981-1.771,2.176-2.325,3.477C0.277,135.893,0,137.28,0,138.667 v362.667c0,1.387,0.277,2.773,0.811,4.075c1.088,2.603,3.157,4.693,5.781,5.781C7.893,511.723,9.28,512,10.667,512h362.667 c1.387,0,2.773-0.277,4.075-0.811c1.323-0.533,2.496-1.323,3.477-2.325l127.979-127.979c0.981-0.981,1.771-2.176,2.325-3.477 c0.533-1.301,0.811-2.688,0.811-4.075V10.667c0-1.387-0.277-2.773-0.832-4.075C510.101,3.989,508.011,1.899,505.408,0.811z M149.333,149.333h213.333v213.333H149.333V149.333z M368.917,128H149.333V21.333h326.251L368.917,128z M128,128H36.416L128,36.416 V128z M21.333,149.333H128v219.584L21.333,475.584V149.333z M143.083,384h219.584v106.667H36.416L143.083,384z M384,384h91.584 L384,475.584V384z M490.667,362.667H384V143.083L490.667,36.416V362.667z"></path></svg>