<!-- icon666.com - MILLIONS vector ICONS FREE --><svg xmlns="http://www.w3.org/2000/svg" xmlns:xlink="http://www.w3.org/1999/xlink" viewBox="0 0 512 512"><defs><linearGradient id="linear-gradient" x1="-13.846" y1="461.846" x2="514.108" y2="-66.108" gradientUnits="userSpaceOnUse"><stop offset="0" stop-color="#003f8a"></stop><stop offset="0.518" stop-color="#00d7df"></stop><stop offset="1" stop-color="#006df0"></stop></linearGradient><linearGradient id="linear-gradient-2" x1="0.154" y1="475.846" x2="528.108" y2="-52.108" xlink:href="#linear-gradient"></linearGradient><linearGradient id="linear-gradient-3" x1="118.154" y1="593.846" x2="646.108" y2="65.893" xlink:href="#linear-gradient"></linearGradient></defs><g id="Cylinder"><path d="M191.041,318.146C208.516,324.5,231.586,328,256,328s47.484-3.5,64.959-9.854C346.614,308.816,352,296.6,352,288V96c0-8.6-5.386-20.816-31.041-30.146C303.484,59.5,280.414,56,256,56s-47.484,3.5-64.959,9.854C165.386,75.184,160,87.4,160,96V288C160,296.6,165.386,308.816,191.041,318.146ZM304,192a8,8,0,0,0-8,8v51.361A230.7,230.7,0,0,0,256,248c-24.414,0-47.484,3.5-64.959,9.854A83.08,83.08,0,0,0,176,264.906V119.094a83.08,83.08,0,0,0,15.041,7.052C208.516,132.5,231.586,136,256,136s47.484-3.5,64.959-9.854A83.08,83.08,0,0,0,336,119.094V264.906a83.08,83.08,0,0,0-15.041-7.052c-2.84-1.033-5.842-1.982-8.959-2.861V200A8,8,0,0,0,304,192Zm11.491,111.109C299.725,308.842,278.6,312,256,312s-43.725-3.158-59.491-8.891C182.342,297.958,176,291.809,176,288s6.342-9.958,20.509-15.109C212.275,267.158,233.4,264,256,264a211.365,211.365,0,0,1,40,3.62V288a8,8,0,0,0,16,0V271.7c1.188.385,2.357.78,3.491,1.193C329.658,278.042,336,284.191,336,288S329.658,297.958,315.491,303.109ZM196.509,80.891C212.275,75.158,233.4,72,256,72s43.725,3.158,59.491,8.891C329.658,86.042,336,92.191,336,96s-6.342,9.958-20.509,15.109C299.725,116.842,278.6,120,256,120s-43.725-3.158-59.491-8.891C182.342,105.958,176,99.809,176,96S182.342,86.042,196.509,80.891Z" style="fill:url(#linear-gradient)"></path><path d="M312,168a8,8,0,0,0-16,0v8a8,8,0,0,0,16,0Z" style="fill:url(#linear-gradient-2)"></path><path d="M503.979,440.011a7.984,7.984,0,0,0-2.573-5.908l-96-88A8,8,0,0,0,400,344H112a8,8,0,0,0-5.406,2.1l-96,88a7.98,7.98,0,0,0-2.572,5.908L8,440v32a8,8,0,0,0,8,8H496a8,8,0,0,0,8-8V440ZM440.5,399.975,475.434,432H264V400H440C440.168,400,440.332,399.985,440.5,399.975ZM396.888,360l26.182,24H264V360Zm-281.776,0H248v24H88.93ZM71.5,399.975c.165.01.329.025.5.025H248v32H36.566ZM488,464H24V448H488Z" style="fill:url(#linear-gradient-3)"></path></g></svg>