<!-- icon666.com - MILLIONS vector ICONS FREE --><svg id="Layer_1" viewBox="0 0 512 512" xmlns="http://www.w3.org/2000/svg" xmlns:xlink="http://www.w3.org/1999/xlink" data-name="Layer 1"><linearGradient id="GradientFill_1" gradientUnits="userSpaceOnUse" x1="256" x2="256" y1="488.876" y2="23.124"><stop offset="0" stop-color="#6c54a3"></stop><stop offset="1" stop-color="#00b1d2"></stop></linearGradient><path d="m33 78.709h31.066v13a26.6 26.6 0 1 0 53.2 0v-13h29.471v13a26.6 26.6 0 1 0 53.2 0v-13h29.472v13a26.6 26.6 0 1 0 53.2 0v-13h29.457v13a26.6 26.6 0 1 0 53.206 0v-13h29.464v13a26.6 26.6 0 1 0 53.205 0v-13h31.071a17.034 17.034 0 0 1 17 17v59.871h-480v-59.867a17.025 17.025 0 0 1 17-17zm47.063-29.009v42.01a10.6 10.6 0 1 0 21.2 0v-42.01a10.6 10.6 0 0 0 -21.2 0zm82.669 0v42.01a10.6 10.6 0 1 0 21.2 0v-42.01a10.6 10.6 0 0 0 -21.2 0zm82.669 0v42.01a10.6 10.6 0 1 0 21.2 0v-42.01a10.6 10.6 0 0 0 -21.2 0zm82.662 0v42.01a10.6 10.6 0 1 0 21.2 0v-42.01a10.6 10.6 0 0 0 -21.2 0zm82.669 0v42.01a10.6 10.6 0 1 0 21.2 0v-42.01a10.6 10.6 0 0 0 -21.2 0zm68.273 423.17h-446.005a17.025 17.025 0 0 1 -17-17v-284.282h480v284.28a17.034 17.034 0 0 1 -17 17zm-446 16h446a33.073 33.073 0 0 0 32.995-33.002v-360.155a33.074 33.074 0 0 0 -32.993-33.008h-31.073v-13a26.6 26.6 0 0 0 -53.205 0v13h-29.464v-13a26.6 26.6 0 0 0 -53.206 0v13h-29.459v-13a26.6 26.6 0 0 0 -53.2 0v13h-29.467v-13a26.6 26.6 0 0 0 -53.2 0v13h-29.469v-13a26.6 26.6 0 0 0 -53.2 0v13h-31.064a33.075 33.075 0 0 0 -33 33.008v360.155a33.075 33.075 0 0 0 33 33.007zm349.795-66.01h63.2v-56.442h-63.2zm-316.8-56.442v56.442h63.2v-56.442zm63.2-144.818h-63.2v56.442h63.2zm316.8 56.442v-56.442h-63.2v56.442zm-63.2 16v56.371h63.2v-56.369zm-79.2 56.371h63.2v-56.369h-63.2v56.371zm0 16v56.447h63.2v-56.442zm-79.2 0v56.447h63.2v-56.442zm-16 0h-63.193v56.447h63.193v-56.442zm0-88.377v-56.436h-63.193v56.442zm79.2 16h-63.2v56.371h63.2v-56.363zm16-72.445v56.442h63.2v-56.433zm-16 56.442v-56.433h-63.2v56.442zm-142.4 16v56.371h63.2v-56.36zm-79.2 0v56.371h63.2v-56.36zm388-88.433h-396a7.991 7.991 0 0 0 -7.995 8v217.262a7.992 7.992 0 0 0 7.995 8h396a7.994 7.994 0 0 0 8-8v-217.262a7.993 7.993 0 0 0 -8-8z" fill="url(#GradientFill_1)" fill-rule="evenodd"></path></svg>