<!-- icon666.com - MILLIONS vector ICONS FREE --><svg id="Capa_1" enable-background="new 0 0 512 512" viewBox="0 0 512 512" xmlns="http://www.w3.org/2000/svg" xmlns:xlink="http://www.w3.org/1999/xlink"><linearGradient id="SVGID_1_" gradientUnits="userSpaceOnUse" x1="74.98" x2="437.018" y1="437.018" y2="74.98"><stop offset="0" stop-color="#ff2f2b"></stop><stop offset="1" stop-color="#ff9ceb"></stop></linearGradient><radialGradient id="SVGID_2_" cx="149.52" cy="259.041" gradientUnits="userSpaceOnUse" r="368.149"><stop offset="0" stop-color="#ff2f2b" stop-opacity=".6"></stop><stop offset=".1151" stop-color="#ff4653" stop-opacity=".531"></stop><stop offset=".267" stop-color="#ff6081" stop-opacity=".44"></stop><stop offset=".4196" stop-color="#ff75a7" stop-opacity=".348"></stop><stop offset=".5702" stop-color="#ff86c5" stop-opacity=".258"></stop><stop offset=".7183" stop-color="#ff92da" stop-opacity=".169"></stop><stop offset=".863" stop-color="#ff9ae7" stop-opacity=".082"></stop><stop offset="1" stop-color="#ff9ceb" stop-opacity="0"></stop></radialGradient><linearGradient id="SVGID_3_" gradientUnits="userSpaceOnUse" x1="126.215" x2="562.939" y1="542.602" y2="105.878"><stop offset="0" stop-color="#ffb5d6"></stop><stop offset=".4183" stop-color="#ffdbeb"></stop><stop offset=".7836" stop-color="#fff5fa"></stop><stop offset="1" stop-color="#fff"></stop></linearGradient><linearGradient id="lg1"><stop offset="0" stop-color="#ff79b1"></stop><stop offset="1" stop-color="#ffe3f3"></stop></linearGradient><linearGradient id="SVGID_4_" gradientUnits="userSpaceOnUse" x1="-186.722" x2="361.8" xlink:href="#lg1" y1="623.524" y2="75.002"></linearGradient><linearGradient id="SVGID_5_" gradientTransform="matrix(.5 -.866 .866 .5 -91.472 293.566)" gradientUnits="userSpaceOnUse" x1="-74.983" x2="796.874" xlink:href="#lg1" y1="12.034" y2="245.648"></linearGradient><linearGradient id="SVGID_6_" gradientTransform="matrix(.5 -.866 .866 .5 -91.472 293.566)" gradientUnits="userSpaceOnUse" x1="-223.663" x2="642.816" xlink:href="#lg1" y1="60.829" y2="293.001"></linearGradient><linearGradient id="SVGID_7_" gradientUnits="userSpaceOnUse" x1="53.496" x2="614.406" xlink:href="#lg1" y1="341.103" y2="-219.808"></linearGradient><linearGradient id="SVGID_8_" gradientUnits="userSpaceOnUse" x1="-7.197" x2="551.708" xlink:href="#lg1" y1="402.543" y2="-156.362"></linearGradient><linearGradient id="SVGID_9_" gradientUnits="userSpaceOnUse" x1="-54.229" x2="923.174" xlink:href="#lg1" y1="609.407" y2="-367.996"></linearGradient><linearGradient id="SVGID_10_" gradientUnits="userSpaceOnUse" x1="-36.821" x2="510.988" xlink:href="#lg1" y1="581.771" y2="33.962"></linearGradient><linearGradient id="SVGID_11_" gradientUnits="userSpaceOnUse" x1="108.535" x2="458.134" xlink:href="#lg1" y1="595.259" y2="245.659"></linearGradient><linearGradient id="SVGID_12_" gradientTransform="matrix(-.5 .866 -.866 -.5 508.472 158.434)" gradientUnits="userSpaceOnUse" x1="803.654" x2="81.592" xlink:href="#lg1" y1="250.368" y2="56.892"></linearGradient><g><circle cx="256" cy="256" fill="url(#SVGID_1_)" r="256"></circle><circle cx="256" cy="256" fill="url(#SVGID_2_)" r="256"></circle><path d="m439.735 168.559c-46.815 26.21-94.413 53.544-142.101 81.053-4.919 2.837-4.919 9.94 0 12.777 47.688 27.509 95.286 54.843 142.101 81.053 3.574 2.001 8.231.572 10.26-3.116 14.004-25.459 22.101-54.046 22.094-84.326.008-30.279-8.089-58.867-22.094-84.326-2.029-3.686-6.685-5.118-10.26-3.115z" fill="url(#SVGID_3_)"></path><path d="m396.183 157.609c-33.876-51.717-91.125-87.434-155.184-87.079-19.392 31.006-39.217 62.086-59.115 93.058 19.231 30.636 38.868 61.5 58.553 92.412 51.385-29.658 102.813-59.435 153.419-88.144 3.596-2.04 4.64-6.692 2.327-10.247z" fill="url(#SVGID_4_)"></path><path d="m80.887 164.992.651 1.281c1.95-1.343 2.838-3.78 2.458-6.252-1.057 1.639-2.098 3.292-3.109 4.971z" fill="url(#SVGID_5_)"></path><path d="m240.437 256c0-61.832.187-123.664.562-185.496-60.485.299-120.694 33.562-157.004 89.516-.856 2.069-1.677 4.153-2.458 6.252 15.848 31.152 32.304 62.678 49.039 94.44 36.62-1.544 73.241-3.126 109.861-4.712z" fill="url(#SVGID_6_)"></path><path d="m81.825 165.516c-.32-.178-.639-.357-.959-.536-33.389 55.143-35.825 123.014.021 182.028 36.436 2.256 72.849 4.339 109.239 6.217-36.702-63.344-73.728-126.334-108.301-187.709z" fill="url(#SVGID_7_)"></path><path d="m81.825 165.516c-7.172 19.006-11.229 39.286-11.409 60.378-.365 39.72 13.141 76.503 35.711 106.952 28.054 6.825 56.061 13.644 83.999 20.379 16.49-32.271 33.375-64.727 50.311-97.225-53.237-30.728-106.429-61.329-158.612-90.484z" fill="url(#SVGID_8_)"></path><path d="m106.132 332.842c-8.446 4.76-16.869 9.488-25.267 14.178 33.481 54.92 93.427 94.122 160.134 94.45 19.017-30.817 38.561-61.802 58.271-92.775-64.261-4.697-128.651-10.086-193.138-15.853z" fill="url(#SVGID_9_)"></path><path d="m240.437 256c-44.995 25.97-89.957 51.849-134.305 76.842 31.609 42.453 80.21 72.486 134.692 77.259 19.25-20.377 38.786-40.885 58.447-61.406-19.418-30.824-39.149-61.783-58.834-92.695z" fill="url(#SVGID_10_)"></path><path d="m395.556 345.499c-52.023 21.737-103.75 43.557-154.731 64.592.053 10.468.111 20.937.174 31.405 59.929.318 119.106-31.822 155.165-87.103 1.887-2.91 1.543-6.546-.608-8.894z" fill="url(#SVGID_11_)"></path><path d="m395.556 345.499c-.483-.525-1.05-.988-1.71-1.361-50.603-28.707-102.028-58.482-153.409-88.138 0 51.364.129 102.727.387 154.091 4.989.435 10.027.674 15.118.68 55.095.103 105.007-25.784 139.614-65.272z" fill="url(#SVGID_12_)"></path></g></svg>