<!-- icon666.com - MILLIONS vector ICONS FREE --><svg id="Layer_1" enable-background="new 0 0 512 512" viewBox="0 0 512 512" xmlns="http://www.w3.org/2000/svg" xmlns:xlink="http://www.w3.org/1999/xlink"><linearGradient id="SVGID_1_" gradientUnits="userSpaceOnUse" x1="40.636" x2="471.364" y1="454.322" y2="23.593"><stop offset="0" stop-color="#fcc60e"></stop><stop offset="1" stop-color="#e92e29"></stop></linearGradient><path d="m230.464 61.456c0 4.418-3.582 8-8 8h-92.306c-4.418 0-8-3.582-8-8s3.582-8 8-8h92.306c4.418 0 8 3.582 8 8zm-8 43.467h-92.306c-4.418 0-8 3.582-8 8s3.582 8 8 8h92.306c4.418 0 8-3.582 8-8s-3.582-8-8-8zm0 51.467h-92.306c-4.418 0-8 3.582-8 8s3.582 8 8 8h92.306c4.418 0 8-3.582 8-8s-3.582-8-8-8zm67.07-86.934h92.306c4.418 0 8-3.582 8-8s-3.582-8-8-8h-92.306c-4.418 0-8 3.582-8 8s3.581 8 8 8zm0 51.467h92.306c4.418 0 8-3.582 8-8s-3.582-8-8-8h-92.306c-4.418 0-8 3.582-8 8s3.581 8 8 8zm0 51.467h92.306c4.418 0 8-3.582 8-8s-3.582-8-8-8h-92.306c-4.418 0-8 3.582-8 8s3.581 8 8 8zm222.467-104.846v322.899c0 4.418-3.582 8-8 8h-131.717c-6.091 7.512-14.236 13.287-23.572 16.477 4.723 15.395 12.753 29.871 24.823 44.823h18.709c14.407 0 26.128 11.721 26.128 26.128v18.129c0 4.418-3.582 8-8 8h-308.745c-4.418 0-8-3.582-8-8v-18.128c0-14.407 11.721-26.128 26.128-26.128h18.692c16.085-19.949 25.315-39.696 28.581-61.3h-159.029c-4.418 0-8-3.582-8-8v-322.9c0-4.418 3.582-8 8-8h80.625v-51.544c0-4.418 3.582-8 8-8h135.47c9.506 0 18.055 4.18 23.906 10.797 5.85-6.617 14.398-10.797 23.904-10.797h135.47c4.418 0 8 3.582 8 8v51.544h80.626c4.419 0 8.001 3.581 8.001 8zm-96.626 158.3h-135.47c-1.278 0-2.5.064-3.663.183 3.065 4.165 4.881 9.303 4.881 14.859v30.642c2.83-1.107 5.905-1.722 9.123-1.722 6.612 0 12.632 2.572 17.123 6.763 4.491-4.191 10.51-6.763 17.123-6.763 6.612 0 12.632 2.572 17.123 6.763 4.491-4.191 10.51-6.763 17.123-6.763 13.853 0 25.123 11.27 25.123 25.123v56.04h80.669v-243.952h-41.153v110.827c-.002 4.419-3.584 8-8.002 8zm-151.375-193.939c0 .007-.001.013-.001.019v180.715c4.54-1.83 9.881-2.795 15.905-2.795h127.47v-193.844h-127.47c-8.769 0-15.904 7.135-15.904 15.905zm-159.375 177.939h127.47c6.023 0 11.365.965 15.905 2.795v-180.734c0-8.77-7.135-15.905-15.906-15.905h-127.47v193.844zm-8 16c-4.418 0-8-3.582-8-8v-110.827h-41.152v243.952h183.404v-110.083c0-5.556 1.816-10.694 4.881-14.859-1.163-.119-2.385-.183-3.664-.183zm-80.626 156.599h217.623c-1.654-4.876-2.598-10.074-2.716-15.474h-191.433c-4.418 0-8-3.582-8-8v-259.952c0-4.418 3.582-8 8-8h49.151v-15.473h-72.625zm376.246 93.301h-272.49c-5.584 0-10.128 4.543-10.128 10.128v10.128h292.745v-10.128c.001-5.585-4.543-10.128-10.127-10.128zm-59.39-58.062c-.292.005-.58.022-.873.022h-49.229c-16.256 0-30.783-7.522-40.302-19.261h-59.25c-2.861 21.729-10.861 41.628-24.697 61.3h195.018c-9.63-13.728-16.459-27.629-20.667-42.061zm35.004-122.752c0-5.03-4.092-9.123-9.123-9.123s-9.123 4.093-9.123 9.123v25.684c0 4.418-3.582 8-8 8s-8-3.582-8-8v-25.684c0-5.03-4.093-9.123-9.123-9.123s-9.123 4.093-9.123 9.123v25.684c0 4.418-3.582 8-8 8s-8-3.582-8-8v-25.684c0-5.03-4.092-9.123-9.123-9.123s-9.123 4.093-9.123 9.123v25.684c0 4.418-3.582 8-8 8s-8-3.582-8-8v-25.684-54.043c0-4.265-2.946-7.846-6.908-8.84-.295-.075-.594-.133-.896-.177-.072-.011-.144-.024-.216-.033-.732-.089-1.475-.089-2.207 0-.073.009-.144.023-.216.033-.301.044-.6.102-.896.177-3.961.994-6.907 4.575-6.907 8.84v124.942c0 19.782 16.094 35.876 35.876 35.876h49.229c19.782 0 35.876-16.094 35.876-35.876v-70.899zm128.142-219.386h-72.626v15.473h49.153c4.418 0 8 3.582 8 8v259.952c0 4.418-3.582 8-8 8h-88.698c-.118 5.4-1.062 10.598-2.716 15.474h114.887z" fill="url(#SVGID_1_)"></path></svg>