<!-- icon666.com - MILLIONS vector ICONS FREE --><svg id="Layer_1" viewBox="0 0 512 512" xmlns="http://www.w3.org/2000/svg" xmlns:xlink="http://www.w3.org/1999/xlink"><linearGradient id="SVGID_1_" gradientUnits="userSpaceOnUse" x1="256" x2="256" y1="512" y2="0"><stop offset="0" stop-color="#3dbd59"></stop><stop offset=".5942" stop-color="#26bf66"></stop><stop offset="1" stop-color="#00d150"></stop></linearGradient><path d="m184.182 289.07h214.596c11.629 0 21.09-9.462 21.09-21.092v-4.674c0-8.71-5.308-16.203-12.857-19.416v-.924c0-53.421-36.862-99.805-88.398-112.284v-.331c0-10.613-8.636-19.248-19.25-19.248h-15.764c-10.614 0-19.25 8.635-19.25 19.248v.356c-23.704 5.771-45.238 19.073-61.167 37.955-17.561 20.816-27.232 47.204-27.232 74.304v.924c-7.55 3.213-12.857 10.706-12.857 19.416v4.674c-.001 11.63 9.46 21.092 21.089 21.092zm219.685-21.091c0 2.76-2.331 5.092-5.09 5.092h-214.595c-2.759 0-5.09-2.332-5.09-5.092v-4.674c0-2.76 2.331-5.092 5.09-5.092h214.596c2.759 0 5.09 2.332 5.09 5.092v4.674zm-65.72-112.872-4.534 67.935c-.294 4.408 3.042 8.221 7.45 8.515.181.012.361.018.54.018 4.175 0 7.692-3.24 7.975-7.468l3.931-58.895c22.854 18.274 37.252 46.25 37.484 77.001h-72.382v-94.986c6.865 1.949 13.398 4.611 19.536 7.88zm-54.549-28.005h15.764c1.762 0 3.25 1.487 3.25 3.248v111.863h-22.264v-111.863c0-1.761 1.488-3.248 3.25-3.248zm-54.15 38.064 3.935 58.941c.283 4.227 3.799 7.467 7.975 7.467.179 0 .359-.006.541-.018 4.408-.295 7.743-4.107 7.449-8.516l-4.539-67.974c6.136-3.259 12.675-5.897 19.539-7.842v94.987h-72.382c.231-30.856 14.618-58.804 37.482-77.045zm222.654-157.166c0-4.418-3.582-8-8-8h-327.307c-31.374 0-56.899 29.788-56.899 66.402v363.348c0 25.132 20.446 45.578 45.578 45.578h207.008v28.672c0 3.43 2.186 6.478 5.434 7.577.843.285 1.708.424 2.565.423 2.443 0 4.812-1.122 6.354-3.139l21.705-28.368 21.707 28.368c2.083 2.723 5.669 3.813 8.92 2.716 3.248-1.101 5.434-4.147 5.434-7.577v-28.672h59.502c4.418 0 8-3.582 8-8zm-16 376.172h-289.245v-368.172h289.244v368.172zm-319.307-368.172h14.063v368.172h-25.383c-11.281 0-21.61 4.129-29.578 10.943v-328.713c-.001-27.792 18.347-50.402 40.898-50.402zm-11.32 443.328c-16.31 0-29.578-13.269-29.578-29.578s13.269-29.578 29.578-29.578h330.629v21.578h-297.247c-4.418 0-8 3.582-8 8s3.582 8 8 8h173.625v21.578zm249.42 3.139c-1.514-1.979-3.863-3.139-6.354-3.139s-4.84 1.16-6.354 3.139l-13.705 17.912v-42.629h40.119v42.631zm29.707-3.139v-21.578h51.502v21.578z" fill="url(#SVGID_1_)"></path></svg>