<!-- icon666.com - MILLIONS vector ICONS FREE --><svg xmlns="http://www.w3.org/2000/svg" xmlns:xlink="http://www.w3.org/1999/xlink" id="Gradient" viewBox="0 0 512 512"><defs><linearGradient id="linear-gradient" x1="256" y1="472" x2="256" y2="40" gradientUnits="userSpaceOnUse"><stop offset="0" stop-color="#27c1e6"></stop><stop offset="0.5" stop-color="#c275e9"></stop><stop offset="1" stop-color="#f2515d"></stop></linearGradient></defs><path d="M79.155,124.422l-16-32a8,8,0,1,0-14.31,7.156L51.056,104H24a8,8,0,0,0-8,8v32a8,8,0,0,0,8,8H51.056l-2.211,4.422a8,8,0,1,0,14.31,7.156l16-32A8,8,0,0,0,79.155,124.422ZM32,136V120H59.056l4,8-4,8Zm369.78,15.794A8,8,0,0,0,408,144V96a8,8,0,0,0-8-8h-6.456l13.947-37.191A8,8,0,0,0,400,40H112a8,8,0,0,0-7.491,10.809L118.456,88H112a8,8,0,0,0-8,8v48a8,8,0,0,0,6.22,7.794A960.047,960.047,0,0,0,64.155,310.431,8.019,8.019,0,0,0,64,312V464a8,8,0,0,0,8,8H224a8,8,0,0,0,8-8V440h48v24a8,8,0,0,0,8,8H440a8,8,0,0,0,8-8V312a8.019,8.019,0,0,0-.155-1.569A960.047,960.047,0,0,0,401.78,151.794ZM284.518,424h-57.03C213.1,408.632,140.041,332.566,81.167,307.088c3.569-17.222,7.451-33.572,11.488-48.963C124.14,270.646,181.262,288,256,288a473.135,473.135,0,0,0,56-3.325V396.211C298.657,409.123,288.834,419.405,284.518,424ZM144,112a8,8,0,0,0,8-8h16v8a8,8,0,0,0,16,0v-8h16a8,8,0,0,0,16,0h16v32H120V104h16A8,8,0,0,0,144,112Zm160,8a8,8,0,0,0,8-8v-8h16a8,8,0,0,0,16,0h16v8a8,8,0,0,0,16,0v-8h16v32H280V104h16v8A8,8,0,0,0,304,120Zm70.4,51.2L360,152h24.662a908.542,908.542,0,0,1,30.469,90.573A377.1,377.1,0,0,1,376,255.8V176A8.006,8.006,0,0,0,374.4,171.2ZM264,136H248V104h16Zm48,16V268.559A456.916,456.916,0,0,1,256,272c-73.569,0-129.273-17.349-159.131-29.425A908.434,908.434,0,0,1,127.338,152Zm16,288a8,8,0,0,0,0-16V408h8a8,8,0,0,0,0-16h-8V376a8,8,0,0,0,0-16V344h8a8,8,0,0,0,0-16h-8V312a8,8,0,0,0,0-16V280h8a8,8,0,0,0,0-16h-8V248a8,8,0,0,0,0-16V216h8a8,8,0,0,0,0-16h-8V184a8,8,0,0,0,0-16V152h12l20,26.667V456H328Zm48-167.608a399.343,399.343,0,0,0,43.344-14.273c4.037,15.395,7.921,31.751,11.49,48.978-16.05,6.945-34.423,18.208-54.834,33.612ZM123.544,56H388.456l-12,32H135.544ZM80,456V324.136c54.754,26.224,123.241,97.454,136,111.017V456Zm216-20.85c2.841-3.024,8.438-8.9,16-16.482V456H296ZM376,456V360.946c21.061-16.73,39.835-29.075,56-36.814V456ZM248,176a8,8,0,1,1,8,8A8,8,0,0,1,248,176ZM488,96H460.944l2.211-4.422a8,8,0,1,0-14.31-7.156l-16,32a8,8,0,0,0,0,7.156l16,32a8,8,0,1,0,14.31-7.156L460.944,144H488a8,8,0,0,0,8-8V104A8,8,0,0,0,488,96Zm-8,32H452.944l-4-8,4-8H480Z" style="fill:url(#linear-gradient)"></path></svg>