<!-- icon666.com - MILLIONS vector ICONS FREE --><svg viewBox="0 0 48 48" xmlns="http://www.w3.org/2000/svg" xmlns:xlink="http://www.w3.org/1999/xlink"><linearGradient id="a" gradientUnits="userSpaceOnUse" x1="4" x2="44" y1="6" y2="6"><stop offset="0" stop-color="#54a5ff"></stop><stop offset="1" stop-color="#8ad3fe"></stop></linearGradient><linearGradient id="b" gradientUnits="userSpaceOnUse" x1="1" x2="47" y1="46" y2="46"><stop offset="0" stop-color="#fe9661"></stop><stop offset="1" stop-color="#ffb369"></stop></linearGradient><linearGradient id="c" gradientUnits="userSpaceOnUse" x1="3" x2="15" y1="41" y2="41"><stop offset="0" stop-color="#d3e6f5"></stop><stop offset="1" stop-color="#f0f7fc"></stop></linearGradient><linearGradient id="d" x1="33" x2="45" xlink:href="#c"></linearGradient><linearGradient id="e" x1="9" x2="9" xlink:href="#a" y1="34" y2="1"></linearGradient><linearGradient id="f" x1="39" x2="39" xlink:href="#a" y1="34" y2="1"></linearGradient><linearGradient id="g" x1="11" x2="21" xlink:href="#a" y1="13" y2="13"></linearGradient><linearGradient id="h" gradientTransform="matrix(-1 0 0 1 16 0)" x1="-21" x2="-11" xlink:href="#a" y1="13" y2="13"></linearGradient><path d="m4 4h40v4h-40z" fill="url(#a)"></path><path d="m46 47h-44a1 1 0 0 1 0-2h44a1 1 0 0 1 0 2z" fill="url(#b)"></path><path d="m3 34h12v3h-12z" fill="#b4cde1"></path><path d="m3 37h12v8h-12z" fill="url(#c)"></path><path d="m33 34h12v3h-12z" fill="#b4cde1"></path><path d="m33 37h12v8h-12z" fill="url(#d)"></path><path d="m7 1h4v33h-4z" fill="url(#e)"></path><path d="m37 1h4v33h-4z" fill="url(#f)"></path><path d="m11 13 5-5h5l-10 10z" fill="url(#g)"></path><path d="m37 13-5-5h-5l10 10z" fill="url(#h)"></path><circle cx="12" cy="42" fill="#d7e9f7" r="1"></circle><circle cx="6" cy="40" fill="#b4cde1" r="1"></circle><circle cx="42" cy="42" fill="#d7e9f7" r="1"></circle><circle cx="36" cy="40" fill="#b4cde1" r="1"></circle></svg>