<!-- icon666.com - MILLIONS vector ICONS FREE --><svg id="Layer_1" enable-background="new 0 0 512 512" viewBox="0 0 512 512" xmlns="http://www.w3.org/2000/svg" xmlns:xlink="http://www.w3.org/1999/xlink"><linearGradient id="SVGID_1_" gradientUnits="userSpaceOnUse" x1="466.764" x2="48.708" y1="-3.435" y2="414.621"><stop offset="0" stop-color="#df4237"></stop><stop offset="1" stop-color="#f74f16"></stop></linearGradient><path d="m503 46.168c0-17.82-14.495-32.318-32.312-32.318h-420.229c-22.86 0-41.459 18.598-41.459 41.459v275.534c0 22.861 18.599 41.46 41.459 41.46h136.349c-.276 26.799-6.781 53.914-14.036 69.896h-28.965c-15.425 0-27.975 12.55-27.975 27.976s12.55 27.976 27.975 27.976h224.391c15.425 0 27.975-12.55 27.975-27.976s-12.55-27.976-27.975-27.976h-29.038c-7.594-16.271-14.514-43.482-15.027-69.896h9.208c3.922.328 7.13 2.645 8.678 6.381 1.672 4.037.832 8.287-2.25 11.367-4.747 4.747-4.747 12.472 0 17.219l11.142 11.142c4.746 4.745 12.471 4.746 17.218 0 3.087-3.087 7.339-3.933 11.374-2.262s6.442 5.274 6.442 9.641c0 6.713 5.461 12.175 12.175 12.175h15.756c6.713 0 12.174-5.462 12.174-12.175 0-4.357 2.41-7.957 6.447-9.629 4.038-1.671 8.288-.832 11.369 2.25 4.747 4.746 12.472 4.746 17.218 0l11.142-11.142c4.747-4.747 4.747-12.472 0-17.219-3.081-3.08-3.922-7.33-2.25-11.367s5.271-6.447 9.628-6.447c6.713 0 12.175-5.462 12.175-12.176v-.877c7.159-7.649 11.221-17.802 11.221-28.341zm-452.541-18.318h420.229c10.098 0 18.312 8.218 18.312 18.318v243.591h-24.113l-3.802-3.802c-2.3-2.301-5.357-3.567-8.61-3.567-3.252 0-6.311 1.267-8.609 3.565-3.081 3.082-7.331 3.924-11.369 2.249-4.037-1.672-6.447-5.271-6.447-9.628 0-6.713-5.461-12.175-12.174-12.175h-15.756c-6.713 0-12.175 5.462-12.175 12.175 0 4.356-2.41 7.956-6.447 9.628-4.04 1.673-8.289.831-11.368-2.247-2.3-2.301-5.357-3.567-8.61-3.567s-6.311 1.267-8.609 3.565l-3.804 3.804h-324.107v-234.45c0-15.141 12.318-27.459 27.459-27.459zm-27.459 302.993v-27.084h313.377c-.6 3.731.523 7.687 3.392 10.557 3.081 3.08 3.922 7.33 2.25 11.367s-5.272 6.447-9.629 6.447c-6.713 0-12.175 5.462-12.175 12.176v13.997h-269.756c-15.141 0-27.459-12.319-27.459-27.46zm359.173 139.332c0 7.706-6.269 13.976-13.975 13.976h-224.391c-7.706 0-13.975-6.27-13.975-13.976s6.269-13.976 13.975-13.976h224.391c7.706 0 13.975 6.27 13.975 13.976zm-58.292-27.976h-135.902c7.671-19.511 12.574-45.969 12.825-69.896h109.331c.447 23.634 5.7 50.107 13.746 69.896zm153.898-83.898c-9.274.654-17.118 6.285-20.738 15.025-3.62 8.739-2.055 18.268 4.04 25.289l-8.651 8.651c-7.021-6.095-16.549-7.661-25.29-4.04-8.74 3.62-14.371 11.465-15.026 20.738h-12.234c-.654-9.282-6.284-17.131-15.021-20.75-8.738-3.62-18.269-2.051-25.295 4.051l-8.651-8.65c6.095-7.021 7.659-16.55 4.04-25.289-3.62-8.739-11.464-14.371-20.738-15.025v-12.235c9.274-.654 17.118-6.286 20.738-15.025 3.62-8.74 2.056-18.269-4.04-25.289l8.651-8.65c7.021 6.095 16.551 7.658 25.291 4.038s14.37-11.464 15.025-20.737h12.233c.655 9.273 6.286 17.117 15.025 20.737 8.741 3.618 18.269 2.056 25.291-4.039l8.651 8.651c-6.095 7.021-7.66 16.549-4.04 25.289 3.621 8.74 11.464 14.371 20.738 15.025v12.235zm-7.804-32.618c-1.672-4.037-.832-8.287 2.25-11.367 2.869-2.869 3.992-6.826 3.392-10.557h13.383v27.084c0 1.748-.177 3.479-.503 5.174-2.224-2.385-5.383-3.887-8.893-3.887-4.357 0-7.957-2.41-9.629-6.447zm-188.03 5.347c0 3.866-3.134 7-7 7h-37.89c-3.866 0-7-3.134-7-7s3.134-7 7-7h37.89c3.866 0 7 3.134 7 7zm-25.945-59.267c62.286 0 112.959-50.673 112.959-112.958 0-62.286-50.673-112.96-112.959-112.96s-112.959 50.674-112.959 112.96c0 62.285 50.673 112.958 112.959 112.958zm7-48.634c8.866.272 17.518 1.061 25.808 2.335-6.883 14.294-15.881 24.285-25.808 27.527zm0-14.006v-43.318h39.263c-.633 16.96-3.541 32.846-8.079 46.343-9.977-1.697-20.456-2.713-31.184-3.025zm0-57.318v-41.964c10.889-.316 21.51-1.357 31.608-3.095 4.295 13.216 7.042 28.633 7.655 45.059zm0-55.971v-31.216c10.218 3.336 19.453 13.821 26.409 28.792-8.467 1.326-17.321 2.146-26.409 2.424zm-14 0c-9.088-.278-17.942-1.098-26.409-2.425 6.956-14.971 16.191-25.455 26.409-28.792zm0 14.007v41.964h-39.262c.613-16.426 3.36-31.843 7.655-45.059 10.098 1.738 20.719 2.779 31.607 3.095zm0 55.964v43.318c-10.727.312-21.206 1.329-31.184 3.025-4.538-13.496-7.446-29.383-8.079-46.343zm0 57.324v29.861c-9.927-3.241-18.925-13.232-25.808-27.526 8.29-1.273 16.943-2.062 25.808-2.335zm-24.419 29.519c-12.412-4.167-23.734-10.729-33.412-19.139 5.593-2.059 11.562-3.832 17.831-5.304 4.35 9.703 9.615 17.983 15.581 24.443zm78.42-24.444c6.269 1.472 12.238 3.246 17.83 5.305-9.678 8.41-21 14.973-33.412 19.139 5.967-6.46 11.232-14.74 15.582-24.444zm5.052-13.176c4.708-14.478 7.619-31.195 8.22-49.223h38.435c-1.516 21.587-9.987 41.284-23.181 56.863-7.23-3.031-15.112-5.586-23.474-7.64zm8.22-63.223c-.584-17.509-3.344-33.784-7.815-47.969 8.534-2.118 16.564-4.76 23.909-7.9 12.716 15.419 20.857 34.74 22.341 55.869zm-12.728-61.171c-4.453-10.237-9.909-18.943-16.127-25.675 12.876 4.322 24.576 11.227 34.488 20.094-5.74 2.173-11.888 4.038-18.361 5.581zm-95.09.001c-6.473-1.543-12.621-3.408-18.361-5.581 9.912-8.867 21.612-15.772 34.488-20.094-6.217 6.731-11.674 15.437-16.127 25.675zm-4.913 13.201c-4.471 14.185-7.231 30.46-7.815 47.969h-38.435c1.484-21.129 9.625-40.45 22.341-55.869 7.345 3.14 15.374 5.782 23.909 7.9zm-7.815 61.969c.602 18.029 3.512 34.746 8.221 49.224-8.362 2.054-16.244 4.609-23.474 7.64-13.194-15.579-21.665-35.276-23.182-56.864zm210.27 140.879c-25.088 0-45.5 20.411-45.5 45.5 0 25.088 20.411 45.499 45.5 45.499s45.499-20.411 45.499-45.499c0-25.089-20.411-45.5-45.499-45.5zm0 14c17.369 0 31.499 14.131 31.499 31.5 0 2.094-.21 4.139-.602 6.119h-61.795c-.392-1.98-.602-4.025-.602-6.119.001-17.37 14.131-31.5 31.5-31.5zm0 62.999c-9.725 0-18.433-4.432-24.216-11.38h48.431c-5.782 6.948-14.49 11.38-24.215 11.38z" fill="url(#SVGID_1_)"></path></svg>