<!-- icon666.com - MILLIONS OF FREE VECTOR ICONS --><svg xmlns="http://www.w3.org/2000/svg" xmlns:xlink="http://www.w3.org/1999/xlink" viewBox="0 0 64 64"><defs><linearGradient id="linear-gradient" x1="2" y1="32" x2="66.281" y2="32" gradientUnits="userSpaceOnUse"><stop offset="0" stop-color="#fc4a1a"></stop><stop offset="1" stop-color="#f7b733"></stop></linearGradient><linearGradient id="linear-gradient-4" y1="24" x2="66.281" y2="24" xlink:href="#linear-gradient"></linearGradient><linearGradient id="linear-gradient-5" y1="40" x2="66.281" y2="40" xlink:href="#linear-gradient"></linearGradient></defs><g id="Gradient_outline" data-name="Gradient outline"><path d="M2,15v2H5v2H2v2H5v2H2v2H5v2H2v2H5v2H2v2H5v2H2v2H5v2H2v2H5v2H2v2H5v2H2v2H62V47H59V45h3V43H59V41h3V39H59V37h3V35H59V33h3V31H59V29h3V27H59V25h3V23H59V21h3V19H59V17h3V15Zm33.234,2L32,18.849,28.766,17ZM28.766,47,32,45.151,35.234,47ZM57,32V47H39.265L32.5,43.132a1,1,0,0,0-.992,0L24.735,47H7V17H24.735L31.5,20.868a1,1,0,0,0,.992,0L39.265,17H57Z" style="fill:url(#linear-gradient)"></path><path d="M7.5,32.868l7,4a1,1,0,0,0,.992,0l7-4a1,1,0,0,0,0-1.736l-7-4a1,1,0,0,0-.992,0l-7,4a1,1,0,0,0,0,1.736ZM15,29.151,19.984,32,15,34.849,10.016,32Z" style="fill:url(#linear-gradient)"></path><path d="M23.553,32.9l8,4a1,1,0,0,0,.894,0l8-4a1,1,0,0,0,0-1.79l-8-4a1,1,0,0,0-.894,0l-8,4a1,1,0,0,0,0,1.79ZM32,29.118,37.764,32,32,34.882,26.236,32Z" style="fill:url(#linear-gradient)"></path><path d="M30.5,23.132l-7-4a1,1,0,0,0-.992,0l-7,4a1,1,0,0,0,0,1.736l7,4a1,1,0,0,0,.992,0l7-4a1,1,0,0,0,0-1.736ZM23,26.849,18.016,24,23,21.151,27.984,24Z" style="fill:url(#linear-gradient-4)"></path><path d="M30.5,39.132l-7-4a1,1,0,0,0-.992,0l-7,4a1,1,0,0,0,0,1.736l7,4a1,1,0,0,0,.992,0l7-4a1,1,0,0,0,0-1.736ZM23,42.849,18.016,40,23,37.151,27.984,40Z" style="fill:url(#linear-gradient-5)"></path><path d="M33.5,23.132a1,1,0,0,0,0,1.736l7,4a1,1,0,0,0,.992,0l7-4a1,1,0,0,0,0-1.736l-7-4a1,1,0,0,0-.992,0ZM45.984,24,41,26.849,36.016,24,41,21.151Z" style="fill:url(#linear-gradient-4)"></path><path d="M48.5,39.132l-7-4a1,1,0,0,0-.992,0l-7,4a1,1,0,0,0,0,1.736l7,4a1,1,0,0,0,.992,0l7-4a1,1,0,0,0,0-1.736ZM41,42.849,36.016,40,41,37.151,45.984,40Z" style="fill:url(#linear-gradient-5)"></path><path d="M56.5,31.132l-7-4a1,1,0,0,0-.992,0l-7,4a1,1,0,0,0,0,1.736l7,4a1,1,0,0,0,.992,0l7-4a1,1,0,0,0,0-1.736ZM49,34.849,44.016,32,49,29.151,53.984,32Z" style="fill:url(#linear-gradient)"></path></g></svg>