<!-- icon666.com - MILLIONS vector ICONS FREE --><svg id="Objects" viewBox="0 0 64 64" xmlns="http://www.w3.org/2000/svg" xmlns:xlink="http://www.w3.org/1999/xlink"><linearGradient id="linear-gradient" gradientUnits="userSpaceOnUse" x1="12.496" x2="54.496" y1="3.832" y2="56.974"><stop offset="0" stop-color="#8a8885"></stop><stop offset=".139" stop-color="#6a6967"></stop><stop offset=".397" stop-color="#797674"></stop><stop offset=".742" stop-color="#666261"></stop><stop offset="1" stop-color="#685e5e"></stop></linearGradient><path d="m58.286 8h-22.928a1 1 0 0 0 -.892 1.45l3.507 6.95a1 1 0 0 0 .892.55h.957v12.55l-1.976.75a1 1 0 0 0 -.646.935v6.939a1 1 0 0 0 .432.823 1.008 1.008 0 0 0 .568.177 1 1 0 0 0 .355-.065l1.267-.481v4.872l-1.976.749a1 1 0 0 0 -.646.935v6.939a1 1 0 0 0 1.355.935l1.267-.481v4.743a1 1 0 0 0 1 1h12a1 1 0 0 0 1-1v-10.053l1.977-.749a1 1 0 0 0 .645-.935v-6.939a1 1 0 0 0 -1.354-.935l-1.268.481v-4.873l1.977-.749a1 1 0 0 0 .645-.935v-6.938a1 1 0 0 0 -1.354-.935l-1.268.481v-7.237h.957a1 1 0 0 0 .893-.55l3.507-6.956a1 1 0 0 0 -.893-1.448zm-6.464 48.27h-10v-4.5l10-3.793zm2.622-11.427-15.244 5.781v-4.8l15.244-5.781zm-2.622-5.943-10 3.793v-4.874l10-3.793zm2.622-8.005-15.244 5.78v-4.8l15.244-5.781zm-12.622-2.153v-4.874l10-3.793v4.874zm10-10.8-10 3.793v-4.781h10zm2.341-2.983h-14.682l-2.499-4.959h19.68zm-28.153-6.459a1 1 0 0 0 -.866-.5h-12.559a1 1 0 0 0 -.866.5l-6.28 10.874a1 1 0 0 0 0 1l6.28 10.877a1 1 0 0 0 .866.5h12.559a1 1 0 0 0 .866-.5l6.279-10.877a1 1 0 0 0 0-1zm-1.444 21.251h-11.4l-5.7-9.877 5.696-9.874h11.4l5.7 9.876zm-5.7-16.6a6.72 6.72 0 1 0 6.72 6.72 6.727 6.727 0 0 0 -6.722-6.717zm0 11.44a4.72 4.72 0 1 1 4.72-4.72 4.725 4.725 0 0 1 -4.722 4.723zm7.146 9.871a1 1 0 0 0 -.866-.5h-12.561a1 1 0 0 0 -.866.5l-6.28 10.879a1 1 0 0 0 0 1l6.28 10.876a1 1 0 0 0 .866.5h12.559a1 1 0 0 0 .866-.5l6.279-10.876a1 1 0 0 0 0-1zm-1.446 21.255h-11.4l-5.7-9.876 5.7-9.876h11.4l5.7 9.876zm-5.7-16.6a6.72 6.72 0 1 0 6.72 6.72 6.727 6.727 0 0 0 -6.722-6.716zm0 11.44a4.72 4.72 0 1 1 4.72-4.72 4.725 4.725 0 0 1 -4.722 4.724z" fill="url(#linear-gradient)"></path></svg>