<!-- icon666.com - MILLIONS OF FREE VECTOR ICONS --><svg version="1.1" id="Capa_1" xmlns="http://www.w3.org/2000/svg" xmlns:xlink="http://www.w3.org/1999/xlink" x="0px" y="0px" viewBox="0 0 496.485 496.485" style="enable-background:new 0 0 496.485 496.485;" xml:space="preserve"><circle style="fill:#FDBF5E;" cx="248.242" cy="328.145" r="168.339"></circle><path style="fill:#FFFFFF;" d="M280.824,7.758c-17.842,0-32.582,21.721-32.582,40.339v263.758c0-17.842,14.739-39.564,32.582-39.564 h155.927V7.758H280.824z"></path><path style="fill:#193651;" d="M436.752,0H280.824c-22.497,0-40.339,25.6-40.339,48.097v263.758c0,4.655,3.103,7.758,7.758,7.758 c4.655,0,7.758-3.103,7.758-7.758c0-13.964,11.636-31.806,24.824-31.806h155.927c4.655,0,7.758-3.103,7.758-7.758V7.758 C444.509,3.879,441.406,0,436.752,0z M428.994,264.533h-148.17c-9.309,0-17.842,4.655-24.824,10.861V48.097 c0-14.739,11.636-32.582,24.824-32.582h148.17L428.994,264.533L428.994,264.533z"></path><path style="fill:#E1E6E9;" d="M276.945,40.339c0-2.327,1.552-3.879,3.879-3.879h127.224v206.352H280.824c-1.552,0-2.327,0-3.879,0 V40.339z"></path><path style="fill:#FFFFFF;" d="M215.661,7.758H59.733v263.758h155.927c17.842,0,32.582,21.721,32.582,39.564V47.321 C248.242,29.479,233.503,7.758,215.661,7.758z"></path><path style="fill:#193651;" d="M248.242,319.612c-4.655,0-7.758-3.103-7.758-7.758c0-13.964-11.636-31.806-24.824-31.806H59.733 c-4.655,0-7.758-3.103-7.758-7.758V7.758C51.976,3.103,55.079,0,59.733,0h155.927C238.158,0,256,25.6,256,48.097v263.758 C256,315.733,252.897,319.612,248.242,319.612z M67.491,264.533h148.17c9.309,0,17.842,4.655,24.824,10.861V48.097 c0-14.739-11.636-32.582-24.824-32.582H67.491V264.533z"></path><path style="fill:#E1E6E9;" d="M219.539,243.588c-1.552,0-2.327,0-3.879,0H88.436V37.236h127.224c2.327,0,3.879,1.552,3.879,3.879 V243.588z"></path><g><rect x="107.055" y="192.388" style="fill:#193651;" width="15.515" height="14.739"></rect><rect x="145.842" y="192.388" style="fill:#193651;" width="15.515" height="14.739"></rect><rect x="185.406" y="192.388" style="fill:#193651;" width="15.515" height="14.739"></rect><rect x="300.218" y="59.733" style="fill:#193651;" width="85.333" height="15.515"></rect><rect x="300.218" y="94.642" style="fill:#193651;" width="85.333" height="15.515"></rect><rect x="300.218" y="128.776" style="fill:#193651;" width="85.333" height="15.515"></rect><rect x="111.709" y="59.733" style="fill:#193651;" width="85.333" height="15.515"></rect><rect x="111.709" y="94.642" style="fill:#193651;" width="85.333" height="15.515"></rect><rect x="111.709" y="128.776" style="fill:#193651;" width="85.333" height="15.515"></rect><rect x="300.218" y="162.909" style="fill:#193651;" width="85.333" height="15.515"></rect><rect x="300.218" y="197.818" style="fill:#193651;" width="85.333" height="15.515"></rect><path style="fill:#193651;" d="M248.242,463.127c-4.655,0-7.758-3.103-7.758-7.758V311.855c0-4.655,3.103-7.758,7.758-7.758 c4.655,0,7.758,3.103,7.758,7.758V455.37C256,459.249,252.897,463.127,248.242,463.127z"></path></g><path style="fill:#4FBF9F;" d="M349.867,329.697c-44.218-4.655-76.8,27.927-72.145,72.145 C321.939,406.497,354.521,374.691,349.867,329.697z"></path><path style="fill:#193651;" d="M286.255,410.376L286.255,410.376c-3.103,0-6.206,0-9.309-0.776c-3.879,0-6.206-3.103-6.982-6.982 c-2.327-22.497,3.879-43.442,17.842-58.182c15.515-17.067,38.012-24.824,63.612-22.497c3.879,0,6.206,3.103,6.982,6.982 c2.327,22.497-3.879,43.442-17.842,58.182C326.594,401.842,307.2,410.376,286.255,410.376z M284.703,394.861h0.776l0,0 c17.067,0,31.806-6.206,42.667-17.842c9.309-10.085,13.964-24.048,13.964-39.564c-17.842,0-33.358,6.206-43.442,17.842 C289.358,365.382,284.703,379.345,284.703,394.861z"></path><path style="fill:#4FBF9F;" d="M146.618,329.697c44.218-4.655,76.8,27.927,72.145,72.145 C174.545,406.497,141.964,374.691,146.618,329.697z"></path><path style="fill:#193651;" d="M210.23,410.376c-21.721,0-40.339-7.758-54.303-23.273c-13.964-15.515-20.17-35.685-17.842-58.182 c0-3.879,3.103-6.206,6.982-6.982c25.6-2.327,48.097,5.43,63.612,22.497c13.964,15.515,20.17,35.685,17.842,58.182 c0,3.879-3.103,6.206-6.982,6.982C216.436,410.376,213.333,410.376,210.23,410.376z M153.6,337.455 c0,15.515,4.655,29.479,13.964,39.564c10.861,11.636,26.376,17.842,43.442,17.842c0-15.515-4.655-29.479-13.964-39.564 C186.958,342.885,171.442,336.679,153.6,337.455z"></path></svg>