<!-- icon666.com - MILLIONS vector ICONS FREE --><svg viewBox="0 -96 480.00044 480" xmlns="http://www.w3.org/2000/svg" xmlns:xlink="http://www.w3.org/1999/xlink"><linearGradient id="a" gradientUnits="userSpaceOnUse" x1="240.000043" x2="240.000043" y1="292.26378" y2="-25.95222"><stop offset="0" stop-color="#e93e3a"></stop><stop offset=".35" stop-color="#ed683c"></stop><stop offset=".7" stop-color="#f3903f"></stop><stop offset="1" stop-color="#fdc70c"></stop></linearGradient><path d="m456 .0078125c-10.132812.0429687-19.148438 6.4453125-22.527344 15.9999995h-170.945312c-3.339844-9.585937-12.378906-16.007812-22.527344-16.007812s-19.1875 6.421875-22.527344 16.007812h-170.945312c-3.878906-11.011718-15.132813-17.621093-26.640625-15.644531-11.507813 1.980469-19.9101565 11.96875-19.886719 23.644531v160c-.0234375 11.675782 8.378906 21.664063 19.886719 23.644532 11.507812 1.976562 22.761719-4.632813 26.640625-15.644532h72l-14.414063 86.6875c-.386719 2.320313.265625 4.691407 1.785157 6.484376 1.519531 1.792968 3.75 2.828124 6.101562 2.828124h48c2.351562 0 4.582031-1.035156 6.101562-2.828124 1.519532-1.792969 2.171876-4.164063 1.785157-6.484376l-14.445313-86.6875h64c3.339844 9.585938 12.375 16.007813 22.527344 16.007813 10.148438 0 19.1875-6.421875 22.527344-16.007813h72l-14.382813 86.6875c-.386719 2.320313.265625 4.691407 1.785157 6.484376 1.519531 1.792968 3.75 2.828124 6.101562 2.828124h48c2.351562 0 4.582031-1.035156 6.101562-2.828124 1.519532-1.792969 2.171876-4.164063 1.785157-6.484376l-14.445313-86.6875h64c3.84375 11.0625 15.128906 17.71875 26.667969 15.734376 11.542969-1.980469 19.957031-12.023438 19.890625-23.734376v-160c0-13.253906-10.746094-23.9999995-24-23.9999995zm-432 191.9999995c-4.417969 0-8-3.582031-8-8v-160c0-4.417968 3.582031-8 8-8s8 3.582032 8 8v160c0 4.417969-3.582031 8-8 8zm24-160h168v144h-168zm102.550781 240h-29.101562l13.328125-80h2.445312zm89.449219-80c-4.417969 0-8-3.582031-8-8v-160c0-4.417968 3.582031-8 8-8s8 3.582032 8 8v160c0 4.417969-3.582031 8-8 8zm24-160h168v144h-168zm102.550781 240h-29.101562l13.328125-80h2.445312zm97.449219-88c0 4.417969-3.582031 8-8 8s-8-3.582031-8-8v-160c0-4.417968 3.582031-8 8-8s8 3.582032 8 8zm0 0" fill="url(#a)"></path></svg>