<!-- icon666.com - MILLIONS vector ICONS FREE --><svg xmlns="http://www.w3.org/2000/svg" xmlns:xlink="http://www.w3.org/1999/xlink" id="Gradient" viewBox="0 0 512 512"><defs><linearGradient id="linear-gradient" x1="256" y1="496" x2="256" y2="16" gradientUnits="userSpaceOnUse"><stop offset="0" stop-color="#12c2e9"></stop><stop offset="0.5" stop-color="#c471ed"></stop><stop offset="1" stop-color="#f64f59"></stop></linearGradient></defs><path d="M318.657,448.114c1.83-.321,44.14-8.282,65.99-59.265a8,8,0,1,1,14.706,6.3c-25.431,59.339-75.9,68.384-78.038,68.74a8,8,0,0,1-2.658-15.777ZM496,328c0,21.92-4.681,36.226-14.732,45.021C470.211,382.7,454.2,384,440,384h-.414C445.17,414.432,448,449.343,448,488a8,8,0,0,1-8,8H72a8,8,0,0,1-8-8,642.892,642.892,0,0,1,4.216-76.157c-3.571-5.258-7.259-10.8-10.938-16.506C29.888,352.883,16,322.152,16,304c0-40.568,23.111-110.625,24.385-114.452a389.5,389.5,0,0,1,21.46-53.126C80.564,98.983,100.13,80,120,80c35.087,0,70.845-13.071,76.3-15.146L216,51.719V24a8,8,0,0,1,8-8h64a8,8,0,0,1,8,8V51.719l19.7,13.135C321.145,66.925,356.908,80,392,80c19.87,0,39.436,18.983,58.155,56.422a389.265,389.265,0,0,1,21.491,53.225c.026.083.042.167.065.25.015.055.036.107.05.163C472.751,194.019,496,287.481,496,328ZM393.839,254.211c4.432,2.067,8.849,4.24,13.2,6.524l-7.6-17.73ZM318.223,82.739a47.751,47.751,0,0,1-6.669,13.849c-6.693,9.561-19.993,20.76-45.93,23C268.391,126.686,275.859,136,296,136c20.167,0,33.921-28.994,40.714-47.782C329.291,86.29,322.954,84.324,318.223,82.739ZM208.556,75.911a31.93,31.93,0,0,0,5.429,12.1C221.794,98.621,235.93,104,256,104c20.46,0,34.741-5.581,42.446-16.588a32.017,32.017,0,0,0,5-11.5L283.562,62.656A8,8,0,0,1,280,56V32H232V56a8,8,0,0,1-3.563,6.656Zm-14.779,6.828c-4.731,1.585-11.068,3.551-18.491,5.479C182.079,107.006,195.833,136,216,136c13.356,0,22.74-3.948,27.89-11.733a24.445,24.445,0,0,0,2.4-4.69c-16.165-1.434-34.634-6.972-45.847-22.989A47.751,47.751,0,0,1,193.777,82.739Zm-136.01,105.2,45.172,22.586c.252-44.46,33.823-78.6,35.4-80.182a8,8,0,0,1,11.322,11.305c-.367.37-36.336,37.135-29.945,79.9l19.792,39.584a297.186,297.186,0,0,1,36.571-15.04A24.026,24.026,0,0,1,200,224h50.237a24,24,0,0,1,34.983-12.6l21.8,13.082a494.473,494.473,0,0,1,72.151,23.281l13.106-26.214c6.391-42.768-29.578-79.533-29.945-79.9a8,8,0,0,1,11.322-11.305c1.581,1.581,35.152,35.722,35.4,80.182l45.172-22.586a378.018,378.018,0,0,0-18.471-44.525C420.449,112.838,404.908,96,392,96a206.963,206.963,0,0,1-39.566-4.184C335.274,141.333,312.456,152,296,152c-21.584,0-33.462-8.194-40-17.165C249.462,143.806,237.584,152,216,152c-16.456,0-39.274-10.667-56.434-60.184A206.963,206.963,0,0,1,120,96c-12.908,0-28.449,16.838-43.762,47.414A378.018,378.018,0,0,0,57.767,187.939Zm42.978,112.315c9.628-16.717,18.943-26.046,24.989-30.9l-12.252-24.5L96.894,294.616C98.205,296.459,99.487,298.344,100.745,300.254Zm8.306,141.184L188.1,474.373a8,8,0,0,0,10.5-4.414l4.8-12a8.033,8.033,0,0,0-3.458-9.917l-43.912-25.093a8,8,0,0,1-3.62-9.476l3.229-9.687a8.009,8.009,0,0,0-4.619-9.958l-25.992-10.4a8.006,8.006,0,0,1-4.618-4.9c-.156-.468-15.894-47.175-38.811-77.731a8,8,0,0,1-1.189-7.33l21.8-65.417L58.4,206.142l-5.6-2.8C46.541,223.556,32,273.833,32,304,32,334,86.405,411.74,109.051,441.438ZM80.042,480H160l-59.076-24.615a8,8,0,0,1-3.264-2.508c-.112-.145-6.411-8.353-15.4-20.915C80.969,447.151,80.219,463.207,80.042,480Zm342.4-100.352c-12.9-5.44-34.489-17.681-71.245-45.248-26.645-19.984-50.8-40.195-58.139-46.4H200a24.027,24.027,0,0,1-24-24v-.936a258.218,258.218,0,0,0-35.619,15.652,7.793,7.793,0,0,1-.768.423c-5.226,2.814-17.669,14.047-29.278,37.065a384.971,384.971,0,0,1,24.023,53.723l22.606,9.042a24.023,24.023,0,0,1,13.854,29.873l-1.154,3.466,38.217,21.839A24.1,24.1,0,0,1,218.257,463.9l-4.8,12a24.372,24.372,0,0,1-2.117,4.1H431.958C431.564,442.4,428.365,408.71,422.445,379.648ZM480,328c0-31.207-15.411-99.1-21.412-124.35l-48.263,24.132,20.122,46.952c6.257,4.435,25.212,18.695,32.708,33.688a8,8,0,1,1-14.31,7.156c-5.762-11.523-23.094-24.786-29.286-28.924h0c-46.222-30.812-116.587-46.687-117.292-46.843a8.027,8.027,0,0,1-2.381-.95l-22.9-13.738a8,8,0,0,0-11.706,4.331l-1.693,5.077A8,8,0,0,1,256,240H200a8.009,8.009,0,0,0-8,8v16a8.009,8.009,0,0,0,8,8h96a8,8,0,0,1,5.206,1.926c.279.239,28.222,24.149,59.655,47.72C416.653,363.483,434.792,368,440,368c15.917,0,25.108-2.1,30.732-7.021C477.055,355.447,480,344.967,480,328ZM261.268,430.021l48.472-42.414h0a34.7,34.7,0,0,0-44.533-53.218L256,341.755l-9.208-7.366a34.7,34.7,0,0,0-44.533,53.218l48.473,42.414a8,8,0,0,0,10.536,0ZM236.8,346.883,251,358.247a8,8,0,0,0,10,0l14.2-11.364a18.705,18.705,0,0,1,24,28.683L256,413.37l-43.205-37.8a18.7,18.7,0,0,1,24-28.683Z" style="fill:url(#linear-gradient)"></path></svg>