<svg viewBox="0 0 480 480" xmlns="http://www.w3.org/2000/svg" xmlns:xlink="http://www.w3.org/1999/xlink" height="px" width="px"><linearGradient id="a"><stop offset="0" stop-color="#039bca"/><stop offset=".207" stop-color="#3a7ac4"/><stop offset=".598" stop-color="#9c3fb9"/><stop offset=".871" stop-color="#da1ab2"/><stop offset="1" stop-color="#f20baf"/></linearGradient><linearGradient id="b" gradientUnits="userSpaceOnUse" x1="-24" x2="470.512" xlink:href="#a" y1="56" y2="56"/><linearGradient id="c" gradientUnits="userSpaceOnUse" x1="-24" x2="470.512" xlink:href="#a" y1="376" y2="376"/><linearGradient id="d" gradientUnits="userSpaceOnUse" x1="-24" x2="470.512" xlink:href="#a" y1="404" y2="404"/><linearGradient id="e" gradientUnits="userSpaceOnUse" x1="-24" x2="470.512" xlink:href="#a" y1="440" y2="440"/><linearGradient id="f" gradientUnits="userSpaceOnUse" x1="-24" x2="470.512" xlink:href="#a" y1="40" y2="40"/><linearGradient id="g" gradientUnits="userSpaceOnUse" x1="-24" x2="470.512" xlink:href="#a" y1="72" y2="72"/><linearGradient id="h" gradientUnits="userSpaceOnUse" x1="-24" x2="470.512" xlink:href="#a" y1="168" y2="168"/><linearGradient id="i" gradientUnits="userSpaceOnUse" x1="-24" x2="470.512" xlink:href="#a" y1="216" y2="216"/><linearGradient id="j" gradientUnits="userSpaceOnUse" x1="-24" x2="470.512" xlink:href="#a" y1="210.696" y2="210.696"/><linearGradient id="k" gradientUnits="userSpaceOnUse" x1="-24" x2="470.512" xlink:href="#a" y1="176" y2="176"/><path d="m80 104v-96c0-4.417969-3.582031-8-8-8h-64c-4.417969 0-8 3.582031-8 8v96c0 4.417969 3.582031 8 8 8h64c4.417969 0 8-3.582031 8-8zm-16-8h-48v-80h48zm0 0" fill="url(#b)"/><path d="m128 400h-8v-8c0-13.253906-10.746094-24-24-24h-16v-56c0-13.253906-10.746094-24-24-24h-8v-8c0-4.417969-3.582031-8-8-8h-32c-4.417969 0-8 3.582031-8 8v192c0 4.417969 3.582031 8 8 8h120c4.417969 0 8-3.582031 8-8v-64c0-4.417969-3.582031-8-8-8zm-72-96c4.417969 0 8 3.582031 8 8v72h32c4.417969 0 8 3.582031 8 8v8h-56v-96zm-40 160v-16h32v-16h-32v-144h16v128h88v16h-24v16h24v16zm0 0" fill="url(#c)"/><path d="m320 368h-14.238281l6.078125-30.398438c.480468-2.355468-.121094-4.800781-1.640625-6.660156-1.519531-1.863281-3.796875-2.941406-6.199219-2.941406h-48c-2.402344 0-4.679688 1.078125-6.199219 2.941406-1.519531 1.859375-2.121093 4.304688-1.640625 6.660156l6.078125 30.398438h-28.476562l6.078125-30.398438c.480468-2.355468-.121094-4.800781-1.640625-6.660156-1.519531-1.863281-3.796875-2.941406-6.199219-2.941406h-48c-2.402344 0-4.679688 1.078125-6.199219 2.941406-1.519531 1.859375-2.121093 4.304688-1.640625 6.660156l6.078125 30.398438h-14.238281c-4.417969 0-8 3.582031-8 8v48c0 4.417969 3.582031 8 8 8h9.222656l6.890625 41.3125c.640625 3.855469 3.976563 6.6875 7.886719 6.6875h32c4.417969 0 8-3.582031 8-8v-40h32v40c0 4.417969 3.582031 8 8 8h32c3.910156 0 7.246094-2.832031 7.886719-6.6875l6.890625-41.3125h9.222656c4.417969 0 8-3.582031 8-8v-48c0-4.417969-3.582031-8-8-8zm-54.238281-24h28.476562l-4.796875 24h-18.890625zm-80 0h28.476562l-4.796875 24h-18.890625zm22.238281 120h-17.222656l-5.328125-32h22.550781zm81.222656 0h-17.222656v-32h22.550781zm22.777344-48h-144v-32h144zm0 0" fill="url(#d)"/><path d="m64 432h16v16h-16zm0 0" fill="url(#e)"/><path d="m472 272h-32c-4.417969 0-8 3.582031-8 8v8h-8c-13.253906 0-24 10.746094-24 24v56h-16c-13.253906 0-24 10.746094-24 24v8h-8c-4.417969 0-8 3.582031-8 8v64c0 4.417969 3.582031 8 8 8h120c4.417969 0 8-3.582031 8-8v-192c0-4.417969-3.582031-8-8-8zm-96 120c0-4.417969 3.582031-8 8-8h32v-72c0-4.417969 3.582031-8 8-8h8v96h-56zm-16 72v-48h88v-128h16v144h-56v16h56v16zm0 0" fill="url(#c)"/><path d="m376 432h16v16h-16zm0 0" fill="url(#e)"/><path d="m32 32h16v16h-16zm0 0" fill="url(#f)"/><path d="m32 64h16v16h-16zm0 0" fill="url(#g)"/><path d="m472 0h-64c-4.417969 0-8 3.582031-8 8v96c0 4.417969 3.582031 8 8 8h64c4.417969 0 8-3.582031 8-8v-96c0-4.417969-3.582031-8-8-8zm-8 96h-48v-80h48zm0 0" fill="url(#b)"/><path d="m432 32h16v16h-16zm0 0" fill="url(#f)"/><path d="m432 64h16v16h-16zm0 0" fill="url(#g)"/><path d="m168 288h144c4.417969 0 8-3.582031 8-8v-24h56c4.417969 0 8-3.582031 8-8v-160c0-4.417969-3.582031-8-8-8h-104c0-17.671875-14.328125-32-32-32s-32 14.328125-32 32h-104c-4.417969 0-8 3.582031-8 8v160c0 4.417969 3.582031 8 8 8h56v24c0 4.417969 3.582031 8 8 8zm136-16h-128v-16h128zm-64-208c8.835938 0 16 7.164062 16 16h-32c0-8.835938 7.164062-16 16-16zm-128 32h256v144h-256zm0 0" fill="url(#h)"/><g fill="url(#i)"><path d="m144 208h16v16h-16zm0 0"/><path d="m176 208h40v16h-40zm0 0"/><path d="m232 208h16v16h-16zm0 0"/><path d="m264 208h48v16h-48zm0 0"/><path d="m328 208h16v16h-16zm0 0"/></g><path d="m444.425781 224.839844 7.148438 14.320312 20.425781-10.214844v-54.707031l-56 11.210938v41.605469l-11.574219 5.785156 7.148438 14.320312 20.425781-10.214844v-38.394531l24-4.789062v25.292969zm0 0" fill="url(#j)"/><path d="m40 187.054688-11.574219 5.785156 7.148438 14.320312 20.425781-10.214844v-32l11.574219-5.785156-7.148438-14.320312-20.425781 10.214844zm0 0" fill="url(#k)"/></svg>