<!-- icon666.com - MILLIONS vector ICONS FREE --><svg id="Capa_1" enable-background="new 0 0 505.964 505.964" viewBox="0 0 505.964 505.964" xmlns="http://www.w3.org/2000/svg" xmlns:xlink="http://www.w3.org/1999/xlink"><linearGradient id="lg1"><stop offset="0" stop-color="#4800bf"></stop><stop offset="1" stop-color="#e5a100"></stop></linearGradient><linearGradient id="SVGID_1_" gradientTransform="matrix(0 8 -8 0 8871.678 -3465.555)" gradientUnits="userSpaceOnUse" x1="432.143" x2="497.429" xlink:href="#lg1" y1="1077.337" y2="1077.337"></linearGradient><linearGradient id="SVGID_00000040532797042982011120000003981083141277873803_" gradientTransform="matrix(0 8 -8 0 8871.678 -3465.555)" gradientUnits="userSpaceOnUse" x1="432.143" x2="497.429" xlink:href="#lg1" y1="1101.819" y2="1101.819"></linearGradient><linearGradient id="SVGID_00000106842090138821139210000012835796407725545918_" gradientTransform="matrix(0 8 -8 0 8871.678 -3465.555)" gradientUnits="userSpaceOnUse" x1="432.143" x2="497.429" xlink:href="#lg1" y1="1093.658" y2="1093.658"></linearGradient><linearGradient id="SVGID_00000018228275310129582340000017375482385939044533_" gradientTransform="matrix(0 8 -8 0 8871.678 -3465.555)" gradientUnits="userSpaceOnUse" x1="432.143" x2="497.429" xlink:href="#lg1" y1="1095.699" y2="1095.699"></linearGradient><linearGradient id="SVGID_00000113321441180893350160000015018127852802564004_" gradientTransform="matrix(0 8 -8 0 8871.678 -3465.555)" gradientUnits="userSpaceOnUse" x1="432.143" x2="497.429" xlink:href="#lg1" y1="1083.457" y2="1083.457"></linearGradient><linearGradient id="SVGID_00000176761468962710288970000001788944466125551517_" gradientTransform="matrix(0 8 -8 0 8871.678 -3465.555)" gradientUnits="userSpaceOnUse" x1="432.143" x2="497.429" xlink:href="#lg1" y1="1067.136" y2="1067.136"></linearGradient><g><g id="Layer_23"><path d="m497.803 252.734h-16.321v-16.321c0-4.507-3.654-8.161-8.161-8.161h-22.034l-82.268-54.864c-3.405-2.21-7.029-4.064-10.813-5.533-6.764-12.783-15.391-24.488-25.6-34.732l-41.212-41.212c-3.187-3.186-8.352-3.186-11.539 0l-10.552 10.552-33.075-33.075c-.853-6.064-3.476-11.741-7.54-16.321l-34.463-41.073-.18-.204c-13.723-14.682-36.749-15.46-51.432-1.738s-15.46 36.749-1.738 51.432c.621.665 1.267 1.306 1.937 1.922l40.804 34.316c4.633 4.142 10.383 6.828 16.534 7.72l33.132 33.043-10.552 10.552c-3.186 3.187-3.186 8.352 0 11.539l38.665 38.657-43.505 29.019h-22.034c-4.507 0-8.161 3.654-8.161 8.161v16.321h-16.321c-4.507 0-8.161 3.654-8.161 8.161v24.482c.011 32.285 9.207 63.901 26.514 91.155l-.955.694-31.011-39.906c-16.96-21.798-48.38-25.72-70.179-8.76-3.209 2.497-6.101 5.375-8.613 8.572l-77.2 98.255c-1.14 1.435-1.763 3.211-1.771 5.043v57.125c0 4.507 3.654 8.161 8.161 8.161h440.678c4.273.013 7.832-3.272 8.161-7.532l7.826-101.674c26.555-30.937 41.149-70.362 41.138-111.133v-24.482c.002-4.507-3.652-8.161-8.159-8.161zm-292.896-163.214c-3.904-.019-7.659-1.497-10.527-4.146l-40.804-34.316c-8.277-7.37-9.013-20.054-1.643-28.332 7.37-8.277 20.054-9.013 28.332-1.643.537.478 1.048.985 1.531 1.518l34.585 41.154c5.71 6.321 5.216 16.074-1.105 21.784-2.842 2.57-6.538 3.988-10.369 3.981zm14.918 12.429c5.489-2.954 9.989-7.454 12.943-12.943l24.996 24.996-12.943 12.943zm20.214 52.857 17.023-17.023 22.793 22.793 11.539-11.539-22.793-22.793 17.023-17.023 35.442 35.442c5.676 5.718 10.807 11.952 15.326 18.623-12.831-.453-25.488 3.076-36.234 10.103l-24.915 16.615zm69.178 32.161c15.42-10.055 35.323-10.055 50.743 0l61.948 41.285h-174.638zm-129.681 98.41v-16.321h8.161v16.321c0 4.507 3.654 8.161 8.161 8.161h.816l7.671 75.609c-16.182-24.944-24.798-54.037-24.809-83.77zm-163.215 204.018v-46.141l75.462-96.035c11.493-14.62 32.661-17.155 47.28-5.662 2.15 1.69 4.085 3.635 5.764 5.793l32.259 41.489c-.539.726-1.126 1.396-1.632 2.146l-65.571 98.41zm113.173 0 59.573-89.352c2.669-3.993 6.083-7.434 10.054-10.136 21.633 28.099 51.43 48.817 85.304 59.312l26.759 40.175h-181.69zm85.345-105.649c1.821-.278 3.659-.426 5.5-.441 12.569-.008 24.307 6.275 31.272 16.738l16.942 25.412c-20.757-9.779-39.098-24.021-53.714-41.709zm226.443 105.649h-110.488l-23.331-35.001c50.172 8.501 101.493-6.204 139.548-39.987zm7.663-99.675c-38.787 43.05-98.525 60.566-154.417 45.276l-29.305-44.011c-9.959-14.971-26.74-23.977-44.721-24.001l-7.451-73.446h243.295zm16.215-112.504h-261.142v-32.643h261.142zm24.483 8.161c-.008 28.211-7.772 55.878-22.442 79.975l5.517-71.814h.604c4.507 0 8.161-3.654 8.161-8.161v-16.321h8.161v16.321z" fill="url(#SVGID_1_)"></path><path d="m48.964 440.431h16.321v16.321h-16.321z" fill="url(#SVGID_00000040532797042982011120000003981083141277873803_)"></path><path d="m114.25 415.949h16.321v16.321h-16.321z" fill="url(#SVGID_00000106842090138821139210000012835796407725545918_)"></path><path d="m97.929 366.984h16.321v16.321h-16.321z" fill="url(#SVGID_00000018228275310129582340000017375482385939044533_)"></path><path d="m195.857 415.949h16.321v16.321h-16.321z" fill="url(#SVGID_00000113321441180893350160000015018127852802564004_)"></path><path d="m244.821 456.752h16.321v16.321h-16.321z" fill="url(#SVGID_1_)"></path><path d="m334.589 415.949c27.042 0 48.964-21.922 48.964-48.964s-21.922-48.964-48.964-48.964-48.964 21.922-48.964 48.964c.027 27.03 21.933 48.937 48.964 48.964zm0-81.608c18.028 0 32.643 14.615 32.643 32.643s-14.615 32.643-32.643 32.643-32.643-14.615-32.643-32.643 14.615-32.643 32.643-32.643z" fill="url(#SVGID_00000176761468962710288970000001788944466125551517_)"></path></g></g></svg>