<!-- icon666.com - MILLIONS OF FREE VECTOR ICONS --><svg id="Layer_1" enable-background="new 0 0 512 512" viewBox="0 0 512 512" xmlns="http://www.w3.org/2000/svg" xmlns:xlink="http://www.w3.org/1999/xlink"><linearGradient id="SVGID_1_" gradientUnits="userSpaceOnUse" x1="40.285" x2="517.725" y1="546.5" y2="69.06"><stop offset="0" stop-color="#fcc60e"></stop><stop offset="1" stop-color="#e92e29"></stop></linearGradient><path d="m512 320.778c0-31.091-25.296-56.386-56.389-56.386h-251.565c-4.418 0-8 3.582-8 8v98.967h-2.036v-3.623c0-8.517-4.047-17.104-10.561-22.412-5.429-4.424-11.973-6.126-18.428-4.796-18.83 3.886-38.382 2.133-55.025-.095-6.72-.896-13.374 1.193-18.741 5.891-6.069 5.312-9.692 13.315-9.692 21.412v3.623h-5.076v-183.546c0-21.086-17.156-38.242-38.243-38.242h-30.244c-4.418 0-8 3.582-8 8v221.788 75.254.02 48.269c0 4.418 3.582 8 8 8h27.673c3.551 0 6.677-2.341 7.676-5.748l12.472-42.52h400.319l12.496 43.571c.984 3.431 4.121 5.795 7.69 5.795h27.673c4.418 0 8-3.582 8-8v-49.347c0-.007.001-.013.001-.019v-75.274c0-.003 0-.006 0-.01zm-496 125.856v-59.274h480v59.274zm480-125.856v50.581h-235.158v-90.967h194.769c22.27.001 40.389 18.118 40.389 40.386zm-283.954-40.385h32.795v90.967h-32.795zm-114.483 87.343c0-3.498 1.621-7.089 4.229-9.372 1.305-1.142 3.419-2.433 6.082-2.071 17.975 2.405 39.206 4.276 60.379-.095 1.702-.349 3.414.164 5.089 1.529 2.792 2.275 4.668 6.297 4.668 10.009v3.623h-80.447zm-59.318-202.165c12.265 0 22.243 9.978 22.243 22.242v183.546h-44.488v-205.788zm-8.562 329.33h-13.683v-32.268h23.148zm452.671 1.099-9.569-33.366h23.214v33.366zm-380.565-225.974c-6.778 7.24-10.36 17.213-10.36 28.84s3.583 21.6 10.36 28.84c7.48 7.991 18.558 12.215 32.035 12.215 28.366 0 51.443-18.417 51.443-41.055 0-22.637-23.078-41.054-51.443-41.054-13.477.001-24.555 4.224-32.035 12.214zm67.478 28.84c0 13.581-16.231 25.055-35.443 25.055-21.816 0-26.396-13.625-26.396-25.055s4.579-25.054 26.396-25.054c19.212.001 35.443 11.474 35.443 25.054zm26.893-106.711-26.737 26.737h19.471c4.418 0 8 3.582 8 8s-3.582 8-8 8h-38.785c-3.236 0-6.153-1.949-7.391-4.938s-.554-6.43 1.734-8.718l26.737-26.737h-19.31c-4.418 0-8-3.582-8-8s3.582-8 8-8h38.624c3.236 0 6.153 1.949 7.391 4.938s.554 6.43-1.734 8.718zm-9.363-101.104c-1.238-2.99-.554-6.431 1.734-8.718l46.157-46.156h-37.878c-4.418 0-8-3.582-8-8s3.582-8 8-8h57.192c3.236 0 6.153 1.949 7.391 4.938 1.238 2.99.554 6.431-1.734 8.718l-46.157 46.157h38.117c4.418 0 8 3.582 8 8s-3.582 8-8 8h-57.431c-3.236 0-6.153-1.949-7.391-4.939zm-95.496 50.834 39.388-39.388h-31.407c-4.418 0-8-3.582-8-8s3.582-8 8-8h50.721c3.236 0 6.153 1.949 7.391 4.938 1.238 2.99.554 6.431-1.734 8.718l-39.388 39.388h31.618c4.418 0 8 3.582 8 8s-3.582 8-8 8h-50.932c-3.236 0-6.153-1.949-7.391-4.938-1.239-2.99-.554-6.431 1.734-8.718zm312.699-15.092c3.98 0 7.669-1.252 10.71-3.372l17.588 10.155c1.26.728 2.635 1.073 3.993 1.073 2.765 0 5.454-1.435 6.936-4.001 2.209-3.826.898-8.719-2.928-10.928l-17.585-10.153c.043-.518.079-1.038.079-1.567 0-7.499-4.426-13.967-10.793-16.98v-32.715c0-4.418-3.582-8-8-8s-8 3.582-8 8v32.715c-6.367 3.013-10.793 9.481-10.793 16.979 0 10.363 8.431 18.794 18.793 18.794zm0-16c-1.514 0-2.793-1.279-2.793-2.793s1.279-2.792 2.793-2.792 2.793 1.279 2.793 2.792c0 1.514-1.278 2.793-2.793 2.793zm0 83.343c47.496 0 86.136-38.641 86.136-86.137s-38.641-86.136-86.136-86.136c-47.496 0-86.137 38.641-86.137 86.136.001 47.497 38.641 86.137 86.137 86.137zm-41.752-142.453.522.905c1.481 2.567 4.17 4.002 6.936 4.002 1.357 0 2.733-.346 3.992-1.073 3.827-2.208 5.138-7.101 2.929-10.928l-.531-.92c6.221-2.709 12.907-4.538 19.904-5.336v1.065c0 4.418 3.582 8 8 8s8-3.582 8-8v-1.065c6.997.798 13.683 2.627 19.904 5.336l-.531.921c-2.209 3.827-.898 8.719 2.929 10.928 1.26.728 2.635 1.073 3.992 1.073 2.765 0 5.454-1.435 6.936-4.002l.523-.905c5.537 4.116 10.449 9.027 14.565 14.565l-.905.523c-3.827 2.208-5.138 7.101-2.929 10.928 1.481 2.567 4.17 4.002 6.936 4.002 1.357 0 2.733-.346 3.992-1.073l.921-.531c2.709 6.221 4.537 12.907 5.336 19.904h-1.065c-4.418 0-8 3.582-8 8s3.582 8 8 8h1.065c-.799 6.997-2.627 13.683-5.336 19.904l-.92-.531c-3.826-2.209-8.719-.899-10.928 2.929-2.209 3.827-.898 8.719 2.929 10.928l.905.522c-4.116 5.537-9.027 10.449-14.565 14.565l-.522-.905c-2.208-3.827-7.103-5.137-10.928-2.929-3.827 2.208-5.138 7.101-2.929 10.928l.531.92c-6.221 2.709-12.907 4.537-19.904 5.336v-1.064c0-4.418-3.582-8-8-8s-8 3.582-8 8v1.064c-6.997-.799-13.683-2.627-19.904-5.336l.531-.92c2.209-3.827.898-8.719-2.929-10.928-3.826-2.21-8.719-.899-10.928 2.929l-.522.904c-5.537-4.116-10.449-9.027-14.565-14.565l.904-.522c3.827-2.209 5.138-7.102 2.929-10.928-2.208-3.827-7.102-5.137-10.928-2.929l-.919.531c-2.709-6.221-4.537-12.907-5.336-19.904h1.064c4.418 0 8-3.582 8-8s-3.582-8-8-8h-1.064c.798-6.997 2.627-13.683 5.336-19.904l.92.531c1.26.728 2.635 1.073 3.992 1.073 2.765 0 5.454-1.436 6.936-4.002 2.209-3.826.898-8.719-2.929-10.928l-.905-.522c4.115-5.538 9.026-10.449 14.563-14.566zm41.752 164.317c59.551 0 108-48.449 108-108 0-59.552-48.448-108-108-108s-108 48.449-108 108 48.449 108 108 108zm0-200c50.729 0 92 41.271 92 92s-41.271 92-92 92-92-41.271-92-92 41.271-92 92-92z" fill="url(#SVGID_1_)"></path></svg>