<!-- icon666.com - MILLIONS OF FREE VECTOR ICONS --><svg version="1.1" id="Layer_1" xmlns="http://www.w3.org/2000/svg" xmlns:xlink="http://www.w3.org/1999/xlink" x="0px" y="0px" viewBox="0 0 511.998 511.998" style="enable-background:new 0 0 511.998 511.998;" xml:space="preserve"><path style="fill:#CCCCCC;" d="M239.548,295.992L239.548,295.992l131.781-137.626l-36.009-36.009L197.68,254.128L11.534,431.877 c-5.575,5.324-5.677,14.191-0.226,19.642l30.83,30.827c5.451,5.45,14.32,5.349,19.644-0.226L239.548,295.992z"></path><path style="fill:#B3B3B3;" d="M43.351,483.414c1.339,1.058,2.83,1.827,4.389,2.316c0.042,0.013,0.083,0.03,0.125,0.043 c0.31,0.094,0.624,0.168,0.939,0.24c0.108,0.024,0.214,0.054,0.322,0.076c0.283,0.057,0.569,0.098,0.855,0.137 c0.143,0.02,0.285,0.043,0.428,0.058c0.266,0.028,0.532,0.043,0.799,0.055c0.166,0.008,0.331,0.017,0.497,0.018 c0.25,0.003,0.501-0.005,0.751-0.016c0.183-0.008,0.366-0.018,0.549-0.033c0.236-0.02,0.472-0.047,0.708-0.079 c0.196-0.027,0.391-0.057,0.585-0.093c0.223-0.04,0.445-0.085,0.666-0.136c0.205-0.048,0.409-0.102,0.613-0.159 c0.209-0.059,0.417-0.119,0.623-0.188c0.212-0.071,0.421-0.151,0.631-0.232c0.194-0.075,0.388-0.15,0.579-0.234 c0.218-0.096,0.431-0.205,0.645-0.313c0.177-0.09,0.355-0.175,0.528-0.273c0.224-0.126,0.441-0.267,0.659-0.407 c0.156-0.1,0.315-0.193,0.467-0.3c0.241-0.168,0.472-0.355,0.704-0.541c0.121-0.097,0.247-0.185,0.365-0.286 c0.342-0.293,0.673-0.604,0.991-0.937c0.004-0.004,0.008-0.007,0.012-0.011l177.766-186.128l0,0l131.782-137.625l-20.04-20.04 L219.264,275.71L31.92,472.129l10.218,10.217c0.274,0.274,0.563,0.524,0.853,0.77C43.111,483.216,43.229,483.318,43.351,483.414z"></path><path style="fill:#FFA227;" d="M19.937,69.289L69.27,19.961c1.964-1.964,5.149-1.964,7.114,0L492.06,435.598 c1.964,1.964,1.964,5.149,0,7.113l-49.333,49.328c-1.964,1.964-5.15,1.964-7.114,0L19.937,76.403 C17.973,74.438,17.973,71.254,19.937,69.289z"></path><path style="fill:#FFCC5A;" d="M76.384,19.961c-1.965-1.964-5.149-1.964-7.114,0L54.482,34.748l422.79,422.75l0,0l14.788-14.787 c1.964-1.964,1.964-5.149,0-7.113L76.384,19.961z"></path><path style="fill:#F78B0B;" d="M492.061,435.597l-20.29-20.288c1.964,1.964,1.964,5.149,0,7.113l-49.333,49.328 c-1.965,1.964-5.15,1.964-7.114,0l20.29,20.288c1.965,1.964,5.15,1.964,7.114,0l49.333-49.328 C494.025,440.746,494.025,437.562,492.061,435.597z"></path><path style="fill:#FFB000;" d="M492.061,435.597l-20.29-20.288c1.964,1.964,1.964,5.149,0,7.113l-14.788,14.787l20.29,20.288l0,0 l14.788-14.787C494.025,440.746,494.025,437.562,492.061,435.597z"></path><path style="fill:#808080;" d="M502.124,171.506l-20.125-20.123l-36.477-26.543l0.409-0.409c2.828-2.827,2.828-7.412,0-10.239 L378.883,47.15c-27.685-27.682-71.962-28.654-100.816-2.923c-0.814,0.726-0.863,1.982-0.092,2.754l9.125,9.124 c0.568,0.568,1.429,0.704,2.156,0.362c18.657-8.762,41.58-5.441,56.982,9.994c4.994,5.005,4.959,13.224-0.041,18.223l-10.481,10.48 l-0.217,0.217l-11.271,11.27c-5.121,5.12-5.121,13.422,0,18.542l36.966,36.962c6.068,6.067,14.77,8.694,23.182,6.997l14.318-2.888 c3.354-0.677,6.795,0.663,8.809,3.43l23.665,32.516l20.125,20.123c3.451,3.451,9.046,3.451,12.497,0l38.334-38.33 C505.575,180.551,505.575,174.956,502.124,171.506z"></path><path style="fill:#666666;" d="M502.124,171.505l-13.879-13.878l-51.214,50.444l14.261,14.26c3.451,3.451,9.046,3.451,12.498,0 l38.334-38.33C505.575,180.551,505.575,174.956,502.124,171.505z"></path><path style="fill:#FFA227;" d="M169.589,280.952L169.589,280.952L11.534,431.877c-5.575,5.323-5.677,14.191-0.226,19.642 l30.83,30.827c5.451,5.45,14.32,5.348,19.644-0.226l150.94-158.04L169.589,280.952z"></path><path style="fill:#EF8B06;" d="M192.456,303.816L31.92,472.129l10.218,10.217c5.451,5.45,14.32,5.348,19.644-0.226l150.94-158.04 L192.456,303.816z"></path><path style="fill:#999999;" d="M415.256,122.714c0.144-0.189,0.298-0.373,0.471-0.546l0,0c2.08-2.077,2.081-5.448,0.003-7.526 l-35.99-35.986c-2.993-2.993-8.159-1.471-8.966,2.684c-1.28,6.588-4.466,12.876-9.558,17.968l-11.955,11.953 c-2.078,2.078-2.078,5.446,0,7.524l26.953,26.95c0.683,0.683,1.627,1.074,2.592,1.074c0.243,0,0.486-0.024,0.726-0.073 c0,0,10.322-2.077,13.636-2.744c0.662-0.133,1.265-0.458,1.743-0.936L415.256,122.714z"></path><path style="fill:#051C1B;" d="M379.31,176.945c2.179,0,4.369-0.219,6.507-0.651l14.318-2.888c0.56-0.108,1.143,0.118,1.476,0.575 l23.665,32.515c0.223,0.307,0.471,0.597,0.739,0.865l20.125,20.123c3.045,3.045,7.094,4.722,11.401,4.722 c4.306,0,8.355-1.677,11.401-4.722l38.333-38.33c3.046-3.046,4.723-7.094,4.723-11.401c0-4.306-1.677-8.355-4.722-11.4 l-20.125-20.123c-0.268-0.269-0.558-0.515-0.865-0.739l-31.34-22.805c0.259-1.093,0.392-2.224,0.392-3.375 c0-3.88-1.511-7.528-4.255-10.272l-67.048-67.042c-15.254-15.252-35.534-23.652-57.106-23.652c-19.853,0-38.929,7.26-53.713,20.445 c-1.882,1.678-3.002,4.085-3.074,6.602c-0.072,2.509,0.906,4.966,2.681,6.741l9.124,9.122c1.73,1.73,4.032,2.682,6.482,2.682 c1.346,0,2.704-0.303,3.924-0.876c5.674-2.665,12.004-4.073,18.307-4.073c11.497,0,22.3,4.481,30.42,12.619 c2.136,2.14,2.12,5.769-0.035,7.923l-21.968,21.966c-3.853,3.853-5.975,8.975-5.975,14.424c0,4.793,1.642,9.333,4.66,12.979 c0.413,0.499,0.478,0.557,0.089,0.093l-62.386,59.726L81.537,14.808c-0.08-0.08-0.168-0.148-0.25-0.226 c-0.22-0.209-0.44-0.417-0.673-0.608c-0.077-0.063-0.158-0.115-0.236-0.175c-0.25-0.195-0.502-0.388-0.765-0.562 c-0.03-0.02-0.062-0.036-0.092-0.055c-1.976-1.286-4.281-1.981-6.694-1.981c-2.437,0-4.763,0.706-6.752,2.015 c-0.01,0.006-0.02,0.011-0.029,0.018c-0.294,0.195-0.578,0.408-0.857,0.63c-0.047,0.037-0.097,0.069-0.144,0.107 c-0.321,0.262-0.631,0.541-0.927,0.838L49.33,29.595l-0.001,0.002l-34.543,34.54c-2.327,2.326-3.608,5.419-3.608,8.71 c0,3.289,1.281,6.382,3.608,8.709L187.167,253.92l0.088,0.088l-42.427,40.513l-0.001,0.001l-56.945,54.377 c-2.91,2.779-3.017,7.391-0.238,10.302c2.779,2.91,7.391,3.017,10.302,0.237l71.231-68.018l0.295-0.281l3.997,3.997L18.492,448.397 l-2.031-2.031c-1.238-1.237-1.908-2.882-1.888-4.632c0.02-1.75,0.728-3.38,1.994-4.587c0.002-0.002,0.003-0.004,0.005-0.005 l60.165-57.451c2.91-2.779,3.017-7.391,0.238-10.302c-2.78-2.911-7.392-3.018-10.302-0.237l-60.17,57.454 c-4.127,3.941-6.436,9.253-6.502,14.959c-0.066,5.707,2.12,11.071,6.156,15.106l23.782,23.78c0.001,0.001,0.001,0.001,0.001,0.001 c0.001,0.001,0.002,0.002,0.002,0.002l7.045,7.044c3.976,3.975,9.243,6.156,14.855,6.156c0.083,0,0.167,0,0.25-0.002 c5.706-0.065,11.019-2.375,14.959-6.501L217.99,329.112c0.001-0.001,0.002-0.002,0.003-0.004l21.674-22.693l-5.046-5.046 l195.839,195.82c2.327,2.327,5.42,3.608,8.71,3.608c3.291,0,6.384-1.281,8.71-3.607l49.333-49.328 c2.327-2.326,3.608-5.419,3.608-8.71c0-1.234-0.18-2.439-0.528-3.588c-0.58-1.914-1.626-3.667-3.08-5.121l-37.318-37.315 c-2.846-2.844-7.459-2.845-10.305,0.001c-2.845,2.845-2.845,7.459,0,10.305l35.722,35.718l-8.04,8.039L64.788,34.748l7.768-7.767 l0.272-0.272l355.999,355.965c2.846,2.844,7.46,2.845,10.305-0.001c2.845-2.845,2.845-7.459,0-10.305l-134.17-134.156l61.257-63.974 C370.298,176.008,374.731,176.945,379.31,176.945z M35.057,464.961l-6.259-6.259L183.774,305.44l4.869,4.869L35.057,464.961z M56.513,477.087c-0.302,0.316-0.631,0.598-0.981,0.843c-1.05,0.734-2.295,1.136-3.608,1.151c-0.007,0-0.014,0-0.021,0 c-0.073,0.001-0.145-0.006-0.218-0.007c-1.015-0.025-1.992-0.278-2.866-0.745c-0.046-0.025-0.09-0.055-0.136-0.081 c-0.136-0.077-0.272-0.154-0.402-0.242c-0.088-0.059-0.171-0.126-0.256-0.19c-0.085-0.063-0.173-0.122-0.255-0.19 c-0.165-0.136-0.325-0.28-0.478-0.433l-1.928-1.928l153.585-154.651l3.585,3.585L56.513,477.087z M212.602,313.656l-7.774-7.774 c-0.213-0.286-0.442-0.563-0.702-0.822c-0.249-0.247-0.515-0.465-0.789-0.669l-13.638-13.636c-0.2-0.268-0.414-0.53-0.656-0.774 c-0.261-0.264-0.542-0.496-0.83-0.711l-8.199-8.198l17.548-16.756l31.798,31.795L212.602,313.656z M466.967,457.498l-27.797,27.794 l-24.317-24.315l15.536-15.535c2.846-2.845,2.846-7.459,0.001-10.305c-2.846-2.845-7.458-2.846-10.305-0.001l-15.537,15.536 l-78.081-78.073l15.536-15.535c2.846-2.845,2.846-7.459,0-10.305c-2.845-2.845-7.459-2.846-10.305-0.001l-15.537,15.536 l-78.081-78.074l15.536-15.535c2.845-2.845,2.846-7.459,0-10.305c-2.846-2.845-7.459-2.846-10.305-0.001l-15.537,15.536 l-78.081-78.073l15.537-15.535c2.845-2.845,2.846-7.459,0-10.305s-7.459-2.845-10.305-0.001l-15.537,15.536l-78.081-78.073 l15.537-15.535c2.845-2.845,2.846-7.459,0-10.305c-2.845-2.844-7.457-2.843-10.304,0.001L51.003,97.161L26.686,72.846l27.797-27.794 L466.967,457.498z M329.381,111.803l21.969-21.966c7.868-7.868,7.889-20.663,0.046-28.523 c-10.873-10.897-25.34-16.898-40.736-16.898c-7.154,0-14.338,1.359-20.993,3.951l-2.321-2.321 c11.379-8.502,25.231-13.128,39.583-13.128c17.68,0,34.301,6.884,46.802,19.384l67.051,66.972l-0.409,0.409 c-1.508,1.507-2.281,3.598-2.115,5.723c0.166,2.124,1.254,4.07,2.977,5.324l36.016,26.207l19.722,19.72 c0.375,0.375,0.453,0.803,0.453,1.095c0,0.293-0.079,0.721-0.454,1.096l-38.333,38.33c-0.376,0.376-0.804,0.454-1.097,0.454 s-0.722-0.079-1.097-0.454l-19.722-19.72l-23.329-32.053c-3.009-4.134-7.856-6.602-12.968-6.602c-1.063,0-2.13,0.106-3.173,0.317 l-14.318,2.888c-1.192,0.24-2.412,0.362-3.626,0.362c-4.897,0-9.5-1.907-12.963-5.37l-36.966-36.962 c-1.101-1.1-1.706-2.563-1.706-4.119S328.281,112.902,329.381,111.803z M294.655,227.906l-28.882-28.88l62.317-59.669l26.235,26.232 L294.655,227.906z"></path></svg>