<!-- icon666.com - MILLIONS vector ICONS FREE --><svg viewBox="0 -25 384.59153 384" xmlns="http://www.w3.org/2000/svg" xmlns:xlink="http://www.w3.org/1999/xlink"><linearGradient id="a"><stop offset="0" stop-color="#bc4e9c"></stop><stop offset="1" stop-color="#f80759"></stop></linearGradient><linearGradient id="b" gradientTransform="matrix(1.001063 0 0 -1.001063 .000535 352.354485)" gradientUnits="userSpaceOnUse" x1="-15.6038" x2="396.5442" xlink:href="#a" y1="191.4062" y2="191.4062"></linearGradient><linearGradient id="c" gradientTransform="matrix(1.001063 0 0 -1.001063 .000535 352.354485)" gradientUnits="userSpaceOnUse" x1="-15.6045" x2="396.5435" xlink:href="#a" y1="191.4057" y2="191.4057"></linearGradient><linearGradient id="d" gradientTransform="matrix(1.001063 0 0 -1.001063 .000535 352.354485)" gradientUnits="userSpaceOnUse" x1="-15.6045" x2="396.5435" xlink:href="#a" y1="191.4068" y2="191.4068"></linearGradient><linearGradient id="e" gradientTransform="matrix(1.001063 0 0 -1.001063 .000535 352.354485)" gradientUnits="userSpaceOnUse" x1="-15.6051" x2="396.5429" xlink:href="#a" y1="191.4068" y2="191.4068"></linearGradient><linearGradient id="f" gradientTransform="matrix(1.001063 0 0 -1.001063 .000535 352.354485)" gradientUnits="userSpaceOnUse" x1="-15.6058" x2="396.5423" xlink:href="#a" y1="191.4068" y2="191.4068"></linearGradient><linearGradient id="g" gradientTransform="matrix(1.001063 0 0 -1.001063 .000535 352.354485)" gradientUnits="userSpaceOnUse" x1="-15.6031" x2="396.5414" xlink:href="#a" y1="152.9509" y2="152.9509"></linearGradient><linearGradient id="h" gradientTransform="matrix(1.001063 0 0 -1.001063 .000535 352.354485)" gradientUnits="userSpaceOnUse" x1="-15.6029" x2="396.5417" xlink:href="#a" y1="152.9509" y2="152.9509"></linearGradient><linearGradient id="i" gradientTransform="matrix(1.001063 0 0 -1.001063 .000535 352.354485)" gradientUnits="userSpaceOnUse" x1="-15.6031" x2="396.5414" xlink:href="#a" y1="50.3939" y2="50.3939"></linearGradient><linearGradient id="j" gradientTransform="matrix(1.001063 0 0 -1.001063 .000535 352.354485)" gradientUnits="userSpaceOnUse" x1="-15.6029" x2="396.5417" xlink:href="#a" y1="50.3939" y2="50.3939"></linearGradient><linearGradient id="k" gradientTransform="matrix(1.001063 0 0 -1.001063 .000535 352.354485)" gradientUnits="userSpaceOnUse" x1="-15.603" x2="396.5416" xlink:href="#a" y1="127.3117" y2="127.3117"></linearGradient><linearGradient id="l" gradientTransform="matrix(1.001063 0 0 -1.001063 .000535 352.354485)" gradientUnits="userSpaceOnUse" x1="-15.6029" x2="396.5417" xlink:href="#a" y1="127.3117" y2="127.3117"></linearGradient><linearGradient id="m" gradientTransform="matrix(1.001063 0 0 -1.001063 .000535 352.354485)" gradientUnits="userSpaceOnUse" x1="-15.6031" x2="396.5439" xlink:href="#a" y1="185.0003" y2="185.0003"></linearGradient><linearGradient id="n" gradientTransform="matrix(1.001063 0 0 -1.001063 .000535 352.354485)" gradientUnits="userSpaceOnUse" x1="-15.6038" x2="396.5442" xlink:href="#a" y1="88.8506" y2="88.8506"></linearGradient><linearGradient id="o" gradientTransform="matrix(1.001063 0 0 -1.001063 .000535 352.354485)" gradientUnits="userSpaceOnUse" x1="-15.6045" x2="396.5435" xlink:href="#a" y1="88.8509" y2="88.8509"></linearGradient><linearGradient id="p" gradientTransform="matrix(1.001063 0 0 -1.001063 .000535 352.354485)" gradientUnits="userSpaceOnUse" x1="-15.6051" x2="396.5429" xlink:href="#a" y1="88.8534" y2="88.8534"></linearGradient><linearGradient id="q" gradientTransform="matrix(1.001063 0 0 -1.001063 .000535 352.354485)" gradientUnits="userSpaceOnUse" x1="-15.6058" x2="396.5423" xlink:href="#a" y1="88.8528" y2="88.8528"></linearGradient><path d="m72.464844 178.109375c2.503906 2.507813 6.566406 2.507813 9.070312.003906 0 0 .003906 0 .003906-.003906l8.296876-8.292969 8.296874 8.292969c2.507813 2.503906 6.570313 2.496094 9.070313-.015625 2.496094-2.5 2.496094-6.554688 0-9.058594l-8.292969-8.296875 8.292969-8.292969c2.503906-2.511718 2.496094-6.574218-.015625-9.074218-2.5-2.496094-6.554688-2.496094-9.058594 0l-8.296875 8.296875-8.292969-8.296875c-2.511718-2.503906-6.574218-2.496094-9.074218.011718-2.496094 2.503907-2.496094 6.558594 0 9.0625l8.296875 8.292969-8.296875 8.296875c-2.507813 2.503906-2.507813 6.566406-.003906 9.070313 0 .003906.003906.003906.003906.003906zm0 0" fill="url(#b)"></path><path d="m123.800781 178.109375c2.5 2.507813 6.5625 2.507813 9.066407.003906.003906 0 .003906 0 .003906-.003906l8.296875-8.292969 8.296875 8.292969c2.511718 2.503906 6.574218 2.496094 9.074218-.015625 2.496094-2.5 2.496094-6.554688 0-9.058594l-8.296874-8.296875 8.296874-8.292969c2.5-2.511718 2.492188-6.574218-.015624-9.074218-2.503907-2.496094-6.554688-2.496094-9.058594 0l-8.296875 8.296875-8.296875-8.296875c-2.511719-2.503906-6.574219-2.496094-9.074219.015625-2.496094 2.503906-2.496094 6.554687 0 9.058593l8.296875 8.296876-8.296875 8.296874c-2.503906 2.503907-2.507813 6.5625-.003906 9.066407.003906.003906.003906.003906.007812.003906zm0 0" fill="url(#c)"></path><path d="m175.132812 178.109375c2.503907 2.507813 6.5625 2.507813 9.070313.003906 0 0 0 0 0-.003906l8.296875-8.292969 8.296875 8.292969c2.507813 2.503906 6.570313 2.5 9.074219-.007813 2.5-2.503906 2.5-6.558593 0-9.0625l-8.296875-8.296874 8.296875-8.296876c2.503906-2.507812 2.5-6.570312-.011719-9.074218-2.503906-2.496094-6.558594-2.496094-9.0625 0l-8.296875 8.296875-8.296875-8.296875c-2.507813-2.5-6.570313-2.492188-9.070313.015625-2.496093 2.503906-2.496093 6.554687 0 9.058593l8.292969 8.296876-8.292969 8.296874c-2.507812 2.503907-2.507812 6.5625-.003906 9.070313zm0 0" fill="url(#d)"></path><path d="m226.464844 178.109375c2.503906 2.507813 6.5625 2.507813 9.070312.003906 0 0 0 0 .003906-.003906l8.296876-8.292969 8.296874 8.292969c2.507813 2.503906 6.570313 2.5 9.070313-.007813 2.5-2.503906 2.5-6.558593 0-9.0625l-8.292969-8.296874 8.292969-8.296876c2.503906-2.507812 2.5-6.570312-.007813-9.074218-2.507812-2.496094-6.558593-2.496094-9.0625 0l-8.296874 8.296875-8.296876-8.296875c-2.511718-2.503906-6.570312-2.496094-9.074218.011718-2.5 2.503907-2.5 6.558594 0 9.0625l8.296875 8.296876-8.296875 8.296874c-2.503906 2.503907-2.507813 6.5625-.003906 9.066407 0 .003906.003906.003906.003906.003906zm0 0" fill="url(#e)"></path><path d="m277.796875 178.109375c2.503906 2.507813 6.566406 2.507813 9.070313.003906 0 0 .003906 0 .003906-.003906l8.296875-8.292969 8.296875 8.292969c2.507812 2.503906 6.570312 2.5 9.074218-.007813 2.496094-2.503906 2.496094-6.558593 0-9.0625l-8.296874-8.296874 8.296874-8.296876c2.5-2.507812 2.496094-6.570312-.011718-9.074218-2.503906-2.496094-6.558594-2.496094-9.0625 0l-8.296875 8.296875-8.296875-8.296875c-2.507813-2.503906-6.570313-2.496094-9.074219.011718-2.496094 2.503907-2.496094 6.558594 0 9.0625l8.296875 8.296876-8.296875 8.296874c-2.503906 2.503907-2.507813 6.5625-.003906 9.066407 0 .003906.003906.003906.003906.003906zm0 0" fill="url(#f)"></path><path d="m77.003906 192.824219h-25.667968c-3.542969 0-6.417969 2.875-6.417969 6.417969 0 3.542968 2.875 6.414062 6.417969 6.414062h25.667968c3.542969 0 6.414063-2.871094 6.414063-6.414062 0-3.542969-2.871094-6.417969-6.414063-6.417969zm0 0" fill="url(#g)"></path><path d="m102.667969 205.65625h25.667969c3.542968 0 6.414062-2.871094 6.414062-6.414062 0-3.542969-2.871094-6.417969-6.414062-6.417969h-25.667969c-3.542969 0-6.417969 2.875-6.417969 6.417969 0 3.542968 2.875 6.414062 6.417969 6.414062zm0 0" fill="url(#g)"></path><path d="m147.585938 199.242188c0 3.542968 2.871093 6.414062 6.414062 6.414062h.003906 25.664063c3.542969 0 6.417969-2.871094 6.417969-6.414062 0-3.542969-2.875-6.417969-6.417969-6.417969h-25.664063c-3.542968 0-6.417968 2.871093-6.417968 6.414062zm0 0" fill="url(#h)"></path><path d="m205.335938 205.65625h25.664062c3.542969 0 6.417969-2.871094 6.417969-6.414062 0-3.542969-2.875-6.417969-6.417969-6.417969h-25.664062c-3.546876 0-6.417969 2.875-6.417969 6.417969 0 3.542968 2.871093 6.414062 6.417969 6.414062zm0 0" fill="url(#g)"></path><path d="m282.335938 192.824219h-25.667969c-3.542969 0-6.417969 2.875-6.417969 6.417969 0 3.542968 2.875 6.414062 6.417969 6.414062h25.667969c3.542968 0 6.414062-2.871094 6.414062-6.414062 0-3.542969-2.871094-6.417969-6.414062-6.417969zm0 0" fill="url(#g)"></path><path d="m77.003906 295.492188h-25.667968c-3.542969 0-6.417969 2.871093-6.417969 6.414062s2.875 6.417969 6.417969 6.417969h25.667968c3.542969 0 6.414063-2.875 6.414063-6.417969s-2.871094-6.414062-6.414063-6.414062zm0 0" fill="url(#i)"></path><path d="m128.335938 295.492188h-25.667969c-3.542969 0-6.417969 2.871093-6.417969 6.414062s2.875 6.417969 6.417969 6.417969h25.667969c3.542968 0 6.414062-2.875 6.414062-6.417969s-2.871094-6.414062-6.414062-6.414062zm0 0" fill="url(#i)"></path><path d="m179.667969 295.492188h-25.664063c-3.546875 0-6.417968 2.871093-6.417968 6.414062s2.871093 6.417969 6.417968 6.417969h25.664063c3.542969 0 6.417969-2.875 6.417969-6.417969s-2.875-6.414062-6.417969-6.414062zm0 0" fill="url(#j)"></path><path d="m231 295.492188h-25.664062c-3.546876 0-6.417969 2.871093-6.417969 6.414062s2.871093 6.417969 6.417969 6.417969h25.664062c3.542969 0 6.417969-2.875 6.417969-6.417969s-2.875-6.414062-6.417969-6.414062zm0 0" fill="url(#i)"></path><path d="m282.335938 295.492188h-25.667969c-3.542969 0-6.417969 2.871093-6.417969 6.414062s2.875 6.417969 6.417969 6.417969h25.667969c3.542968 0 6.414062-2.875 6.414062-6.417969s-2.871094-6.414062-6.414062-6.414062zm0 0" fill="url(#i)"></path><path d="m102.667969 231.324219h25.667969c3.542968 0 6.414062-2.875 6.414062-6.417969s-2.871094-6.414062-6.414062-6.414062h-25.667969c-3.542969 0-6.417969 2.871093-6.417969 6.414062s2.875 6.417969 6.417969 6.417969zm0 0" fill="url(#k)"></path><path d="m186.085938 224.90625c0-3.542969-2.871094-6.414062-6.414063-6.414062h-.003906-25.664063c-3.546875 0-6.417968 2.871093-6.417968 6.414062s2.871093 6.417969 6.417968 6.417969h25.664063c3.542969 0 6.417969-2.871094 6.417969-6.414063 0 0 0 0 0-.003906zm0 0" fill="url(#l)"></path><path d="m237.417969 224.90625c0-3.542969-2.871094-6.414062-6.414063-6.414062h-.003906-25.664062c-3.546876 0-6.417969 2.871093-6.417969 6.414062s2.871093 6.417969 6.417969 6.417969h25.664062c3.542969 0 6.417969-2.871094 6.417969-6.414063 0 0 0 0 0-.003906zm0 0" fill="url(#k)"></path><path d="m288.75 224.90625c.003906-3.542969-2.871094-6.414062-6.414062-6.414062h-25.667969c-3.542969 0-6.417969 2.871093-6.417969 6.414062s2.875 6.417969 6.417969 6.417969h25.667969c3.542968 0 6.414062-2.871094 6.414062-6.414063 0 0 0 0 0-.003906zm0 0" fill="url(#k)"></path><path d="m340.082031 58.074219h-51.332031c-3.542969 0-6.417969 2.875-6.417969 6.417969 0 3.542968 2.875 6.417968 6.417969 6.417968h51.332031c17.710938.019532 32.0625 14.371094 32.085938 32.082032v83.417968c-.023438 17.710938-14.375 32.058594-32.085938 32.082032v-109.085938c.003907-3.542969-2.871093-6.414062-6.410156-6.414062-.003906 0-.003906 0-.003906 0h-114.023438l78.980469-60.03125c10.433594-7.921876 12.46875-22.800782 4.546875-33.230469-.65625-.867188-1.375-1.6875-2.144531-2.457031-9.316406-9.289063-24.394532-9.265626-33.683594.050781-.433594.4375-.851562.890625-1.25 1.359375l-9.28125 10.890625h-173.394531c-14.175781 0-25.664063 11.492187-25.664063 25.664062 0 14.175781 11.488282 25.671875 25.664063 25.671875h109.085937c3.542969 0 6.414063-2.875 6.414063-6.417968 0-3.542969-2.871094-6.417969-6.414063-6.417969h-109.085937c-7.085938 0-12.832031-5.746094-12.832031-12.832031 0-7.089844 5.746093-12.835938 12.832031-12.835938h162.460937l-60.136718 70.585938h-153.65625c-3.542969-.003907-6.417969 2.871093-6.417969 6.414062v105.117188l-16.378907-8.191407c-3.171874-1.582031-7.023437-.296875-8.609374 2.871094-1.585938 3.167969-.300782 7.023437 2.867187 8.609375l16.382813 8.191406-17.363282 13.023438c-2.832031 2.125-3.40625 6.148437-1.28125 8.980468 2.128906 2.835938 6.148438 3.40625 8.984375 1.28125l15.398438-11.550781v89.835938c0 3.542969 2.871093 6.414062 6.414062 6.417969h.003907 301.582031c3.542969 0 6.414062-2.871094 6.414062-6.414063 0-.003906 0-.003906 0-.003906v-96.25c24.796875-.027344 44.890625-20.121094 44.917969-44.917969v-83.414062c-.027344-24.796876-20.121094-44.886719-44.917969-44.917969zm-77.347656-25.664063h19.601563c3.542968 0 6.414062-2.875 6.414062-6.417968 0-3.542969-2.871094-6.417969-6.414062-6.417969h-8.667969l2.191406-2.566407c1.976563-2.335937 4.847656-3.730468 7.910156-3.835937.152344-.007813.308594-.011719.460938-.011719 2.902343-.011718 5.6875 1.140625 7.734375 3.199219 4.257812 4.246094 4.269531 11.140625.023437 15.398437-.351562.355469-.730469.683594-1.128906.988282l-80.617187 61.273437zm64.515625 263.082032h-19.25c-3.542969 0-6.414062 2.871093-6.414062 6.414062s2.871093 6.417969 6.414062 6.417969h19.25v12.832031h-288.746094v-45.757812l9.273438 6.179687c2.929687 1.992187 6.921875 1.234375 8.914062-1.699219 1.992188-2.929687 1.230469-6.917968-1.699218-8.914062-.03125-.019532-.066407-.042969-.097657-.0625l-11.242187-7.496094 11.242187-7.496094c2.964844-1.9375 3.800781-5.914062 1.859375-8.878906-1.9375-2.96875-5.914062-3.800781-8.878906-1.863281-.035156.023437-.066406.046875-.097656.066406l-9.273438 6.183594v-20.09375h38.5c3.542969 0 6.414063-2.875 6.414063-6.417969s-2.871094-6.414062-6.414063-6.414062h-38.5v-45.761719l9.273438 6.183593c2.929687 1.992188 6.921875 1.230469 8.914062-1.699218 1.992188-2.929688 1.230469-6.921875-1.699218-8.914063-.03125-.023437-.0625-.042969-.097657-.066406l-11.242187-7.496094 11.242187-7.492187c2.964844-1.941406 3.800781-5.917969 1.859375-8.882813-1.9375-2.964843-5.914062-3.800781-8.878906-1.859375-.035156.019532-.066406.042969-.097656.0625l-9.273438 6.183594v-32.925781h136.304688l-12.859375 15.089843c-2.296875 2.695313-1.976563 6.742188.722656 9.042969 2.292969 1.957031 5.644531 2.050781 8.046875.222657l32.042969-24.355469h124.488281v77h-19.25c-3.542969 0-6.417969 2.871093-6.417969 6.414062s2.875 6.417969 6.417969 6.417969h19.25v12.832031h-19.25c-3.542969 0-6.417969 2.875-6.417969 6.417969s2.875 6.417969 6.417969 6.417969h19.25zm0 0" fill="url(#m)"></path><path d="m72.464844 280.777344c2.503906 2.503906 6.566406 2.507812 9.070312.003906 0-.003906.003906-.003906.003906-.003906l8.296876-8.296875 8.296874 8.296875c2.507813 2.503906 6.570313 2.5 9.070313-.011719 2.5-2.503906 2.5-6.558594 0-9.0625l-8.292969-8.296875 8.292969-8.296875c2.503906-2.507813 2.5-6.570313-.007813-9.074219-2.503906-2.496094-6.558593-2.496094-9.0625 0l-8.296874 8.296875-8.296876-8.296875c-2.507812-2.503906-6.570312-2.5-9.074218.007813-2.5 2.503906-2.5 6.5625 0 9.066406l8.296875 8.296875-8.296875 8.296875c-2.503906 2.503906-2.507813 6.566406-.003906 9.070313 0 0 .003906.003906.003906.003906zm0 0" fill="url(#n)"></path><path d="m158.539062 246.039062c-2.503906-2.507812-6.566406-2.507812-9.070312-.003906 0 0-.003906 0-.003906.003906l-8.296875 8.292969-8.296875-8.292969c-2.507813-2.503906-6.570313-2.5-9.074219.007813-2.496094 2.503906-2.496094 6.558594 0 9.0625l8.296875 8.296875-8.296875 8.296875c-2.507813 2.503906-2.511719 6.566406-.007813 9.074219 2.5 2.507812 6.5625 2.511718 9.070313.011718.003906-.003906.007813-.007812.011719-.011718l8.296875-8.296875 8.296875 8.296875c2.507812 2.503906 6.570312 2.5 9.070312-.007813 2.5-2.507812 2.5-6.5625 0-9.0625l-8.292968-8.296875 8.292968-8.296875c2.507813-2.503906 2.507813-6.566406.003906-9.070312 0-.003907 0-.003907 0-.003907zm0 0" fill="url(#o)"></path><path d="m209.871094 246.039062c-2.503906-2.507812-6.5625-2.507812-9.070313-.003906 0 0 0 0-.003906.003906l-8.296875 8.292969-8.296875-8.292969c-2.507813-2.503906-6.570313-2.5-9.070313.007813-2.5 2.503906-2.5 6.558594 0 9.0625l8.292969 8.296875-8.292969 8.296875c-2.511718 2.503906-2.515624 6.566406-.011718 9.074219 2.503906 2.507812 6.566406 2.511718 9.074218.011718 0-.003906.007813-.007812.007813-.011718l8.296875-8.296875 8.296875 8.296875c2.507813 2.507812 6.570313 2.507812 9.074219 0 2.503906-2.503906 2.503906-6.566406 0-9.074219l-8.296875-8.296875 8.296875-8.296875c2.503906-2.503906 2.507812-6.5625.003906-9.070313zm0 0" fill="url(#o)"></path><path d="m261.203125 246.039062c-2.503906-2.507812-6.5625-2.507812-9.070313-.003906 0 0 0 0-.003906.003906l-8.296875 8.292969-8.296875-8.292969c-2.503906-2.507812-6.566406-2.507812-9.070312 0-2.503906 2.503907-2.507813 6.566407 0 9.074219l8.296875 8.296875-8.296875 8.296875c-2.507813 2.503907-2.507813 6.566407 0 9.070313 2.503906 2.507812 6.566406 2.507812 9.070312 0l8.296875-8.292969 8.296875 8.292969c2.507813 2.507812 6.570313 2.507812 9.074219 0 2.503906-2.503906 2.503906-6.566406 0-9.070313l-8.296875-8.296875 8.296875-8.296875c2.503906-2.503906 2.507813-6.566406.003906-9.070312 0-.003907 0-.003907-.003906-.003907zm0 0" fill="url(#p)"></path><path d="m303.464844 246.039062-8.296875 8.292969-8.296875-8.292969c-2.507813-2.507812-6.570313-2.507812-9.074219 0-2.507813 2.503907-2.507813 6.566407 0 9.074219l8.296875 8.296875-8.296875 8.296875c-2.507813 2.503907-2.507813 6.566407 0 9.070313 2.503906 2.507812 6.566406 2.507812 9.074219 0l8.296875-8.292969 8.296875 8.292969c2.503906 2.507812 6.566406 2.507812 9.074218 0 2.503907-2.503906 2.503907-6.566406 0-9.070313l-8.296874-8.296875 8.296874-8.296875c2.503907-2.507812 2.503907-6.570312 0-9.074219-2.507812-2.507812-6.570312-2.507812-9.074218 0zm0 0" fill="url(#q)"></path></svg>