<!-- icon666.com - MILLIONS vector ICONS FREE --><svg version="1.1" id="Capa_1" xmlns="http://www.w3.org/2000/svg" xmlns:xlink="http://www.w3.org/1999/xlink" x="0px" y="0px" viewBox="0 0 480 480" style="enable-background:new 0 0 480 480;" xml:space="preserve"><linearGradient id="SVGID_1_" gradientUnits="userSpaceOnUse" x1="-12.8752" y1="558.355" x2="-12.8752" y2="617.523" gradientTransform="matrix(8 0 0 -8 455 4941)"><stop offset="0" style="stop-color:#006DF0"></stop><stop offset="1" style="stop-color:#00E7F0"></stop></linearGradient><path style="fill:url(#SVGID_1_);" d="M472,8h-24c-2.122,0-4.156,0.844-5.656,2.344L428.688,24H424V8c0-4.418-3.582-8-8-8h-72.248 c-33.851,0.019-65.58,16.493-85.072,44.168l-33.224,47.2c-2.543,3.613-1.676,8.603,1.937,11.147c2.407,1.694,5.55,1.93,8.183,0.613 l59.728-29.864c10.216-5.082,21.319-8.141,32.696-9.008V104c0,4.418,3.582,8,8,8h8v344c0,13.255,10.745,24,24,24h16 c13.255,0,24-10.745,24-24V112h8c4.418,0,8-3.582,8-8V88h4.688l13.656,13.656c1.5,1.5,3.534,2.344,5.656,2.344h24 c4.418,0,8-3.582,8-8V16C480,11.582,476.418,8,472,8z M392,456c0,4.418-3.582,8-8,8h-16c-4.418,0-8-3.582-8-8V112h32V456z M464,88 h-12.688l-13.656-13.656c-1.5-1.5-3.534-2.344-5.656-2.344h-16c-4.418,0-8,3.582-8,8v16h-64V56c0-4.418-3.582-8-8-8h-1.336 c-16.144,0.019-32.065,3.779-46.512,10.984L256.8,74.664l14.968-21.296c16.498-23.42,43.352-37.357,72-37.368H408v16 c0,4.418,3.582,8,8,8h16c2.122,0,4.156-0.844,5.656-2.344L451.312,24H464V88z"></path><g><linearGradient id="SVGID_2_" gradientUnits="userSpaceOnUse" x1="-43.875" y1="558.355" x2="-43.875" y2="617.523" gradientTransform="matrix(8 0 0 -8 455 4941)"><stop offset="0" style="stop-color:#006DF0"></stop><stop offset="1" style="stop-color:#00E7F0"></stop></linearGradient><path style="fill:url(#SVGID_2_);" d="M200,0H8C3.582,0,0,3.582,0,8v464c0,4.418,3.582,8,8,8h192c4.418,0,8-3.582,8-8V8 C208,3.582,204.418,0,200,0z M192,464h-32v-16c0-4.418-3.582-8-8-8s-8,3.582-8,8v16h-32V352c0-4.418-3.582-8-8-8s-8,3.582-8,8v112 H64v-16c0-4.418-3.582-8-8-8s-8,3.582-8,8v16H16V16h32v96c0,4.418,3.582,8,8,8s8-3.582,8-8V16h32v16c0,4.418,3.582,8,8,8 s8-3.582,8-8V16h32v24c0,4.418,3.582,8,8,8s8-3.582,8-8V16h32V464z"></path><linearGradient id="SVGID_3_" gradientUnits="userSpaceOnUse" x1="-43.875" y1="558.355" x2="-43.875" y2="617.523" gradientTransform="matrix(8 0 0 -8 455 4941)"><stop offset="0" style="stop-color:#006DF0"></stop><stop offset="1" style="stop-color:#00E7F0"></stop></linearGradient><path style="fill:url(#SVGID_3_);" d="M104,280c-4.418,0-8,3.582-8,8v32c0,4.418,3.582,8,8,8s8-3.582,8-8v-32 C112,283.582,108.418,280,104,280z"></path><linearGradient id="SVGID_4_" gradientUnits="userSpaceOnUse" x1="-43.875" y1="558.355" x2="-43.875" y2="617.523" gradientTransform="matrix(8 0 0 -8 455 4941)"><stop offset="0" style="stop-color:#006DF0"></stop><stop offset="1" style="stop-color:#00E7F0"></stop></linearGradient><path style="fill:url(#SVGID_4_);" d="M104,200c-4.418,0-8,3.582-8,8v48c0,4.418,3.582,8,8,8s8-3.582,8-8v-48 C112,203.582,108.418,200,104,200z"></path><linearGradient id="SVGID_5_" gradientUnits="userSpaceOnUse" x1="-43.875" y1="558.355" x2="-43.875" y2="617.523" gradientTransform="matrix(8 0 0 -8 455 4941)"><stop offset="0" style="stop-color:#006DF0"></stop><stop offset="1" style="stop-color:#00E7F0"></stop></linearGradient><path style="fill:url(#SVGID_5_);" d="M104,56c-4.418,0-8,3.582-8,8v112c0,4.418,3.582,8,8,8s8-3.582,8-8V64 C112,59.582,108.418,56,104,56z"></path></g><g><linearGradient id="SVGID_6_" gradientUnits="userSpaceOnUse" x1="-37.875" y1="558.355" x2="-37.875" y2="617.523" gradientTransform="matrix(8 0 0 -8 455 4941)"><stop offset="0" style="stop-color:#006DF0"></stop><stop offset="1" style="stop-color:#00E7F0"></stop></linearGradient><path style="fill:url(#SVGID_6_);" d="M152,360c-4.418,0-8,3.582-8,8v48c0,4.418,3.582,8,8,8s8-3.582,8-8v-48 C160,363.582,156.418,360,152,360z"></path><linearGradient id="SVGID_7_" gradientUnits="userSpaceOnUse" x1="-37.875" y1="558.355" x2="-37.875" y2="617.523" gradientTransform="matrix(8 0 0 -8 455 4941)"><stop offset="0" style="stop-color:#006DF0"></stop><stop offset="1" style="stop-color:#00E7F0"></stop></linearGradient><path style="fill:url(#SVGID_7_);" d="M152,200c-4.418,0-8,3.582-8,8v128c0,4.418,3.582,8,8,8s8-3.582,8-8V208 C160,203.582,156.418,200,152,200z"></path><linearGradient id="SVGID_8_" gradientUnits="userSpaceOnUse" x1="-49.875" y1="558.355" x2="-49.875" y2="617.523" gradientTransform="matrix(8 0 0 -8 455 4941)"><stop offset="0" style="stop-color:#006DF0"></stop><stop offset="1" style="stop-color:#00E7F0"></stop></linearGradient><path style="fill:url(#SVGID_8_);" d="M56,136c-4.418,0-8,3.582-8,8v32c0,4.418,3.582,8,8,8s8-3.582,8-8v-32 C64,139.582,60.418,136,56,136z"></path><linearGradient id="SVGID_9_" gradientUnits="userSpaceOnUse" x1="-49.875" y1="558.355" x2="-49.875" y2="617.523" gradientTransform="matrix(8 0 0 -8 455 4941)"><stop offset="0" style="stop-color:#006DF0"></stop><stop offset="1" style="stop-color:#00E7F0"></stop></linearGradient><path style="fill:url(#SVGID_9_);" d="M56,200c-4.418,0-8,3.582-8,8v48c0,4.418,3.582,8,8,8s8-3.582,8-8v-48 C64,203.582,60.418,200,56,200z"></path><linearGradient id="SVGID_10_" gradientUnits="userSpaceOnUse" x1="-49.875" y1="558.355" x2="-49.875" y2="617.523" gradientTransform="matrix(8 0 0 -8 455 4941)"><stop offset="0" style="stop-color:#006DF0"></stop><stop offset="1" style="stop-color:#00E7F0"></stop></linearGradient><path style="fill:url(#SVGID_10_);" d="M56,280c-4.418,0-8,3.582-8,8v128c0,4.418,3.582,8,8,8s8-3.582,8-8V288 C64,283.582,60.418,280,56,280z"></path><linearGradient id="SVGID_11_" gradientUnits="userSpaceOnUse" x1="-37.875" y1="558.355" x2="-37.875" y2="617.523" gradientTransform="matrix(8 0 0 -8 455 4941)"><stop offset="0" style="stop-color:#006DF0"></stop><stop offset="1" style="stop-color:#00E7F0"></stop></linearGradient><path style="fill:url(#SVGID_11_);" d="M152,128c-4.418,0-8,3.582-8,8v32c0,4.418,3.582,8,8,8s8-3.582,8-8v-32 C160,131.582,156.418,128,152,128z"></path><linearGradient id="SVGID_12_" gradientUnits="userSpaceOnUse" x1="-37.875" y1="558.355" x2="-37.875" y2="617.523" gradientTransform="matrix(8 0 0 -8 455 4941)"><stop offset="0" style="stop-color:#006DF0"></stop><stop offset="1" style="stop-color:#00E7F0"></stop></linearGradient><path style="fill:url(#SVGID_12_);" d="M152,64c-4.418,0-8,3.582-8,8v32c0,4.418,3.582,8,8,8s8-3.582,8-8V72 C160,67.582,156.418,64,152,64z"></path></g></svg>