<!-- icon666.com - MILLIONS vector ICONS FREE --><svg id="svg4229" clip-rule="evenodd" fill-rule="evenodd" stroke-linecap="round" stroke-linejoin="round" stroke-miterlimit="1.5" viewBox="0 0 48 48" xmlns="http://www.w3.org/2000/svg" xmlns:xlink="http://www.w3.org/1999/xlink" xmlns:svg="http://www.w3.org/2000/svg"><linearGradient id="Color_Line_2" gradientTransform="translate(6.945 -23.848)"><stop id="stop4765" offset="0" stop-color="#5095d4"></stop></linearGradient><linearGradient id="Color_Line" gradientTransform="translate(6.945 -23.848)"><stop id="stop4759" offset="0" stop-color="#3b3b3b"></stop></linearGradient><linearGradient id="linearGradient913322" gradientUnits="userSpaceOnUse" x1="575.992" x2="623.991" y1="216.003" y2="264.004"><stop id="stop22287" offset="0" stop-color="#79c5d4"></stop><stop id="stop25308" offset="1" stop-color="#276dd7"></stop></linearGradient><g id="g899455" transform="translate(-576 -216)"><path id="path899431" clip-rule="nonzero" d="m599.96289 218.00195a1.0001 1.0001 0 0 0 -.25195.041 1.0001 1.0001 0 0 0 -.71094.95705c-.00019.75772-.40381 1.48541-.94922 2.39453-.5454.90912-1.23242 1.99967-1.23242 3.42383 0 .95951.36658 1.81794.97852 2.375.35145.31993.76496.53796 1.20312.66602v2.14062c-1.09272 0-2 .90728-2 2v3h-9.5c-1.36887 0-2.5 1.13113-2.5 2.5v8.5h-1.5c-1.36887 0-2.5 1.13113-2.5 2.5v8.5h-.5c-1.36887 0-2.5 1.13113-2.5 2.5s1.13113 2.5 2.5 2.5h39c1.36887 0 2.5-1.13113 2.5-2.5s-1.13113-2.5-2.5-2.5h-.5v-8.5c0-1.36887-1.13113-2.5-2.5-2.5h-1.5v-8.5c0-1.36887-1.13113-2.5-2.5-2.5h-9.5v-3c0-1.09272-.90728-2-2-2v-2.14062c.43834-.12802.85174-.34592 1.20312-.66602.61168-.5572.97852-1.41575.97852-2.375 0-2.92655-1.62328-5.28272-2.34961-6.37305a1.0001 1.0001 0 0 0 -.86914-.44336zm-.96289 13.99805h2v3h-2zm4.26367 7.82422c.0322.001.0572.006.0742.0117.4043.13481.67708.40541 1.14649.83594.46938.4305 1.1717.99148 2.19531 1.14843.59878.0918 1.17563-.0997 1.57812-.35547.40249-.25575.68764-.55724.94336-.81836.51144-.52223.83725-.79498 1.10547-.8125.84401-.0551 1.7423.12475 2.69336.39258v5.77346h-26v-2.91797c.0145.00014.0284.002.043.002 1.75524-.00062 3.03407-.93371 4.06836-1.70898 1.03428-.77527 1.84919-1.37757 2.77539-1.4375.51223-.0331.79237.22004 1.36719.76758.57481.54754 1.38459 1.40523 2.68359 1.46484 1.45039.0666 2.51684-.83336 3.49805-1.4707.4906-.31867.94945-.59685 1.30078-.74414.2635-.11048.43091-.13507.52734-.13086zm-9.43555 10.88476c.0386-.002.0669-.00046.084.004 1.04036.26009 2.03169.90548 3.21094 1.50977 1.17924.60428 2.61616 1.13989 4.34375.8457 1.20955-.20598 2.18349-.76813 3.05859-1.24219.8751-.47405 1.64553-.86031 2.42383-.95703.14816-.0184.4721.14358 1.02344.60352.55133.45993 1.23373 1.16165 2.33203 1.3164 1.7123.24127 2.90762-.42915 3.69922-.82031.79159-.39116 1.1121-.60884 2.27148-.13477.23756.0971.47948.17018.72461.22852v4.93741h-34v-4.29688c1.22371.3319 2.72257.89311 4.53125.97461 1.68834.0761 3.016-.96609 4.1543-1.77148.56915-.40269 1.09401-.77048 1.50586-.98242.30888-.15896.52094-.2076.63671-.21485z" fill="url(#linearGradient913322)" fill-rule="nonzero" stroke-linecap="butt" stroke-linejoin="miter"></path></g></svg>