<!-- icon666.com - MILLIONS vector ICONS FREE --><svg xmlns="http://www.w3.org/2000/svg" xmlns:xlink="http://www.w3.org/1999/xlink" viewBox="0 0 64 64"><defs><linearGradient id="linear-gradient" y1="32" x2="65.276" y2="32" gradientUnits="userSpaceOnUse"><stop offset="0" stop-color="#fc4a1a"></stop><stop offset="1" stop-color="#f7b733"></stop></linearGradient><linearGradient id="linear-gradient-2" y1="12" x2="65.276" y2="12" xlink:href="#linear-gradient"></linearGradient><linearGradient id="linear-gradient-3" y1="22" x2="65.276" y2="22" xlink:href="#linear-gradient"></linearGradient><linearGradient id="linear-gradient-5" y1="42" x2="65.276" y2="42" xlink:href="#linear-gradient"></linearGradient><linearGradient id="linear-gradient-6" y1="52" x2="65.276" y2="52" xlink:href="#linear-gradient"></linearGradient><linearGradient id="linear-gradient-7" y1="14" x2="65.276" y2="14" xlink:href="#linear-gradient"></linearGradient><linearGradient id="linear-gradient-8" y1="24" x2="65.276" y2="24" xlink:href="#linear-gradient"></linearGradient><linearGradient id="linear-gradient-9" y1="34" x2="65.276" y2="34" xlink:href="#linear-gradient"></linearGradient><linearGradient id="linear-gradient-10" y1="45" x2="65.276" y2="45" xlink:href="#linear-gradient"></linearGradient><linearGradient id="linear-gradient-11" y1="39" x2="65.276" y2="39" xlink:href="#linear-gradient"></linearGradient><linearGradient id="linear-gradient-12" y1="50" x2="65.276" y2="50" xlink:href="#linear-gradient"></linearGradient><linearGradient id="linear-gradient-13" y1="55" x2="65.276" y2="55" xlink:href="#linear-gradient"></linearGradient><linearGradient id="linear-gradient-14" y1="13.5" x2="65.276" y2="13.5" xlink:href="#linear-gradient"></linearGradient><linearGradient id="linear-gradient-15" y1="10.5" x2="65.276" y2="10.5" xlink:href="#linear-gradient"></linearGradient></defs><g id="Gradient_outline" data-name="Gradient outline"><path d="M56.707,30.293l-12-12A1,1,0,0,0,44,18H41V3a1,1,0,0,0-1-1H8A1,1,0,0,0,7,3V61a1,1,0,0,0,1,1H56a1,1,0,0,0,1-1V31A1,1,0,0,0,56.707,30.293ZM45,21.414,53.586,30H45ZM9,4H23V60H9ZM25,4H39V60H25ZM41,60V20h2V31a1,1,0,0,0,1,1H55V60Z" style="fill:url(#linear-gradient)"></path><path d="M15,16a4,4,0,1,0-4-4A4,4,0,0,0,15,16Zm0-6a2,2,0,1,1-2,2A2,2,0,0,1,15,10Z" style="fill:url(#linear-gradient-2)"></path><path d="M18,19a3,3,0,1,0,3,3A3,3,0,0,0,18,19Zm0,4a1,1,0,1,1,1-1A1,1,0,0,1,18,23Z" style="fill:url(#linear-gradient-3)"></path><path d="M15,36a4,4,0,1,0-4-4A4,4,0,0,0,15,36Zm0-6a2,2,0,1,1-2,2A2,2,0,0,1,15,30Z" style="fill:url(#linear-gradient)"></path><path d="M18,39a3,3,0,1,0,3,3A3,3,0,0,0,18,39Zm0,4a1,1,0,1,1,1-1A1,1,0,0,1,18,43Z" style="fill:url(#linear-gradient-5)"></path><path d="M15,48a4,4,0,1,0,4,4A4,4,0,0,0,15,48Zm0,6a2,2,0,1,1,2-2A2,2,0,0,1,15,54Z" style="fill:url(#linear-gradient-6)"></path><path d="M34,11a3,3,0,1,0,3,3A3,3,0,0,0,34,11Zm0,4a1,1,0,1,1,1-1A1,1,0,0,1,34,15Z" style="fill:url(#linear-gradient-7)"></path><path d="M31,28a4,4,0,1,0-4-4A4,4,0,0,0,31,28Zm0-6a2,2,0,1,1-2,2A2,2,0,0,1,31,22Z" style="fill:url(#linear-gradient-8)"></path><path d="M34,31a3,3,0,1,0,3,3A3,3,0,0,0,34,31Zm0,4a1,1,0,1,1,1-1A1,1,0,0,1,34,35Z" style="fill:url(#linear-gradient-9)"></path><path d="M35,45a4,4,0,1,0-4,4A4,4,0,0,0,35,45Zm-6,0a2,2,0,1,1,2,2A2,2,0,0,1,29,45Z" style="fill:url(#linear-gradient-10)"></path><path d="M50,36a3,3,0,1,0,3,3A3,3,0,0,0,50,36Zm0,4a1,1,0,1,1,1-1A1,1,0,0,1,50,40Z" style="fill:url(#linear-gradient-11)"></path><path d="M47,46a4,4,0,1,0,4,4A4,4,0,0,0,47,46Zm0,6a2,2,0,1,1,2-2A2,2,0,0,1,47,52Z" style="fill:url(#linear-gradient-12)"></path><path d="M34,52a3,3,0,1,0,3,3A3,3,0,0,0,34,52Zm0,4a1,1,0,1,1,1-1A1,1,0,0,1,34,56Z" style="fill:url(#linear-gradient-13)"></path><rect x="53" y="5" width="2" height="17" style="fill:url(#linear-gradient-14)"></rect><rect x="49" y="2" width="2" height="17" style="fill:url(#linear-gradient-15)"></rect></g></svg>