<!-- icon666.com - MILLIONS OF FREE VECTOR ICONS --><svg viewBox="-144 0 480 480" xmlns="http://www.w3.org/2000/svg" xmlns:xlink="http://www.w3.org/1999/xlink"><linearGradient id="a"><stop offset="0" stop-color="#fec183"></stop><stop offset=".173" stop-color="#fea981"></stop><stop offset=".538" stop-color="#fe6b7b"></stop><stop offset="1" stop-color="#ff1572"></stop></linearGradient><linearGradient id="b" gradientUnits="userSpaceOnUse" x1="-175.99997" x2="342.21603" xlink:href="#a" y1="172.864" y2="172.864"></linearGradient><linearGradient id="c" gradientUnits="userSpaceOnUse" x1="-175.99997" x2="342.21603" xlink:href="#a" y1="440" y2="440"></linearGradient><linearGradient id="d" gradientUnits="userSpaceOnUse" x1="-175.99997" x2="342.21603" xlink:href="#a" y1="432" y2="432"></linearGradient><linearGradient id="e" gradientUnits="userSpaceOnUse" x1="-175.99997" x2="342.21603" xlink:href="#a" y1="240" y2="240"></linearGradient><path d="m144 151.03125v64.96875c0 4.417969 3.582031 8 8 8s8-3.582031 8-8v-68c-.003906-1.9375-.707031-3.808594-1.984375-5.265625l-16-18.285156c-1.8125-2.375-4.796875-3.539063-7.742187-3.019531-2.941407.515624-5.347657 2.628906-6.246094 5.476562-.894532 2.851562-.128906 5.960938 1.988281 8.070312zm0 0" fill="url(#b)"></path><path d="m56 432h-16c-4.417969 0-8 3.582031-8 8s3.582031 8 8 8h16c4.417969 0 8-3.582031 8-8s-3.582031-8-8-8zm0 0" fill="url(#c)"></path><path d="m152 416c-4.417969 0-8 3.582031-8 8v8h-56c-4.417969 0-8 3.582031-8 8s3.582031 8 8 8h64c4.417969 0 8-3.582031 8-8v-16c0-4.417969-3.582031-8-8-8zm0 0" fill="url(#d)"></path><path d="m192 248v-112c-.003906-1.9375-.707031-3.808594-1.984375-5.265625l-54.015625-61.734375v-61c0-4.417969-3.582031-8-8-8h-64c-4.417969 0-8 3.582031-8 8v61l-54.015625 61.734375c-1.277344 1.457031-1.98046875 3.328125-1.984375 5.265625v112c-.00390625 2.148438.859375 4.207031 2.398438 5.703125-1.5625 3.207031-2.382813 6.726563-2.398438 10.296875v16c.0195312 5.921875 2.246094 11.625 6.238281 16-3.992187 4.375-6.2187498 10.078125-6.238281 16v16c.0195312 5.921875 2.246094 11.625 6.238281 16-3.992187 4.375-6.2187498 10.078125-6.238281 16v16c.015625 3.570312.835938 7.089844 2.398438 10.296875-1.539063 1.496094-2.40234425 3.554687-2.398438 5.703125v64c0 13.253906 10.746094 24 24 24h144c13.253906 0 24-10.746094 24-24v-64c.003906-2.148438-.863281-4.203125-2.398438-5.703125 1.558594-3.210937 2.378907-6.726563 2.398438-10.296875v-16c-.019531-5.921875-2.246094-11.625-6.238281-16 3.992187-4.375 6.21875-10.078125 6.238281-16v-16c-.019531-5.921875-2.246094-11.625-6.238281-16 3.992187-4.375 6.21875-10.078125 6.238281-16v-16c-.019531-3.570312-.839844-7.085938-2.398438-10.296875 1.535157-1.5 2.402344-3.554687 2.398438-5.703125zm-120-232h48v48h-48zm-4.367188 64h56.734376l14.03125 16.070312c-.382813.128907-.757813.273438-1.132813.410157-13.097656 5.296875-27.140625 7.855469-41.265625 7.519531-14.132812.339844-28.1875-2.21875-41.296875-7.519531-.375-.136719-.75-.28125-1.136719-.410157zm-51.632812 59.007812 26.191406-29.945312.847656.265625c2.113282.71875 4.167969 1.449219 6.199219 2.183594 14.851563 5.964843 30.761719 8.851562 46.761719 8.488281 16 .363281 31.910156-2.523438 46.761719-8.488281 2.03125-.734375 4.085937-1.464844 6.199219-2.183594l.847656-.265625 26.191406 29.945312v100.992188h-160zm160 124.992188v16c0 4.417969-3.582031 8-8 8h-144c-4.417969 0-8-3.582031-8-8v-16c0-4.417969 3.582031-8 8-8h144c4.417969 0 8 3.582031 8 8zm0 48v16c0 4.417969-3.582031 8-8 8h-144c-4.417969 0-8-3.582031-8-8v-16c0-4.417969 3.582031-8 8-8h144c4.417969 0 8 3.582031 8 8zm0 48v16c0 4.417969-3.582031 8-8 8h-144c-4.417969 0-8-3.582031-8-8v-16c0-4.417969 3.582031-8 8-8h144c4.417969 0 8 3.582031 8 8zm0 96c0 4.417969-3.582031 8-8 8h-144c-4.417969 0-8-3.582031-8-8v-56h160zm0 0" fill="url(#e)"></path></svg>